<?xml version="1.0" encoding="UTF-8" standalone="no"?><svg xmlns="http://www.w3.org/2000/svg" xmlns:xlink="http://www.w3.org/1999/xlink" contentScriptType="application/ecmascript" contentStyleType="text/css" height="482px" preserveAspectRatio="none" style="width:1641px;height:482px;" version="1.1" viewBox="0 0 1641 482" width="1641px" zoomAndPan="magnify"><defs><filter height="300%" id="fulgdrzvgaswy" width="300%" x="-1" y="-1"><feGaussianBlur result="blurOut" stdDeviation="2.0"/><feColorMatrix in="blurOut" result="blurOut2" type="matrix" values="0 0 0 0 0 0 0 0 0 0 0 0 0 0 0 0 0 0 .4 0"/><feOffset dx="4.0" dy="4.0" in="blurOut2" result="blurOut3"/><feBlend in="SourceGraphic" in2="blurOut3" mode="normal"/></filter></defs><g><!--cluster ##32958--><!--cluster ##32979--><!--cluster ##32988--><!--class Role--><a target="_top" xlink:actuate="onRequest" xlink:href="../Role.html" xlink:show="new" xlink:title="Role of a party in an activity." xlink:type="simple"><rect fill="#FEFEEE" filter="url(#fulgdrzvgaswy)" height="44.7734" id="Role" style="stroke: #A80036; stroke-width: 1.5;" width="175" x="698.75" y="40.5"/><rect fill="#FEFEEE" height="23.9688" style="stroke: #A80036; stroke-width: 1.5;" width="175" x="698.75" y="40.5"/><text fill="#000000" font-family="sans-serif" font-size="12" lengthAdjust="spacingAndGlyphs" textLength="27" x="772.75" y="56.6387">Role</text><line style="stroke: #A80036; stroke-width: 1.5;" x1="699.75" x2="872.75" y1="64.4688" y2="64.4688"/><ellipse cx="709.75" cy="76.3711" fill="#84BE84" rx="3" ry="3" style="stroke: #038048; stroke-width: 1.0;"/><text fill="#000000" font-family="sans-serif" font-size="11" lengthAdjust="spacingAndGlyphs" textLength="53" x="718.75" y="78.6792">PartyRole</text><text fill="#000000" font-family="sans-serif" font-size="11" font-style="italic" lengthAdjust="spacingAndGlyphs" textLength="92" x="775.75" y="78.6792">(PartyRoleCode)</text></a><!--class AccountPartyRole--><a target="_top" xlink:actuate="onRequest" xlink:href="../AccountPartyRole.html" xlink:show="new" xlink:title="Role played by a party in the context of account operations." xlink:type="simple"><rect fill="#FEFECE" filter="url(#fulgdrzvgaswy)" height="23.9688" id="AccountPartyRole" style="stroke: #A80036; stroke-width: 1.5;" width="116" x="572.5" y="166"/><rect fill="#FEFECE" height="23.9688" style="stroke: #A80036; stroke-width: 1.5;" width="116" x="572.5" y="166"/><text fill="#000000" font-family="sans-serif" font-size="12" lengthAdjust="spacingAndGlyphs" textLength="110" x="575.5" y="182.1387">AccountPartyRole</text></a><!--class AccountOwnerRole--><a target="_top" xlink:actuate="onRequest" xlink:href="../AccountOwnerRole.html" xlink:show="new" xlink:title="Party that legally owns the account." xlink:type="simple"><rect fill="#FEFEEE" filter="url(#fulgdrzvgaswy)" height="23.9688" id="AccountOwnerRole" style="stroke: #A80036; stroke-width: 1.5;" width="123" x="38.75" y="272"/><rect fill="#FEFEEE" height="23.9688" style="stroke: #A80036; stroke-width: 1.5;" width="123" x="38.75" y="272"/><text fill="#000000" font-family="sans-serif" font-size="12" lengthAdjust="spacingAndGlyphs" textLength="117" x="41.75" y="288.1387">AccountOwnerRole</text></a><!--class InvestmentAccountPartyRole--><a target="_top" xlink:actuate="onRequest" xlink:href="../InvestmentAccountPartyRole.html" xlink:show="new" xlink:title="Specifies roles played by a party that are related to an investment account." xlink:type="simple"><rect fill="#FEFEEE" filter="url(#fulgdrzvgaswy)" height="23.9688" id="InvestmentAccountPartyRole" style="stroke: #A80036; stroke-width: 1.5;" width="185" x="196.75" y="272"/><rect fill="#FEFEEE" height="23.9688" style="stroke: #A80036; stroke-width: 1.5;" width="185" x="196.75" y="272"/><text fill="#000000" font-family="sans-serif" font-size="12" lengthAdjust="spacingAndGlyphs" textLength="179" x="199.75" y="288.1387">InvestmentAccountPartyRole</text></a><!--class IntermediaryRole--><a target="_top" xlink:actuate="onRequest" xlink:href="../IntermediaryRole.html" xlink:show="new" xlink:title="Party that provides services relating to financial products to investors, for example, advice on products and placement of orders." xlink:type="simple"><rect fill="#FEFEEE" filter="url(#fulgdrzvgaswy)" height="23.9688" id="IntermediaryRole" style="stroke: #A80036; stroke-width: 1.5;" width="111" x="416.75" y="272"/><rect fill="#FEFEEE" height="23.9688" style="stroke: #A80036; stroke-width: 1.5;" width="111" x="416.75" y="272"/><text fill="#000000" font-family="sans-serif" font-size="12" lengthAdjust="spacingAndGlyphs" textLength="105" x="419.75" y="288.1387">IntermediaryRole</text></a><!--class AccountServicerRole--><a target="_top" xlink:actuate="onRequest" xlink:href="../AccountServicerRole.html" xlink:show="new" xlink:title="Party that manages the account on behalf of the account owner, that is manages the registration and booking of entries on the account, calculates balances on the account and provides information about the account." xlink:type="simple"><rect fill="#FEFEEE" filter="url(#fulgdrzvgaswy)" height="23.9688" id="AccountServicerRole" style="stroke: #A80036; stroke-width: 1.5;" width="134" x="563" y="272"/><rect fill="#FEFEEE" height="23.9688" style="stroke: #A80036; stroke-width: 1.5;" width="134" x="563" y="272"/><text fill="#000000" font-family="sans-serif" font-size="12" lengthAdjust="spacingAndGlyphs" textLength="128" x="566" y="288.1387">AccountServicerRole</text></a><!--class RepresentativeOfficer--><a target="_top" xlink:actuate="onRequest" xlink:href="../RepresentativeOfficer.html" xlink:show="new" xlink:title="Officer who has some rights to represent a given organisation. In account management, it is the person to be contacted by the account servicer." xlink:type="simple"><rect fill="#FEFEEE" filter="url(#fulgdrzvgaswy)" height="23.9688" id="RepresentativeOfficer" style="stroke: #A80036; stroke-width: 1.5;" width="141" x="732.75" y="272"/><rect fill="#FEFEEE" height="23.9688" style="stroke: #A80036; stroke-width: 1.5;" width="141" x="732.75" y="272"/><text fill="#000000" font-family="sans-serif" font-size="12" lengthAdjust="spacingAndGlyphs" textLength="135" x="735.75" y="288.1387">RepresentativeOfficer</text></a><!--class RolePlayer--><a target="_top" xlink:actuate="onRequest" xlink:href="../RolePlayer.html" xlink:show="new" xlink:title="Type of entity that plays a specific role in a specific context." xlink:type="simple"><rect fill="#EEEEEE" filter="url(#fulgdrzvgaswy)" height="23.9688" id="RolePlayer" style="stroke: #A80036; stroke-width: 1.5;" width="71" x="1216.75" y="448"/><rect fill="#EEEEEE" height="23.9688" style="stroke: #A80036; stroke-width: 1.5;" width="71" x="1216.75" y="448"/><text fill="#000000" font-family="sans-serif" font-size="12" lengthAdjust="spacingAndGlyphs" textLength="65" x="1219.75" y="464.1387">RolePlayer</text></a><!--class ContactPersonRole--><a target="_top" xlink:actuate="onRequest" xlink:href="../ContactPersonRole.html" xlink:show="new" xlink:title="Person to be contacted in a given organisation. In the corporate action domain (including meeting notifications) , it is the contact person at the party organising the meeting, at the issuer or at an intermediary." xlink:type="simple"><rect fill="#EEEEEE" filter="url(#fulgdrzvgaswy)" height="23.9688" id="ContactPersonRole" style="stroke: #A80036; stroke-width: 1.5;" width="126" x="1169" y="362"/><rect fill="#EEEEEE" height="23.9688" style="stroke: #A80036; stroke-width: 1.5;" width="126" x="1169" y="362"/><text fill="#000000" font-family="sans-serif" font-size="12" lengthAdjust="spacingAndGlyphs" textLength="120" x="1172" y="378.1387">ContactPersonRole</text></a><!--class CounterpartyRisk--><a target="_top" xlink:actuate="onRequest" xlink:href="../CounterpartyRisk.html" xlink:show="new" xlink:title="Calculation of the exposure amount that one party has vis-a-vis one counterparty or a central system, based on its credit risk." xlink:type="simple"><rect fill="#EEEEEE" filter="url(#fulgdrzvgaswy)" height="23.9688" id="CounterpartyRisk" style="stroke: #A80036; stroke-width: 1.5;" width="113" x="1175.75" y="272"/><rect fill="#EEEEEE" height="23.9688" style="stroke: #A80036; stroke-width: 1.5;" width="113" x="1175.75" y="272"/><text fill="#000000" font-family="sans-serif" font-size="12" lengthAdjust="spacingAndGlyphs" textLength="107" x="1178.75" y="288.1387">CounterpartyRisk</text></a><!--class Entry--><a target="_top" xlink:actuate="onRequest" xlink:href="../Entry.html" xlink:show="new" xlink:title="Posting to an account that results in an increase or decrease to a balance." xlink:type="simple"><rect fill="#EEEEEE" filter="url(#fulgdrzvgaswy)" height="23.9688" id="Entry" style="stroke: #A80036; stroke-width: 1.5;" width="38" x="1169" y="166"/><rect fill="#EEEEEE" height="23.9688" style="stroke: #A80036; stroke-width: 1.5;" width="38" x="1169" y="166"/><text fill="#000000" font-family="sans-serif" font-size="12" lengthAdjust="spacingAndGlyphs" textLength="32" x="1172" y="182.1387">Entry</text></a><!--class Account--><a target="_top" xlink:actuate="onRequest" xlink:href="../Account.html" xlink:show="new" xlink:title="Record of transactions in specific types of assets, maintained by a servicing party on behalf of one or more owning parties. Business relationship between an account servicer and one or more account owners." xlink:type="simple"><rect fill="#EEEEEE" filter="url(#fulgdrzvgaswy)" height="23.9688" id="Account" style="stroke: #A80036; stroke-width: 1.5;" width="57" x="930.75" y="272"/><rect fill="#EEEEEE" height="23.9688" style="stroke: #A80036; stroke-width: 1.5;" width="57" x="930.75" y="272"/><text fill="#000000" font-family="sans-serif" font-size="12" lengthAdjust="spacingAndGlyphs" textLength="51" x="933.75" y="288.1387">Account</text></a><!--link Role to AccountPartyRole--><path d="M740.012,97.312 C707.953,120.534 667.165,150.08 645.373,165.865 " fill="none" id="Role-AccountPartyRole" style="stroke: #A80036; stroke-width: 1.0;"/><polygon fill="none" points="735.987,91.584,756.29,85.52,744.2,102.922,735.987,91.584" style="stroke: #A80036; stroke-width: 1.0;"/><!--link AccountPartyRole to AccountOwnerRole--><path d="M552.146,183.684 C461.046,190.731 306.443,207.588 179,246 C157.829,252.381 135.111,263.518 119.496,271.911 " fill="none" id="AccountPartyRole-AccountOwnerRole" style="stroke: #A80036; stroke-width: 1.0;"/><polygon fill="none" points="551.777,176.693,572.236,182.211,552.801,190.655,551.777,176.693" style="stroke: #A80036; stroke-width: 1.0;"/><!--link AccountPartyRole to InvestmentAccountPartyRole--><path d="M570.421,195.535 C523.65,208.694 456.971,227.852 399,246 C372.465,254.307 342.573,264.41 320.655,271.958 " fill="none" id="AccountPartyRole-InvestmentAccountPartyRole" style="stroke: #A80036; stroke-width: 1.0;"/><polygon fill="none" points="568.637,188.765,589.784,190.109,572.414,202.246,568.637,188.765" style="stroke: #A80036; stroke-width: 1.0;"/><!--link AccountPartyRole to IntermediaryRole--><path d="M596.201,201.247 C563.171,222.989 514.253,255.188 488.787,271.95 " fill="none" id="AccountPartyRole-IntermediaryRole" style="stroke: #A80036; stroke-width: 1.0;"/><polygon fill="none" points="592.537,195.279,613.091,190.13,600.234,206.973,592.537,195.279" style="stroke: #A80036; stroke-width: 1.0;"/><!--link AccountPartyRole to AccountServicerRole--><path d="M630,210.217 C630,231.114 630,257.371 630,271.95 " fill="none" id="AccountPartyRole-AccountServicerRole" style="stroke: #A80036; stroke-width: 1.0;"/><polygon fill="none" points="623,210.13,630,190.13,637,210.13,623,210.13" style="stroke: #A80036; stroke-width: 1.0;"/><!--link AccountPartyRole to RepresentativeOfficer--><path d="M666.003,200.643 C702.175,222.388 756.476,255.032 784.619,271.95 " fill="none" id="AccountPartyRole-RepresentativeOfficer" style="stroke: #A80036; stroke-width: 1.0;"/><polygon fill="none" points="662.049,206.434,648.514,190.13,669.262,194.435,662.049,206.434" style="stroke: #A80036; stroke-width: 1.0;"/><!--link ContactPersonRole to RolePlayer--><!--link CounterpartyRisk to ContactPersonRole--><!--link Entry to CounterpartyRisk--><!--link Role to RolePlayer--><path d="M873.464,67.271 C1081.58,76.218 1589,105.376 1589,177 C1589,177 1589,177 1589,375 C1589,435.4496 1382.27,452.737 1292.64,457.3913 " fill="none" id="Role-RolePlayer" style="stroke: #A80036; stroke-width: 1.0;"/><polygon fill="#A80036" points="1287.43,457.6547,1296.6238,461.1866,1292.4234,457.3976,1296.2124,453.1972,1287.43,457.6547" style="stroke: #A80036; stroke-width: 1.0;"/><text fill="#000000" font-family="sans-serif" font-size="13" lengthAdjust="spacingAndGlyphs" textLength="39" x="1590" y="288.0669">Player</text><text fill="#000000" font-family="sans-serif" font-size="13" lengthAdjust="spacingAndGlyphs" textLength="7" x="1295.8913" y="451.3671">*</text><!--link Role to ContactPersonRole--><path d="M873.506,69.37 C1027.4,79.736 1333.2,104.809 1364,142 C1404.73,191.183 1340.31,279.28 1305,322 C1292.24,337.444 1273.69,350.321 1258.48,359.272 " fill="none" id="Role-ContactPersonRole" style="stroke: #A80036; stroke-width: 1.0;"/><polygon fill="#A80036" points="1253.88,361.923,1263.6745,360.8898,1258.2108,359.4242,1259.6764,353.9605,1253.88,361.923" style="stroke: #A80036; stroke-width: 1.0;"/><text fill="#000000" font-family="sans-serif" font-size="13" lengthAdjust="spacingAndGlyphs" textLength="121" x="1370" y="233.0669">ContactPersonRole</text><text fill="#000000" font-family="sans-serif" font-size="13" lengthAdjust="spacingAndGlyphs" textLength="8" x="1250.6825" y="350.9447">1</text><!--link Role to CounterpartyRisk--><path d="M873.408,67.134 C987.724,73.236 1178.8,90.981 1224,142 C1254.92,176.898 1244.32,237.753 1236.82,266.745 " fill="none" id="Role-CounterpartyRisk" style="stroke: #A80036; stroke-width: 1.0;"/><polygon fill="#A80036" points="1235.47,271.774,1241.6701,264.1216,1236.7685,266.9456,1233.9446,262.044,1235.47,271.774" style="stroke: #A80036; stroke-width: 1.0;"/><text fill="#000000" font-family="sans-serif" font-size="13" lengthAdjust="spacingAndGlyphs" textLength="109" x="1245" y="182.0669">CounterpartyRisk</text><text fill="#000000" font-family="sans-serif" font-size="13" lengthAdjust="spacingAndGlyphs" textLength="24" x="1207.2304" y="261.0026">0..1</text><!--link Role to Entry--><path d="M862.559,85.52 C954.992,111.503 1105.31,153.756 1163.72,170.174 " fill="none" id="Role-Entry" style="stroke: #A80036; stroke-width: 1.0;"/><polygon fill="#A80036" points="1168.75,171.588,1161.1734,165.2955,1163.9377,170.231,1159.0022,172.9953,1168.75,171.588" style="stroke: #A80036; stroke-width: 1.0;"/><text fill="#000000" font-family="sans-serif" font-size="13" lengthAdjust="spacingAndGlyphs" textLength="33" x="1036" y="129.0669">Entry</text><text fill="#000000" font-family="sans-serif" font-size="13" lengthAdjust="spacingAndGlyphs" textLength="8" x="1152.9297" y="163.484">1</text><!--link AccountPartyRole to Account--><path d="M687.532,189.682 C741.056,200.582 822.479,219.639 890,246 C906.268,252.351 923.586,261.646 936.803,269.331 " fill="none" id="AccountPartyRole-Account" style="stroke: #A80036; stroke-width: 1.0;"/><polygon fill="#A80036" points="941.12,271.869,935.3893,263.8591,936.8099,269.3346,931.3343,270.7553,941.12,271.869" style="stroke: #A80036; stroke-width: 1.0;"/><text fill="#000000" font-family="sans-serif" font-size="13" lengthAdjust="spacingAndGlyphs" textLength="52" x="864" y="233.0669">Account</text><text fill="#000000" font-family="sans-serif" font-size="13" lengthAdjust="spacingAndGlyphs" textLength="7" x="925.3409" y="260.8722">*</text><!--link Entry to Account--><path d="M1168.87,187.688 C1128.75,205.907 1035.62,248.202 988.07,269.798 " fill="none" id="Entry-Account" style="stroke: #A80036; stroke-width: 1.0;"/><polygon fill="#A80036" points="983.336,271.948,993.1845,271.8694,987.8887,269.8809,989.8772,264.5851,983.336,271.948" style="stroke: #A80036; stroke-width: 1.0;"/><text fill="#000000" font-family="sans-serif" font-size="13" lengthAdjust="spacingAndGlyphs" textLength="52" x="1096" y="233.0669">Account</text><text fill="#000000" font-family="sans-serif" font-size="13" lengthAdjust="spacingAndGlyphs" textLength="7" x="982.0687" y="260.9783">*</text><!--link Account to Account--><path d="M987.508,275.984 C1005.181,274.051 1022,276.723 1022,284 C1022,290.538 1008.42,293.359 992.85,292.463 " fill="none" id="Account-Account" style="stroke: #A80036; stroke-width: 1.0;"/><polygon fill="#A80036" points="987.508,292.016,996.1443,296.7504,992.4907,292.4317,996.8094,288.7781,987.508,292.016" style="stroke: #A80036; stroke-width: 1.0;"/><text fill="#000000" font-family="sans-serif" font-size="13" lengthAdjust="spacingAndGlyphs" textLength="94" x="1028" y="288.0669">ParentAccount</text><text fill="#000000" font-family="sans-serif" font-size="13" lengthAdjust="spacingAndGlyphs" textLength="8" x="995.7741" y="287.9799">1</text></g></svg>