<?xml version="1.0" encoding="UTF-8" standalone="no"?><svg xmlns="http://www.w3.org/2000/svg" xmlns:xlink="http://www.w3.org/1999/xlink" contentScriptType="application/ecmascript" contentStyleType="text/css" height="478px" preserveAspectRatio="none" style="width:774px;height:478px;" version="1.1" viewBox="0 0 774 478" width="774px" zoomAndPan="magnify"><defs><filter height="300%" id="faxyy4uisiopn" width="300%" x="-1" y="-1"><feGaussianBlur result="blurOut" stdDeviation="2.0"/><feColorMatrix in="blurOut" result="blurOut2" type="matrix" values="0 0 0 0 0 0 0 0 0 0 0 0 0 0 0 0 0 0 .4 0"/><feOffset dx="4.0" dy="4.0" in="blurOut2" result="blurOut3"/><feBlend in="SourceGraphic" in2="blurOut3" mode="normal"/></filter></defs><g><!--cluster ##22118--><!--cluster ##22130--><!--cluster ##22139--><!--class Role--><a target="_top" xlink:actuate="onRequest" xlink:href="../Role.html" xlink:show="new" xlink:title="Role of a party in an activity." xlink:type="simple"><rect fill="#FEFEEE" filter="url(#faxyy4uisiopn)" height="44.7734" id="Role" style="stroke: #A80036; stroke-width: 1.5;" width="175" x="96.75" y="40.5"/><rect fill="#FEFEEE" height="23.9688" style="stroke: #A80036; stroke-width: 1.5;" width="175" x="96.75" y="40.5"/><text fill="#000000" font-family="sans-serif" font-size="12" lengthAdjust="spacingAndGlyphs" textLength="27" x="170.75" y="56.6387">Role</text><line style="stroke: #A80036; stroke-width: 1.5;" x1="97.75" x2="270.75" y1="64.4688" y2="64.4688"/><ellipse cx="107.75" cy="76.3711" fill="#84BE84" rx="3" ry="3" style="stroke: #038048; stroke-width: 1.0;"/><text fill="#000000" font-family="sans-serif" font-size="11" lengthAdjust="spacingAndGlyphs" textLength="53" x="116.75" y="78.6792">PartyRole</text><text fill="#000000" font-family="sans-serif" font-size="11" font-style="italic" lengthAdjust="spacingAndGlyphs" textLength="92" x="173.75" y="78.6792">(PartyRoleCode)</text></a><!--class AssetPartyRole--><a target="_top" xlink:actuate="onRequest" xlink:href="../AssetPartyRole.html" xlink:show="new" xlink:title="Specifies roles played by a party that are linked to the handling of assets but not related to a specific process." xlink:type="simple"><rect fill="#FEFECE" filter="url(#faxyy4uisiopn)" height="23.9688" id="AssetPartyRole" style="stroke: #A80036; stroke-width: 1.5;" width="100" x="153" y="166"/><rect fill="#FEFECE" height="23.9688" style="stroke: #A80036; stroke-width: 1.5;" width="100" x="153" y="166"/><text fill="#000000" font-family="sans-serif" font-size="12" lengthAdjust="spacingAndGlyphs" textLength="94" x="156" y="182.1387">AssetPartyRole</text></a><!--class SecuritiesPartyRole--><a target="_top" xlink:actuate="onRequest" xlink:href="../SecuritiesPartyRole.html" xlink:show="new" xlink:title="Specifies roles played by a party that are linked to the handling of securities but not related to a specific process." xlink:type="simple"><rect fill="#FEFEEE" filter="url(#faxyy4uisiopn)" height="23.9688" id="SecuritiesPartyRole" style="stroke: #A80036; stroke-width: 1.5;" width="127" x="38.75" y="270"/><rect fill="#FEFEEE" height="23.9688" style="stroke: #A80036; stroke-width: 1.5;" width="127" x="38.75" y="270"/><text fill="#000000" font-family="sans-serif" font-size="12" lengthAdjust="spacingAndGlyphs" textLength="121" x="41.75" y="286.1387">SecuritiesPartyRole</text></a><!--class IssuerRole--><a target="_top" xlink:actuate="onRequest" xlink:href="../IssuerRole.html" xlink:show="new" xlink:title="Legal entity that has the right to issue securities." xlink:type="simple"><rect fill="#FEFEEE" filter="url(#faxyy4uisiopn)" height="23.9688" id="IssuerRole" style="stroke: #A80036; stroke-width: 1.5;" width="71" x="200.75" y="270"/><rect fill="#FEFEEE" height="23.9688" style="stroke: #A80036; stroke-width: 1.5;" width="71" x="200.75" y="270"/><text fill="#000000" font-family="sans-serif" font-size="12" lengthAdjust="spacingAndGlyphs" textLength="65" x="203.75" y="286.1387">IssuerRole</text></a><!--class RolePlayer--><a target="_top" xlink:actuate="onRequest" xlink:href="../RolePlayer.html" xlink:show="new" xlink:title="Type of entity that plays a specific role in a specific context." xlink:type="simple"><rect fill="#EEEEEE" filter="url(#faxyy4uisiopn)" height="23.9688" id="RolePlayer" style="stroke: #A80036; stroke-width: 1.5;" width="71" x="583.75" y="444"/><rect fill="#EEEEEE" height="23.9688" style="stroke: #A80036; stroke-width: 1.5;" width="71" x="583.75" y="444"/><text fill="#000000" font-family="sans-serif" font-size="12" lengthAdjust="spacingAndGlyphs" textLength="65" x="586.75" y="460.1387">RolePlayer</text></a><!--class ContactPersonRole--><a target="_top" xlink:actuate="onRequest" xlink:href="../ContactPersonRole.html" xlink:show="new" xlink:title="Person to be contacted in a given organisation. In the corporate action domain (including meeting notifications) , it is the contact person at the party organising the meeting, at the issuer or at an intermediary." xlink:type="simple"><rect fill="#EEEEEE" filter="url(#faxyy4uisiopn)" height="23.9688" id="ContactPersonRole" style="stroke: #A80036; stroke-width: 1.5;" width="126" x="576" y="358"/><rect fill="#EEEEEE" height="23.9688" style="stroke: #A80036; stroke-width: 1.5;" width="126" x="576" y="358"/><text fill="#000000" font-family="sans-serif" font-size="12" lengthAdjust="spacingAndGlyphs" textLength="120" x="579" y="374.1387">ContactPersonRole</text></a><!--class CounterpartyRisk--><a target="_top" xlink:actuate="onRequest" xlink:href="../CounterpartyRisk.html" xlink:show="new" xlink:title="Calculation of the exposure amount that one party has vis-a-vis one counterparty or a central system, based on its credit risk." xlink:type="simple"><rect fill="#EEEEEE" filter="url(#faxyy4uisiopn)" height="23.9688" id="CounterpartyRisk" style="stroke: #A80036; stroke-width: 1.5;" width="113" x="588.75" y="270"/><rect fill="#EEEEEE" height="23.9688" style="stroke: #A80036; stroke-width: 1.5;" width="113" x="588.75" y="270"/><text fill="#000000" font-family="sans-serif" font-size="12" lengthAdjust="spacingAndGlyphs" textLength="107" x="591.75" y="286.1387">CounterpartyRisk</text></a><!--class Entry--><a target="_top" xlink:actuate="onRequest" xlink:href="../Entry.html" xlink:show="new" xlink:title="Posting to an account that results in an increase or decrease to a balance." xlink:type="simple"><rect fill="#EEEEEE" filter="url(#faxyy4uisiopn)" height="23.9688" id="Entry" style="stroke: #A80036; stroke-width: 1.5;" width="38" x="576" y="166"/><rect fill="#EEEEEE" height="23.9688" style="stroke: #A80036; stroke-width: 1.5;" width="38" x="576" y="166"/><text fill="#000000" font-family="sans-serif" font-size="12" lengthAdjust="spacingAndGlyphs" textLength="32" x="579" y="182.1387">Entry</text></a><!--class Asset--><a target="_top" xlink:actuate="onRequest" xlink:href="../Asset.html" xlink:show="new" xlink:title="Tangible items of value to a business." xlink:type="simple"><rect fill="#EEEEEE" filter="url(#faxyy4uisiopn)" height="23.9688" id="Asset" style="stroke: #A80036; stroke-width: 1.5;" width="41" x="328.75" y="270"/><rect fill="#EEEEEE" height="23.9688" style="stroke: #A80036; stroke-width: 1.5;" width="41" x="328.75" y="270"/><text fill="#000000" font-family="sans-serif" font-size="12" lengthAdjust="spacingAndGlyphs" textLength="35" x="331.75" y="286.1387">Asset</text></a><!--link Role to AssetPartyRole--><path d="M190.988,105.559 C194.62,127.159 198.779,151.898 201.128,165.865 " fill="none" id="Role-AssetPartyRole" style="stroke: #A80036; stroke-width: 1.0;"/><polygon fill="none" points="184.032,106.404,187.618,85.52,197.838,104.083,184.032,106.404" style="stroke: #A80036; stroke-width: 1.0;"/><!--link AssetPartyRole to SecuritiesPartyRole--><path d="M177.72,204.53 C156.885,225.571 128.346,254.393 112.938,269.954 " fill="none" id="AssetPartyRole-SecuritiesPartyRole" style="stroke: #A80036; stroke-width: 1.0;"/><polygon fill="none" points="172.759,199.592,191.805,190.306,182.707,209.442,172.759,199.592" style="stroke: #A80036; stroke-width: 1.0;"/><!--link AssetPartyRole to IssuerRole--><path d="M212.905,209.615 C219.503,230.011 227.787,255.614 232.426,269.954 " fill="none" id="AssetPartyRole-IssuerRole" style="stroke: #A80036; stroke-width: 1.0;"/><polygon fill="none" points="206.154,211.489,206.658,190.306,219.474,207.18,206.154,211.489" style="stroke: #A80036; stroke-width: 1.0;"/><!--link ContactPersonRole to RolePlayer--><!--link CounterpartyRisk to ContactPersonRole--><!--link Entry to CounterpartyRisk--><!--link Role to RolePlayer--><path d="M271.385,67.644 C345.546,75.993 440,101.456 440,177 C440,177 440,177 440,371 C440,431.8572 525.842,448.7099 578.634,453.3199 " fill="none" id="Role-RolePlayer" style="stroke: #A80036; stroke-width: 1.0;"/><polygon fill="#A80036" points="583.635,453.7288,574.9919,449.0068,578.6517,453.3202,574.3382,456.98,583.635,453.7288" style="stroke: #A80036; stroke-width: 1.0;"/><text fill="#000000" font-family="sans-serif" font-size="13" lengthAdjust="spacingAndGlyphs" textLength="39" x="441" y="286.0669">Player</text><text fill="#000000" font-family="sans-serif" font-size="13" lengthAdjust="spacingAndGlyphs" textLength="7" x="568.7402" y="447.9585">*</text><!--link Role to ContactPersonRole--><path d="M271.267,70.963 C342.721,78.288 436.63,92.148 466,116 C511.488,152.942 488.131,186.452 516,238 C536.52,275.956 541.125,286.868 571,318 C584.704,332.281 602.714,345.597 616.757,355.039 " fill="none" id="Role-ContactPersonRole" style="stroke: #A80036; stroke-width: 1.0;"/><polygon fill="#A80036" points="620.978,357.842,615.6906,349.5328,616.8118,355.0774,611.2672,356.1987,620.978,357.842" style="stroke: #A80036; stroke-width: 1.0;"/><text fill="#000000" font-family="sans-serif" font-size="13" lengthAdjust="spacingAndGlyphs" textLength="121" x="517" y="233.0669">ContactPersonRole</text><text fill="#000000" font-family="sans-serif" font-size="13" lengthAdjust="spacingAndGlyphs" textLength="8" x="604.0642" y="346.8359">1</text><!--link Role to CounterpartyRisk--><path d="M271.451,66.467 C379.76,70.903 556.851,83.089 613,116 C644.069,134.211 658.904,219.427 659,220 C661.586,235.376 656.874,252.681 652.233,264.921 " fill="none" id="Role-CounterpartyRisk" style="stroke: #A80036; stroke-width: 1.0;"/><polygon fill="#A80036" points="650.27,269.837,657.322,262.9618,652.124,265.1934,649.8923,259.9954,650.27,269.837" style="stroke: #A80036; stroke-width: 1.0;"/><text fill="#000000" font-family="sans-serif" font-size="13" lengthAdjust="spacingAndGlyphs" textLength="109" x="653" y="182.0669">CounterpartyRisk</text><text fill="#000000" font-family="sans-serif" font-size="13" lengthAdjust="spacingAndGlyphs" textLength="24" x="622.5269" y="258.8292">0..1</text><!--link Role to Entry--><path d="M271.492,68.809 C364.199,75.235 503.383,89.082 549,116 C566.858,126.538 580.059,146.953 587.632,161.252 " fill="none" id="Role-Entry" style="stroke: #A80036; stroke-width: 1.0;"/><polygon fill="#A80036" points="589.983,165.844,589.4428,156.01,587.7048,161.3932,582.3215,159.6552,589.983,165.844" style="stroke: #A80036; stroke-width: 1.0;"/><text fill="#000000" font-family="sans-serif" font-size="13" lengthAdjust="spacingAndGlyphs" textLength="33" x="570" y="129.0669">Entry</text><text fill="#000000" font-family="sans-serif" font-size="13" lengthAdjust="spacingAndGlyphs" textLength="8" x="577.5397" y="154.8386">1</text><!--link AssetPartyRole to Asset--><path d="M218.902,190.11 C245.67,208.811 299.669,246.536 328.978,267.012 " fill="none" id="AssetPartyRole-Asset" style="stroke: #A80036; stroke-width: 1.0;"/><polygon fill="#A80036" points="333.117,269.904,328.0312,261.4698,329.0186,267.0399,323.4486,268.0272,333.117,269.904" style="stroke: #A80036; stroke-width: 1.0;"/><text fill="#000000" font-family="sans-serif" font-size="13" lengthAdjust="spacingAndGlyphs" textLength="36" x="286" y="233.0669">Asset</text><text fill="#000000" font-family="sans-serif" font-size="13" lengthAdjust="spacingAndGlyphs" textLength="7" x="318.0244" y="258.9192">*</text></g></svg>