<?xml version="1.0" encoding="UTF-8" standalone="no"?><svg xmlns="http://www.w3.org/2000/svg" xmlns:xlink="http://www.w3.org/1999/xlink" contentScriptType="application/ecmascript" contentStyleType="text/css" height="550px" preserveAspectRatio="none" style="width:1542px;height:550px;" version="1.1" viewBox="0 0 1542 550" width="1542px" zoomAndPan="magnify"><defs><filter height="300%" id="f1ueps2su2scj1" width="300%" x="-1" y="-1"><feGaussianBlur result="blurOut" stdDeviation="2.0"/><feColorMatrix in="blurOut" result="blurOut2" type="matrix" values="0 0 0 0 0 0 0 0 0 0 0 0 0 0 0 0 0 0 .4 0"/><feOffset dx="4.0" dy="4.0" in="blurOut2" result="blurOut3"/><feBlend in="SourceGraphic" in2="blurOut3" mode="normal"/></filter></defs><g><!--cluster ##25853--><!--cluster ##25874--><!--cluster ##25883--><!--cluster ##25888--><!--class Role--><a target="_top" xlink:actuate="onRequest" xlink:href="../Role.html" xlink:show="new" xlink:title="Role of a party in an activity." xlink:type="simple"><rect fill="#FEFEEE" filter="url(#f1ueps2su2scj1)" height="44.7734" id="Role" style="stroke: #A80036; stroke-width: 1.5;" width="175" x="387.75" y="40.5"/><rect fill="#FEFEEE" height="23.9688" style="stroke: #A80036; stroke-width: 1.5;" width="175" x="387.75" y="40.5"/><text fill="#000000" font-family="sans-serif" font-size="12" lengthAdjust="spacingAndGlyphs" textLength="27" x="461.75" y="56.6387">Role</text><line style="stroke: #A80036; stroke-width: 1.5;" x1="388.75" x2="561.75" y1="64.4688" y2="64.4688"/><ellipse cx="398.75" cy="76.3711" fill="#84BE84" rx="3" ry="3" style="stroke: #038048; stroke-width: 1.0;"/><text fill="#000000" font-family="sans-serif" font-size="11" lengthAdjust="spacingAndGlyphs" textLength="53" x="407.75" y="78.6792">PartyRole</text><text fill="#000000" font-family="sans-serif" font-size="11" font-style="italic" lengthAdjust="spacingAndGlyphs" textLength="92" x="464.75" y="78.6792">(PartyRoleCode)</text></a><!--class TradePartyRole--><a target="_top" xlink:actuate="onRequest" xlink:href="../TradePartyRole.html" xlink:show="new" xlink:title="Trading party in a commercial, securities, treasury trade. This role may also represent parties which play different intermediary roles in a trade." xlink:type="simple"><rect fill="#FEFEEE" filter="url(#f1ueps2su2scj1)" height="57.5781" id="TradePartyRole" style="stroke: #A80036; stroke-width: 1.5;" width="279" x="283.75" y="164"/><rect fill="#FEFEEE" height="23.9688" style="stroke: #A80036; stroke-width: 1.5;" width="279" x="283.75" y="164"/><text fill="#000000" font-family="sans-serif" font-size="12" lengthAdjust="spacingAndGlyphs" textLength="95" x="375.75" y="180.1387">TradePartyRole</text><line style="stroke: #A80036; stroke-width: 1.5;" x1="284.75" x2="561.75" y1="187.9688" y2="187.9688"/><ellipse cx="294.75" cy="199.8711" fill="#84BE84" rx="3" ry="3" style="stroke: #038048; stroke-width: 1.0;"/><text fill="#000000" font-family="sans-serif" font-size="11" lengthAdjust="spacingAndGlyphs" textLength="120" x="303.75" y="202.1792">TradingPartyCapacity</text><text fill="#000000" font-family="sans-serif" font-size="11" font-style="italic" lengthAdjust="spacingAndGlyphs" textLength="129" x="427.75" y="202.1792">(TradingCapacityCode)</text><ellipse cx="294.75" cy="212.6758" fill="#84BE84" rx="3" ry="3" style="stroke: #038048; stroke-width: 1.0;"/><text fill="#000000" font-family="sans-serif" font-size="11" lengthAdjust="spacingAndGlyphs" textLength="80" x="303.75" y="214.9839">BuyerOrSeller</text><text fill="#000000" font-family="sans-serif" font-size="11" font-style="italic" lengthAdjust="spacingAndGlyphs" textLength="104" x="387.75" y="214.9839">(OptionPartyCode)</text></a><!--class Broker--><a target="_top" xlink:actuate="onRequest" xlink:href="../Broker.html" xlink:show="new" xlink:title="Party that identifies a broker when required (for example, authorised broker, prime broker, etc)." xlink:type="simple"><rect fill="#FEFECE" filter="url(#f1ueps2su2scj1)" height="44.7734" id="Broker" style="stroke: #A80036; stroke-width: 1.5;" width="313" x="214.75" y="300.5"/><rect fill="#FEFECE" height="23.9688" style="stroke: #A80036; stroke-width: 1.5;" width="313" x="214.75" y="300.5"/><text fill="#000000" font-family="sans-serif" font-size="12" lengthAdjust="spacingAndGlyphs" textLength="41" x="350.75" y="316.6387">Broker</text><line style="stroke: #A80036; stroke-width: 1.5;" x1="215.75" x2="526.75" y1="324.4688" y2="324.4688"/><ellipse cx="225.75" cy="336.3711" fill="#84BE84" rx="3" ry="3" style="stroke: #038048; stroke-width: 1.0;"/><text fill="#000000" font-family="sans-serif" font-size="11" lengthAdjust="spacingAndGlyphs" textLength="122" x="234.75" y="338.6792">RemunerationAmount</text><text fill="#000000" font-family="sans-serif" font-size="11" font-style="italic" lengthAdjust="spacingAndGlyphs" textLength="161" x="360.75" y="338.6792">(ActiveCurrencyAndAmount)</text></a><!--class StepInBroker--><a target="_top" xlink:actuate="onRequest" xlink:href="../StepInBroker.html" xlink:show="new" xlink:title="Broker to which the investment manager directs the execution of a portion of the trade." xlink:type="simple"><rect fill="#FEFEEE" filter="url(#f1ueps2su2scj1)" height="23.9688" id="StepInBroker" style="stroke: #A80036; stroke-width: 1.5;" width="87" x="38.75" y="426"/><rect fill="#FEFEEE" height="23.9688" style="stroke: #A80036; stroke-width: 1.5;" width="87" x="38.75" y="426"/><text fill="#000000" font-family="sans-serif" font-size="12" lengthAdjust="spacingAndGlyphs" textLength="81" x="41.75" y="442.1387">StepInBroker</text></a><!--class StepOutBroker--><a target="_top" xlink:actuate="onRequest" xlink:href="../StepOutBroker.html" xlink:show="new" xlink:title="Brokerage firm that executes an order, but gives other firms credit and some of the commission for the trade." xlink:type="simple"><rect fill="#FEFEEE" filter="url(#f1ueps2su2scj1)" height="23.9688" id="StepOutBroker" style="stroke: #A80036; stroke-width: 1.5;" width="98" x="161.5" y="426"/><rect fill="#FEFEEE" height="23.9688" style="stroke: #A80036; stroke-width: 1.5;" width="98" x="161.5" y="426"/><text fill="#000000" font-family="sans-serif" font-size="12" lengthAdjust="spacingAndGlyphs" textLength="92" x="164.5" y="442.1387">StepOutBroker</text></a><!--class ClearingBroker--><a target="_top" xlink:actuate="onRequest" xlink:href="../ClearingBroker.html" xlink:show="new" xlink:title="Party which acts as a liaison between an investor and a clearing corporation." xlink:type="simple"><rect fill="#FEFEEE" filter="url(#f1ueps2su2scj1)" height="23.9688" id="ClearingBroker" style="stroke: #A80036; stroke-width: 1.5;" width="98" x="294.5" y="426"/><rect fill="#FEFEEE" height="23.9688" style="stroke: #A80036; stroke-width: 1.5;" width="98" x="294.5" y="426"/><text fill="#000000" font-family="sans-serif" font-size="12" lengthAdjust="spacingAndGlyphs" textLength="92" x="297.5" y="442.1387">ClearingBroker</text></a><!--class ExecutingBrokerRole--><a target="_top" xlink:actuate="onRequest" xlink:href="../ExecutingBrokerRole.html" xlink:show="new" xlink:title="Party responsible for executing an order (e.g. an executing or give-up broker)." xlink:type="simple"><rect fill="#FEFEEE" filter="url(#f1ueps2su2scj1)" height="23.9688" id="ExecutingBrokerRole" style="stroke: #A80036; stroke-width: 1.5;" width="135" x="427.75" y="426"/><rect fill="#FEFEEE" height="23.9688" style="stroke: #A80036; stroke-width: 1.5;" width="135" x="427.75" y="426"/><text fill="#000000" font-family="sans-serif" font-size="12" lengthAdjust="spacingAndGlyphs" textLength="129" x="430.75" y="442.1387">ExecutingBrokerRole</text></a><!--class RolePlayer--><a target="_top" xlink:actuate="onRequest" xlink:href="../RolePlayer.html" xlink:show="new" xlink:title="Type of entity that plays a specific role in a specific context." xlink:type="simple"><rect fill="#EEEEEE" filter="url(#f1ueps2su2scj1)" height="23.9688" id="RolePlayer" style="stroke: #A80036; stroke-width: 1.5;" width="71" x="1117.75" y="516"/><rect fill="#EEEEEE" height="23.9688" style="stroke: #A80036; stroke-width: 1.5;" width="71" x="1117.75" y="516"/><text fill="#000000" font-family="sans-serif" font-size="12" lengthAdjust="spacingAndGlyphs" textLength="65" x="1120.75" y="532.1387">RolePlayer</text></a><!--class ContactPersonRole--><a target="_top" xlink:actuate="onRequest" xlink:href="../ContactPersonRole.html" xlink:show="new" xlink:title="Person to be contacted in a given organisation. In the corporate action domain (including meeting notifications) , it is the contact person at the party organising the meeting, at the issuer or at an intermediary." xlink:type="simple"><rect fill="#EEEEEE" filter="url(#f1ueps2su2scj1)" height="23.9688" id="ContactPersonRole" style="stroke: #A80036; stroke-width: 1.5;" width="126" x="1070" y="426"/><rect fill="#EEEEEE" height="23.9688" style="stroke: #A80036; stroke-width: 1.5;" width="126" x="1070" y="426"/><text fill="#000000" font-family="sans-serif" font-size="12" lengthAdjust="spacingAndGlyphs" textLength="120" x="1073" y="442.1387">ContactPersonRole</text></a><!--class CounterpartyRisk--><a target="_top" xlink:actuate="onRequest" xlink:href="../CounterpartyRisk.html" xlink:show="new" xlink:title="Calculation of the exposure amount that one party has vis-a-vis one counterparty or a central system, based on its credit risk." xlink:type="simple"><rect fill="#EEEEEE" filter="url(#f1ueps2su2scj1)" height="23.9688" id="CounterpartyRisk" style="stroke: #A80036; stroke-width: 1.5;" width="113" x="1082.75" y="311"/><rect fill="#EEEEEE" height="23.9688" style="stroke: #A80036; stroke-width: 1.5;" width="113" x="1082.75" y="311"/><text fill="#000000" font-family="sans-serif" font-size="12" lengthAdjust="spacingAndGlyphs" textLength="107" x="1085.75" y="327.1387">CounterpartyRisk</text></a><!--class Entry--><a target="_top" xlink:actuate="onRequest" xlink:href="../Entry.html" xlink:show="new" xlink:title="Posting to an account that results in an increase or decrease to a balance." xlink:type="simple"><rect fill="#EEEEEE" filter="url(#f1ueps2su2scj1)" height="23.9688" id="Entry" style="stroke: #A80036; stroke-width: 1.5;" width="38" x="1070" y="181"/><rect fill="#EEEEEE" height="23.9688" style="stroke: #A80036; stroke-width: 1.5;" width="38" x="1070" y="181"/><text fill="#000000" font-family="sans-serif" font-size="12" lengthAdjust="spacingAndGlyphs" textLength="32" x="1073" y="197.1387">Entry</text></a><!--class Account--><a target="_top" xlink:actuate="onRequest" xlink:href="../Account.html" xlink:show="new" xlink:title="Record of transactions in specific types of assets, maintained by a servicing party on behalf of one or more owning parties. Business relationship between an account servicer and one or more account owners." xlink:type="simple"><rect fill="#EEEEEE" filter="url(#f1ueps2su2scj1)" height="23.9688" id="Account" style="stroke: #A80036; stroke-width: 1.5;" width="57" x="755.75" y="426"/><rect fill="#EEEEEE" height="23.9688" style="stroke: #A80036; stroke-width: 1.5;" width="57" x="755.75" y="426"/><text fill="#000000" font-family="sans-serif" font-size="12" lengthAdjust="spacingAndGlyphs" textLength="51" x="758.75" y="442.1387">Account</text></a><!--class Trade--><a target="_top" xlink:actuate="onRequest" xlink:href="../Trade.html" xlink:show="new" xlink:title="Result of an order between at least two parties. A trade relates to the delivery of goods and services, cash or securities." xlink:type="simple"><rect fill="#EEEEEE" filter="url(#f1ueps2su2scj1)" height="23.9688" id="Trade" style="stroke: #A80036; stroke-width: 1.5;" width="42" x="755.5" y="311"/><rect fill="#EEEEEE" height="23.9688" style="stroke: #A80036; stroke-width: 1.5;" width="42" x="755.5" y="311"/><text fill="#000000" font-family="sans-serif" font-size="12" lengthAdjust="spacingAndGlyphs" textLength="36" x="758.5" y="327.1387">Trade</text></a><!--class Commission--><a target="_top" xlink:actuate="onRequest" xlink:href="../Commission.html" xlink:show="new" xlink:title="Amount of money due to a party as compensation for a service." xlink:type="simple"><rect fill="#EEEEEE" filter="url(#f1ueps2su2scj1)" height="23.9688" id="Commission" style="stroke: #A80036; stroke-width: 1.5;" width="80" x="619" y="426"/><rect fill="#EEEEEE" height="23.9688" style="stroke: #A80036; stroke-width: 1.5;" width="80" x="619" y="426"/><text fill="#000000" font-family="sans-serif" font-size="12" lengthAdjust="spacingAndGlyphs" textLength="74" x="622" y="442.1387">Commission</text></a><!--link Role to TradePartyRole--><path d="M458.621,104.318 C450.751,123.689 441.513,146.43 434.417,163.897 " fill="none" id="Role-TradePartyRole" style="stroke: #A80036; stroke-width: 1.0;"/><polygon fill="none" points="452.166,101.608,466.179,85.713,465.137,106.877,452.166,101.608" style="stroke: #A80036; stroke-width: 1.0;"/><!--link TradePartyRole to Broker--><path d="M403.946,240.903 C395.68,261.248 386.405,284.081 379.806,300.323 " fill="none" id="TradePartyRole-Broker" style="stroke: #A80036; stroke-width: 1.0;"/><polygon fill="none" points="397.576,237.985,411.588,222.09,410.546,243.254,397.576,237.985" style="stroke: #A80036; stroke-width: 1.0;"/><!--link Broker to StepInBroker--><path d="M277.224,351.612 C235.423,365.052 186.015,382.518 143,402 C127.651,408.951 111.125,418.579 99.15,425.977 " fill="none" id="Broker-StepInBroker" style="stroke: #A80036; stroke-width: 1.0;"/><polygon fill="none" points="275.276,344.886,296.456,345.537,279.493,358.236,275.276,344.886" style="stroke: #A80036; stroke-width: 1.0;"/><!--link Broker to StepOutBroker--><path d="M323.538,357.312 C290.452,380.534 248.356,410.08 225.865,425.865 " fill="none" id="Broker-StepOutBroker" style="stroke: #A80036; stroke-width: 1.0;"/><polygon fill="none" points="319.946,351.281,340.338,345.52,327.989,362.74,319.946,351.281" style="stroke: #A80036; stroke-width: 1.0;"/><!--link Broker to ClearingBroker--><path d="M360.786,365.222 C355.414,386.901 349.238,411.825 345.759,425.865 " fill="none" id="Broker-ClearingBroker" style="stroke: #A80036; stroke-width: 1.0;"/><polygon fill="none" points="354.063,363.25,365.668,345.52,367.652,366.617,354.063,363.25" style="stroke: #A80036; stroke-width: 1.0;"/><!--link Broker to ExecutingBrokerRole--><path d="M407.88,359.538 C419.634,370.688 432.765,382.964 445,394 C457.242,405.043 471.532,417.268 481.693,425.851 " fill="none" id="Broker-ExecutingBrokerRole" style="stroke: #A80036; stroke-width: 1.0;"/><polygon fill="none" points="403.045,364.6,393.412,345.726,412.712,354.473,403.045,364.6" style="stroke: #A80036; stroke-width: 1.0;"/><!--link ContactPersonRole to RolePlayer--><!--link CounterpartyRisk to ContactPersonRole--><!--link Entry to CounterpartyRisk--><!--link Trade to Account--><!--link Role to RolePlayer--><path d="M562.417,65.904 C808.619,72.42 1490,98.865 1490,192 C1490,192 1490,192 1490,439 C1490,499.6217 1283.27,519.2654 1193.64,524.9332 " fill="none" id="Role-RolePlayer" style="stroke: #A80036; stroke-width: 1.0;"/><polygon fill="#A80036" points="1188.43,525.2555,1197.6636,528.6819,1193.4201,524.9412,1197.1608,520.6977,1188.43,525.2555" style="stroke: #A80036; stroke-width: 1.0;"/><text fill="#000000" font-family="sans-serif" font-size="13" lengthAdjust="spacingAndGlyphs" textLength="39" x="1491" y="327.0669">Player</text><text fill="#000000" font-family="sans-serif" font-size="13" lengthAdjust="spacingAndGlyphs" textLength="7" x="1196.8913" y="518.8806">*</text><!--link Role to ContactPersonRole--><path d="M562.331,67.387 C759.932,75.994 1227.59,102.027 1271,157 C1341.89,246.772 1202.08,378.848 1150.81,422.447 " fill="none" id="Role-ContactPersonRole" style="stroke: #A80036; stroke-width: 1.0;"/><polygon fill="#A80036" points="1146.71,425.911,1156.1668,423.1599,1150.53,422.6849,1151.005,417.048,1146.71,425.911" style="stroke: #A80036; stroke-width: 1.0;"/><text fill="#000000" font-family="sans-serif" font-size="13" lengthAdjust="spacingAndGlyphs" textLength="121" x="1284" y="265.0669">ContactPersonRole</text><text fill="#000000" font-family="sans-serif" font-size="13" lengthAdjust="spacingAndGlyphs" textLength="8" x="1140.7041" y="414.9286">1</text><!--link Role to CounterpartyRisk--><path d="M562.5,63.588 C721.876,64.839 1050,77.302 1125,157 C1163.71,198.138 1151.25,273.329 1143.36,306.065 " fill="none" id="Role-CounterpartyRisk" style="stroke: #A80036; stroke-width: 1.0;"/><polygon fill="#A80036" points="1142.14,310.942,1148.1991,303.1775,1143.35,306.0906,1140.4369,301.2415,1142.14,310.942" style="stroke: #A80036; stroke-width: 1.0;"/><text fill="#000000" font-family="sans-serif" font-size="13" lengthAdjust="spacingAndGlyphs" textLength="109" x="1152" y="197.0669">CounterpartyRisk</text><text fill="#000000" font-family="sans-serif" font-size="13" lengthAdjust="spacingAndGlyphs" textLength="24" x="1113.6647" y="299.9703">0..1</text><!--link Role to Entry--><path d="M562.319,82.203 C705.19,111.987 981.359,169.56 1064.64,186.923 " fill="none" id="Role-Entry" style="stroke: #A80036; stroke-width: 1.0;"/><polygon fill="#A80036" points="1069.85,188.007,1061.849,182.2639,1064.954,186.9924,1060.2255,190.0974,1069.85,188.007" style="stroke: #A80036; stroke-width: 1.0;"/><text fill="#000000" font-family="sans-serif" font-size="13" lengthAdjust="spacingAndGlyphs" textLength="33" x="802" y="129.0669">Entry</text><text fill="#000000" font-family="sans-serif" font-size="13" lengthAdjust="spacingAndGlyphs" textLength="8" x="1054.0578" y="180.3021">1</text><!--link TradePartyRole to Account--><path d="M562.496,208.836 C661.548,222.614 782.206,247.13 813,287 C844.241,327.449 812.022,391.99 794.175,421.438 " fill="none" id="TradePartyRole-Account" style="stroke: #A80036; stroke-width: 1.0;"/><polygon fill="#A80036" points="791.446,425.854,799.5795,420.3001,794.0741,421.6004,792.7738,416.0951,791.446,425.854" style="stroke: #A80036; stroke-width: 1.0;"/><text fill="#000000" font-family="sans-serif" font-size="13" lengthAdjust="spacingAndGlyphs" textLength="52" x="828" y="327.0669">Account</text><text fill="#000000" font-family="sans-serif" font-size="13" lengthAdjust="spacingAndGlyphs" textLength="7" x="784.3728" y="414.852">*</text><!--link TradePartyRole to Trade--><path d="M500.467,222.09 C579.898,250.892 698.892,294.04 750.552,312.772 " fill="none" id="TradePartyRole-Trade" style="stroke: #A80036; stroke-width: 1.0;"/><polygon fill="#A80036" points="755.338,314.508,748.2425,307.6776,750.6379,312.8023,745.5133,315.1977,755.338,314.508" style="stroke: #A80036; stroke-width: 1.0;"/><text fill="#000000" font-family="sans-serif" font-size="13" lengthAdjust="spacingAndGlyphs" textLength="36" x="633" y="265.0669">Trade</text><text fill="#000000" font-family="sans-serif" font-size="13" lengthAdjust="spacingAndGlyphs" textLength="7" x="740.4413" y="306.0303">*</text><!--link Broker to Commission--><path d="M429.649,345.594 C480.896,364.536 551.305,390.758 579,402 C596.058,408.924 614.934,417.155 630.066,423.895 " fill="none" id="Broker-Commission" style="stroke: #A80036; stroke-width: 1.0;"/><polygon fill="#A80036" points="634.635,425.935,628.0478,418.6132,630.0694,423.8965,624.7862,425.9181,634.635,425.935" style="stroke: #A80036; stroke-width: 1.0;"/><text fill="#000000" font-family="sans-serif" font-size="13" lengthAdjust="spacingAndGlyphs" textLength="79" x="559" y="389.0669">Commission</text><text fill="#000000" font-family="sans-serif" font-size="13" lengthAdjust="spacingAndGlyphs" textLength="7" x="616.7127" y="414.9609">*</text><!--link Entry to Account--><path d="M1079.11,205.259 C1045.7,243.114 936.655,365.046 893,394 C869.674,409.471 839.934,420.733 817.414,427.842 " fill="none" id="Entry-Account" style="stroke: #A80036; stroke-width: 1.0;"/><polygon fill="#A80036" points="812.434,429.383,822.2144,430.5423,817.2103,427.9042,819.8484,422.9002,812.434,429.383" style="stroke: #A80036; stroke-width: 1.0;"/><text fill="#000000" font-family="sans-serif" font-size="13" lengthAdjust="spacingAndGlyphs" textLength="52" x="1006" y="327.0669">Account</text><text fill="#000000" font-family="sans-serif" font-size="13" lengthAdjust="spacingAndGlyphs" textLength="7" x="820.553" y="421.0847">*</text><!--link Account to Account--><path d="M812.508,429.984 C830.181,428.051 847,430.723 847,438 C847,444.538 833.424,447.359 817.85,446.463 " fill="none" id="Account-Account" style="stroke: #A80036; stroke-width: 1.0;"/><polygon fill="#A80036" points="812.508,446.016,821.1443,450.7504,817.4907,446.4317,821.8094,442.7781,812.508,446.016" style="stroke: #A80036; stroke-width: 1.0;"/><text fill="#000000" font-family="sans-serif" font-size="13" lengthAdjust="spacingAndGlyphs" textLength="94" x="853" y="442.0669">ParentAccount</text><text fill="#000000" font-family="sans-serif" font-size="13" lengthAdjust="spacingAndGlyphs" textLength="8" x="820.7741" y="441.9799">1</text><!--link Trade to Commission--><path d="M755.217,326.018 C726.751,330.024 676.595,341.808 654,376 C645.312,389.148 648.369,407.536 652.478,420.679 " fill="none" id="Trade-Commission" style="stroke: #A80036; stroke-width: 1.0;"/><polygon fill="#A80036" points="654.145,425.611,655.0521,415.804,652.5437,420.8743,647.4734,418.366,654.145,425.611" style="stroke: #A80036; stroke-width: 1.0;"/><text fill="#000000" font-family="sans-serif" font-size="13" lengthAdjust="spacingAndGlyphs" textLength="115" x="655" y="389.0669">TradeCommission</text><text fill="#000000" font-family="sans-serif" font-size="13" lengthAdjust="spacingAndGlyphs" textLength="7" x="643.1631" y="415.0457">*</text></g></svg>