<?xml version="1.0" encoding="UTF-8" standalone="no"?><svg xmlns="http://www.w3.org/2000/svg" xmlns:xlink="http://www.w3.org/1999/xlink" contentScriptType="application/ecmascript" contentStyleType="text/css" height="482px" preserveAspectRatio="none" style="width:1245px;height:482px;" version="1.1" viewBox="0 0 1245 482" width="1245px" zoomAndPan="magnify"><defs><filter height="300%" id="f3puvnn2760ro" width="300%" x="-1" y="-1"><feGaussianBlur result="blurOut" stdDeviation="2.0"/><feColorMatrix in="blurOut" result="blurOut2" type="matrix" values="0 0 0 0 0 0 0 0 0 0 0 0 0 0 0 0 0 0 .4 0"/><feOffset dx="4.0" dy="4.0" in="blurOut2" result="blurOut3"/><feBlend in="SourceGraphic" in2="blurOut3" mode="normal"/></filter></defs><g><!--cluster ##46481--><!--cluster ##46493--><!--cluster ##46502--><!--class Role--><a target="_top" xlink:actuate="onRequest" xlink:href="../Role.html" xlink:show="new" xlink:title="Role of a party in an activity." xlink:type="simple"><rect fill="#FEFEEE" filter="url(#f3puvnn2760ro)" height="44.7734" id="Role" style="stroke: #A80036; stroke-width: 1.5;" width="175" x="303.056" y="40.5"/><rect fill="#FEFEEE" height="23.9688" style="stroke: #A80036; stroke-width: 1.5;" width="175" x="303.056" y="40.5"/><text fill="#000000" font-family="sans-serif" font-size="12" lengthAdjust="spacingAndGlyphs" textLength="27" x="377.056" y="56.6387">Role</text><line style="stroke: #A80036; stroke-width: 1.5;" x1="304.056" x2="477.056" y1="64.4688" y2="64.4688"/><ellipse cx="314.056" cy="76.3711" fill="#84BE84" rx="3" ry="3" style="stroke: #038048; stroke-width: 1.0;"/><text fill="#000000" font-family="sans-serif" font-size="11" lengthAdjust="spacingAndGlyphs" textLength="53" x="323.056" y="78.6792">PartyRole</text><text fill="#000000" font-family="sans-serif" font-size="11" font-style="italic" lengthAdjust="spacingAndGlyphs" textLength="92" x="380.056" y="78.6792">(PartyRoleCode)</text></a><!--class CorporateActionPartyRole--><a target="_top" xlink:actuate="onRequest" xlink:href="../CorporateActionPartyRole.html" xlink:show="new" xlink:title="Role played by a party in the context of a corporate action." xlink:type="simple"><rect fill="#FEFECE" filter="url(#f3puvnn2760ro)" height="23.9688" id="CorporateActionPartyRole" style="stroke: #A80036; stroke-width: 1.5;" width="167" x="307.056" y="166"/><rect fill="#FEFECE" height="23.9688" style="stroke: #A80036; stroke-width: 1.5;" width="167" x="307.056" y="166"/><text fill="#000000" font-family="sans-serif" font-size="12" lengthAdjust="spacingAndGlyphs" textLength="161" x="310.056" y="182.1387">CorporateActionPartyRole</text></a><!--class MeetingPartyRole--><a target="_top" xlink:actuate="onRequest" xlink:href="../MeetingPartyRole.html" xlink:show="new" xlink:title="Role played by a party in the context of a meeting." xlink:type="simple"><rect fill="#FEFEEE" filter="url(#f3puvnn2760ro)" height="23.9688" id="MeetingPartyRole" style="stroke: #A80036; stroke-width: 1.5;" width="115" x="183.056" y="272"/><rect fill="#FEFEEE" height="23.9688" style="stroke: #A80036; stroke-width: 1.5;" width="115" x="183.056" y="272"/><text fill="#000000" font-family="sans-serif" font-size="12" lengthAdjust="spacingAndGlyphs" textLength="109" x="186.056" y="288.1387">MeetingPartyRole</text></a><!--class CorporateActionAgent--><a target="_top" xlink:actuate="onRequest" xlink:href="../CorporateActionAgent.html" xlink:show="new" xlink:title="A firm authorised to act as an intermediary between issuer and shareholders. It takes care of the needs of the shareholders such as reporting, inquiries and regulatory compliance." xlink:type="simple"><rect fill="#FEFEEE" filter="url(#f3puvnn2760ro)" height="23.9688" id="CorporateActionAgent" style="stroke: #A80036; stroke-width: 1.5;" width="145" x="333.056" y="272"/><rect fill="#FEFEEE" height="23.9688" style="stroke: #A80036; stroke-width: 1.5;" width="145" x="333.056" y="272"/><text fill="#000000" font-family="sans-serif" font-size="12" lengthAdjust="spacingAndGlyphs" textLength="139" x="336.056" y="288.1387">CorporateActionAgent</text></a><!--class RolePlayer--><a target="_top" xlink:actuate="onRequest" xlink:href="../RolePlayer.html" xlink:show="new" xlink:title="Type of entity that plays a specific role in a specific context." xlink:type="simple"><rect fill="#EEEEEE" filter="url(#f3puvnn2760ro)" height="23.9688" id="RolePlayer" style="stroke: #A80036; stroke-width: 1.5;" width="71" x="821.056" y="448"/><rect fill="#EEEEEE" height="23.9688" style="stroke: #A80036; stroke-width: 1.5;" width="71" x="821.056" y="448"/><text fill="#000000" font-family="sans-serif" font-size="12" lengthAdjust="spacingAndGlyphs" textLength="65" x="824.056" y="464.1387">RolePlayer</text></a><!--class ContactPersonRole--><a target="_top" xlink:actuate="onRequest" xlink:href="../ContactPersonRole.html" xlink:show="new" xlink:title="Person to be contacted in a given organisation. In the corporate action domain (including meeting notifications) , it is the contact person at the party organising the meeting, at the issuer or at an intermediary." xlink:type="simple"><rect fill="#EEEEEE" filter="url(#f3puvnn2760ro)" height="23.9688" id="ContactPersonRole" style="stroke: #A80036; stroke-width: 1.5;" width="126" x="773.306" y="360"/><rect fill="#EEEEEE" height="23.9688" style="stroke: #A80036; stroke-width: 1.5;" width="126" x="773.306" y="360"/><text fill="#000000" font-family="sans-serif" font-size="12" lengthAdjust="spacingAndGlyphs" textLength="120" x="776.306" y="376.1387">ContactPersonRole</text></a><!--class CounterpartyRisk--><a target="_top" xlink:actuate="onRequest" xlink:href="../CounterpartyRisk.html" xlink:show="new" xlink:title="Calculation of the exposure amount that one party has vis-a-vis one counterparty or a central system, based on its credit risk." xlink:type="simple"><rect fill="#EEEEEE" filter="url(#f3puvnn2760ro)" height="23.9688" id="CounterpartyRisk" style="stroke: #A80036; stroke-width: 1.5;" width="113" x="780.056" y="272"/><rect fill="#EEEEEE" height="23.9688" style="stroke: #A80036; stroke-width: 1.5;" width="113" x="780.056" y="272"/><text fill="#000000" font-family="sans-serif" font-size="12" lengthAdjust="spacingAndGlyphs" textLength="107" x="783.056" y="288.1387">CounterpartyRisk</text></a><!--class Entry--><a target="_top" xlink:actuate="onRequest" xlink:href="../Entry.html" xlink:show="new" xlink:title="Posting to an account that results in an increase or decrease to a balance." xlink:type="simple"><rect fill="#EEEEEE" filter="url(#f3puvnn2760ro)" height="23.9688" id="Entry" style="stroke: #A80036; stroke-width: 1.5;" width="38" x="773.306" y="166"/><rect fill="#EEEEEE" height="23.9688" style="stroke: #A80036; stroke-width: 1.5;" width="38" x="773.306" y="166"/><text fill="#000000" font-family="sans-serif" font-size="12" lengthAdjust="spacingAndGlyphs" textLength="32" x="776.306" y="182.1387">Entry</text></a><!--class CorporateActionEvent--><a target="_top" xlink:actuate="onRequest" xlink:href="../CorporateActionEvent.html" xlink:show="new" xlink:title="An event determined by a corporation's board of directors, that changes the existing corporate capital structure or financial condition." xlink:type="simple"><rect fill="#EEEEEE" filter="url(#f3puvnn2760ro)" height="23.9688" id="CorporateActionEvent" style="stroke: #A80036; stroke-width: 1.5;" width="143" x="535.056" y="360"/><rect fill="#EEEEEE" height="23.9688" style="stroke: #A80036; stroke-width: 1.5;" width="143" x="535.056" y="360"/><text fill="#000000" font-family="sans-serif" font-size="12" lengthAdjust="spacingAndGlyphs" textLength="137" x="538.056" y="376.1387">CorporateActionEvent</text></a><!--class Account--><a target="_top" xlink:actuate="onRequest" xlink:href="../Account.html" xlink:show="new" xlink:title="Record of transactions in specific types of assets, maintained by a servicing party on behalf of one or more owning parties. Business relationship between an account servicer and one or more account owners." xlink:type="simple"><rect fill="#EEEEEE" filter="url(#f3puvnn2760ro)" height="23.9688" id="Account" style="stroke: #A80036; stroke-width: 1.5;" width="57" x="535.056" y="272"/><rect fill="#EEEEEE" height="23.9688" style="stroke: #A80036; stroke-width: 1.5;" width="57" x="535.056" y="272"/><text fill="#000000" font-family="sans-serif" font-size="12" lengthAdjust="spacingAndGlyphs" textLength="51" x="538.056" y="288.1387">Account</text></a><!--link Role to CorporateActionPartyRole--><path d="M390.306,105.559 C390.306,127.159 390.306,151.898 390.306,165.865 " fill="none" id="Role-CorporateActionPartyRole" style="stroke: #A80036; stroke-width: 1.0;"/><polygon fill="none" points="383.306,105.52,390.306,85.52,397.306,105.52,383.306,105.52" style="stroke: #A80036; stroke-width: 1.0;"/><!--link CorporateActionPartyRole to MeetingPartyRole--><path d="M357.78,201.551 C326.429,223.288 280.307,255.266 256.244,271.95 " fill="none" id="CorporateActionPartyRole-MeetingPartyRole" style="stroke: #A80036; stroke-width: 1.0;"/><polygon fill="none" points="353.829,195.773,374.254,190.13,361.806,207.278,353.829,195.773" style="stroke: #A80036; stroke-width: 1.0;"/><!--link CorporateActionPartyRole to CorporateActionAgent--><path d="M394.809,210.217 C397.823,231.114 401.61,257.371 403.713,271.95 " fill="none" id="CorporateActionPartyRole-CorporateActionAgent" style="stroke: #A80036; stroke-width: 1.0;"/><polygon fill="none" points="387.838,210.924,391.912,190.13,401.695,208.926,387.838,210.924" style="stroke: #A80036; stroke-width: 1.0;"/><!--link ContactPersonRole to RolePlayer--><!--link CounterpartyRisk to ContactPersonRole--><!--link Entry to CounterpartyRisk--><!--link Account to CorporateActionEvent--><!--link Role to RolePlayer--><path d="M477.77,67.271 C685.89,76.218 1193.31,105.376 1193.31,177 C1193.31,177 1193.31,177 1193.31,373 C1193.31,433.5347 986.576,452.0008 896.949,457.1621 " fill="none" id="Role-RolePlayer" style="stroke: #A80036; stroke-width: 1.0;"/><polygon fill="#A80036" points="891.734,457.455,900.9449,460.9421,896.7261,457.1736,900.4946,452.9548,891.734,457.455" style="stroke: #A80036; stroke-width: 1.0;"/><text fill="#000000" font-family="sans-serif" font-size="13" lengthAdjust="spacingAndGlyphs" textLength="39" x="1194.31" y="288.0669">Player</text><text fill="#000000" font-family="sans-serif" font-size="13" lengthAdjust="spacingAndGlyphs" textLength="7" x="900.1948" y="451.1237">*</text><!--link Role to ContactPersonRole--><path d="M477.812,69.37 C631.702,79.736 937.51,104.809 968.306,142 C1008.97,191.106 942.765,279.75 909.306,320 C896.499,335.407 877.951,348.285 862.757,357.246 " fill="none" id="Role-ContactPersonRole" style="stroke: #A80036; stroke-width: 1.0;"/><polygon fill="#A80036" points="858.159,359.899,867.9536,358.8668,862.4901,357.4006,863.9562,351.9371,858.159,359.899" style="stroke: #A80036; stroke-width: 1.0;"/><text fill="#000000" font-family="sans-serif" font-size="13" lengthAdjust="spacingAndGlyphs" textLength="121" x="974.306" y="233.0669">ContactPersonRole</text><text fill="#000000" font-family="sans-serif" font-size="13" lengthAdjust="spacingAndGlyphs" textLength="8" x="854.9522" y="348.9125">1</text><!--link Role to CounterpartyRisk--><path d="M477.715,67.134 C592.03,73.236 783.104,90.981 828.306,142 C859.226,176.898 848.624,237.753 841.126,266.745 " fill="none" id="Role-CounterpartyRisk" style="stroke: #A80036; stroke-width: 1.0;"/><polygon fill="#A80036" points="839.773,271.774,845.9731,264.1216,841.0715,266.9456,838.2476,262.044,839.773,271.774" style="stroke: #A80036; stroke-width: 1.0;"/><text fill="#000000" font-family="sans-serif" font-size="13" lengthAdjust="spacingAndGlyphs" textLength="109" x="849.306" y="182.0669">CounterpartyRisk</text><text fill="#000000" font-family="sans-serif" font-size="13" lengthAdjust="spacingAndGlyphs" textLength="24" x="811.5324" y="261.0026">0..1</text><!--link Role to Entry--><path d="M466.866,85.52 C559.299,111.503 709.617,153.756 768.022,170.174 " fill="none" id="Role-Entry" style="stroke: #A80036; stroke-width: 1.0;"/><polygon fill="#A80036" points="773.055,171.588,765.4732,165.3018,768.2415,170.235,763.3084,173.0033,773.055,171.588" style="stroke: #A80036; stroke-width: 1.0;"/><text fill="#000000" font-family="sans-serif" font-size="13" lengthAdjust="spacingAndGlyphs" textLength="33" x="640.306" y="129.0669">Entry</text><text fill="#000000" font-family="sans-serif" font-size="13" lengthAdjust="spacingAndGlyphs" textLength="8" x="757.2344" y="163.484">1</text><!--link CorporateActionPartyRole to CorporateActionEvent--><path d="M306.875,182.179 C209.678,187.841 57.8254,203.43 22.3064,246 C1.2359,271.253 0.085,295.754 22.3064,320 C55.9244,356.682 378.963,367.082 529.633,369.948 " fill="none" id="CorporateActionPartyRole-CorporateActionEvent" style="stroke: #A80036; stroke-width: 1.0;"/><polygon fill="#A80036" points="534.919,370.047,525.9948,365.8805,529.9199,369.9541,525.8463,373.8791,534.919,370.047" style="stroke: #A80036; stroke-width: 1.0;"/><text fill="#000000" font-family="sans-serif" font-size="13" lengthAdjust="spacingAndGlyphs" textLength="140" x="23.3064" y="288.0669">CorporateActionEvent</text><text fill="#000000" font-family="sans-serif" font-size="13" lengthAdjust="spacingAndGlyphs" textLength="7" x="520.138" y="365.1902">*</text><!--link CorporateActionPartyRole to Account--><path d="M408.82,190.13 C440.687,209.287 505.81,248.436 540.45,269.26 " fill="none" id="CorporateActionPartyRole-Account" style="stroke: #A80036; stroke-width: 1.0;"/><polygon fill="#A80036" points="544.925,271.95,539.2734,263.884,540.6401,269.3733,535.1508,270.7399,544.925,271.95" style="stroke: #A80036; stroke-width: 1.0;"/><text fill="#000000" font-family="sans-serif" font-size="13" lengthAdjust="spacingAndGlyphs" textLength="52" x="488.306" y="233.0669">Account</text><text fill="#000000" font-family="sans-serif" font-size="13" lengthAdjust="spacingAndGlyphs" textLength="7" x="528.9737" y="260.981">*</text><!--link Entry to Account--><path d="M773.176,187.688 C733.06,205.907 639.928,248.202 592.376,269.798 " fill="none" id="Entry-Account" style="stroke: #A80036; stroke-width: 1.0;"/><polygon fill="#A80036" points="587.642,271.948,597.4905,271.8694,592.1947,269.8809,594.1832,264.5851,587.642,271.948" style="stroke: #A80036; stroke-width: 1.0;"/><text fill="#000000" font-family="sans-serif" font-size="13" lengthAdjust="spacingAndGlyphs" textLength="52" x="700.306" y="233.0669">Account</text><text fill="#000000" font-family="sans-serif" font-size="13" lengthAdjust="spacingAndGlyphs" textLength="7" x="586.3747" y="260.9783">*</text><!--link Account to Account--><path d="M591.814,276.332 C609.487,274.483 626.306,277.039 626.306,284 C626.306,290.254 612.73,292.952 597.156,292.095 " fill="none" id="Account-Account" style="stroke: #A80036; stroke-width: 1.0;"/><polygon fill="#A80036" points="591.814,291.668,600.4665,296.3727,596.7981,292.0666,601.1042,288.3981,591.814,291.668" style="stroke: #A80036; stroke-width: 1.0;"/><text fill="#000000" font-family="sans-serif" font-size="13" lengthAdjust="spacingAndGlyphs" textLength="94" x="632.306" y="288.0669">ParentAccount</text><text fill="#000000" font-family="sans-serif" font-size="13" lengthAdjust="spacingAndGlyphs" textLength="8" x="600.0801" y="287.5427">1</text></g></svg>