<?xml version="1.0" encoding="UTF-8" standalone="no"?><svg xmlns="http://www.w3.org/2000/svg" xmlns:xlink="http://www.w3.org/1999/xlink" contentScriptType="application/ecmascript" contentStyleType="text/css" height="632px" preserveAspectRatio="none" style="width:2204px;height:632px;" version="1.1" viewBox="0 0 2204 632" width="2204px" zoomAndPan="magnify"><defs><filter height="300%" id="ffvetuioqd5hx" width="300%" x="-1" y="-1"><feGaussianBlur result="blurOut" stdDeviation="2.0"/><feColorMatrix in="blurOut" result="blurOut2" type="matrix" values="0 0 0 0 0 0 0 0 0 0 0 0 0 0 0 0 0 0 .4 0"/><feOffset dx="4.0" dy="4.0" in="blurOut2" result="blurOut3"/><feBlend in="SourceGraphic" in2="blurOut3" mode="normal"/></filter></defs><g><!--cluster ##18043--><!--cluster ##18082--><!--cluster ##18091--><!--cluster ##18094--><!--class Role--><a target="_top" xlink:actuate="onRequest" xlink:href="../Role.html" xlink:show="new" xlink:title="Role of a party in an activity." xlink:type="simple"><rect fill="#FEFEEE" filter="url(#ffvetuioqd5hx)" height="44.7734" id="Role" style="stroke: #A80036; stroke-width: 1.5;" width="175" x="1141.75" y="40.5"/><rect fill="#FEFEEE" height="23.9688" style="stroke: #A80036; stroke-width: 1.5;" width="175" x="1141.75" y="40.5"/><text fill="#000000" font-family="sans-serif" font-size="12" lengthAdjust="spacingAndGlyphs" textLength="27" x="1215.75" y="56.6387">Role</text><line style="stroke: #A80036; stroke-width: 1.5;" x1="1142.75" x2="1315.75" y1="64.4688" y2="64.4688"/><ellipse cx="1152.75" cy="76.3711" fill="#84BE84" rx="3" ry="3" style="stroke: #038048; stroke-width: 1.0;"/><text fill="#000000" font-family="sans-serif" font-size="11" lengthAdjust="spacingAndGlyphs" textLength="53" x="1161.75" y="78.6792">PartyRole</text><text fill="#000000" font-family="sans-serif" font-size="11" font-style="italic" lengthAdjust="spacingAndGlyphs" textLength="92" x="1218.75" y="78.6792">(PartyRoleCode)</text></a><!--class AccountPartyRole--><a target="_top" xlink:actuate="onRequest" xlink:href="../AccountPartyRole.html" xlink:show="new" xlink:title="Role played by a party in the context of account operations." xlink:type="simple"><rect fill="#FEFEEE" filter="url(#ffvetuioqd5hx)" height="23.9688" id="AccountPartyRole" style="stroke: #A80036; stroke-width: 1.5;" width="116" x="1171.5" y="166"/><rect fill="#FEFEEE" height="23.9688" style="stroke: #A80036; stroke-width: 1.5;" width="116" x="1171.5" y="166"/><text fill="#000000" font-family="sans-serif" font-size="12" lengthAdjust="spacingAndGlyphs" textLength="110" x="1174.5" y="182.1387">AccountPartyRole</text></a><!--class InvestmentAccountPartyRole--><a target="_top" xlink:actuate="onRequest" xlink:href="../InvestmentAccountPartyRole.html" xlink:show="new" xlink:title="Specifies roles played by a party that are related to an investment account." xlink:type="simple"><rect fill="#FEFECE" filter="url(#ffvetuioqd5hx)" height="57.5781" id="InvestmentAccountPartyRole" style="stroke: #A80036; stroke-width: 1.5;" width="277" x="774.75" y="268"/><rect fill="#FEFECE" height="23.9688" style="stroke: #A80036; stroke-width: 1.5;" width="277" x="774.75" y="268"/><text fill="#000000" font-family="sans-serif" font-size="12" lengthAdjust="spacingAndGlyphs" textLength="179" x="823.75" y="284.1387">InvestmentAccountPartyRole</text><line style="stroke: #A80036; stroke-width: 1.5;" x1="775.75" x2="1050.75" y1="291.9688" y2="291.9688"/><ellipse cx="785.75" cy="303.8711" fill="#84BE84" rx="3" ry="3" style="stroke: #038048; stroke-width: 1.0;"/><text fill="#000000" font-family="sans-serif" font-size="11" lengthAdjust="spacingAndGlyphs" textLength="149" x="794.75" y="306.1792">OwnershipBeneficiaryRate</text><text fill="#000000" font-family="sans-serif" font-size="11" font-style="italic" lengthAdjust="spacingAndGlyphs" textLength="98" x="947.75" y="306.1792">(PercentageRate)</text><ellipse cx="785.75" cy="316.6758" fill="#84BE84" rx="3" ry="3" style="stroke: #038048; stroke-width: 1.0;"/><text fill="#000000" font-family="sans-serif" font-size="11" lengthAdjust="spacingAndGlyphs" textLength="91" x="794.75" y="318.9839">FATCAFormType</text><text fill="#000000" font-family="sans-serif" font-size="11" font-style="italic" lengthAdjust="spacingAndGlyphs" textLength="131" x="889.75" y="318.9839">(FATCAFormTypeCode)</text></a><!--class PrimaryOwner--><a target="_top" xlink:actuate="onRequest" xlink:href="../PrimaryOwner.html" xlink:show="new" xlink:title="Single owner of the investment account or, when the ownership is split among several owners, the primary owner is the one giving its address and account details for the registration." xlink:type="simple"><rect fill="#FEFEEE" filter="url(#ffvetuioqd5hx)" height="23.9688" id="PrimaryOwner" style="stroke: #A80036; stroke-width: 1.5;" width="91" x="38.75" y="406"/><rect fill="#FEFEEE" height="23.9688" style="stroke: #A80036; stroke-width: 1.5;" width="91" x="38.75" y="406"/><text fill="#000000" font-family="sans-serif" font-size="12" lengthAdjust="spacingAndGlyphs" textLength="85" x="41.75" y="422.1387">PrimaryOwner</text></a><!--class TrusteeRole--><a target="_top" xlink:actuate="onRequest" xlink:href="../TrusteeRole.html" xlink:show="new" xlink:title="Legal owner of the property. However, the beneficiary has the equitable or beneficial ownership. The trustee must ensure all terms and conditions of the security are adhered to." xlink:type="simple"><rect fill="#FEFEEE" filter="url(#ffvetuioqd5hx)" height="23.9688" id="TrusteeRole" style="stroke: #A80036; stroke-width: 1.5;" width="81" x="164.75" y="406"/><rect fill="#FEFEEE" height="23.9688" style="stroke: #A80036; stroke-width: 1.5;" width="81" x="164.75" y="406"/><text fill="#000000" font-family="sans-serif" font-size="12" lengthAdjust="spacingAndGlyphs" textLength="75" x="167.75" y="422.1387">TrusteeRole</text></a><!--class CustodianForMinor--><a target="_top" xlink:actuate="onRequest" xlink:href="../CustodianForMinor.html" xlink:show="new" xlink:title="Entity that holds shares/units on behalf of a legal minor. Although the account is registered under the name of the minor, the custodian retains control of the account." xlink:type="simple"><rect fill="#FEFEEE" filter="url(#ffvetuioqd5hx)" height="23.9688" id="CustodianForMinor" style="stroke: #A80036; stroke-width: 1.5;" width="123" x="280.75" y="406"/><rect fill="#FEFEEE" height="23.9688" style="stroke: #A80036; stroke-width: 1.5;" width="123" x="280.75" y="406"/><text fill="#000000" font-family="sans-serif" font-size="12" lengthAdjust="spacingAndGlyphs" textLength="117" x="283.75" y="422.1387">CustodianForMinor</text></a><!--class Nominee--><a target="_top" xlink:actuate="onRequest" xlink:href="../Nominee.html" xlink:show="new" xlink:title="Entity (the registered owner) named by the beneficial owner to act on its behalf, often to facilitate dealing, or to conceal the identity of the beneficiary. Securities and other assets are recorded in the nominee's name." xlink:type="simple"><rect fill="#FEFEEE" filter="url(#ffvetuioqd5hx)" height="23.9688" id="Nominee" style="stroke: #A80036; stroke-width: 1.5;" width="61" x="438.75" y="406"/><rect fill="#FEFEEE" height="23.9688" style="stroke: #A80036; stroke-width: 1.5;" width="61" x="438.75" y="406"/><text fill="#000000" font-family="sans-serif" font-size="12" lengthAdjust="spacingAndGlyphs" textLength="55" x="441.75" y="422.1387">Nominee</text></a><!--class JointOwner--><a target="_top" xlink:actuate="onRequest" xlink:href="../JointOwner.html" xlink:show="new" xlink:title="Co-owner of an investment account when the ownership is assigned to more than one party." xlink:type="simple"><rect fill="#FEFEEE" filter="url(#ffvetuioqd5hx)" height="23.9688" id="JointOwner" style="stroke: #A80036; stroke-width: 1.5;" width="72" x="535" y="406"/><rect fill="#FEFEEE" height="23.9688" style="stroke: #A80036; stroke-width: 1.5;" width="72" x="535" y="406"/><text fill="#000000" font-family="sans-serif" font-size="12" lengthAdjust="spacingAndGlyphs" textLength="66" x="538" y="422.1387">JointOwner</text></a><!--class SecondaryOwner--><a target="_top" xlink:actuate="onRequest" xlink:href="../SecondaryOwner.html" xlink:show="new" xlink:title="Entity that is not the primary owner when the ownership of the investment account is split among several owners." xlink:type="simple"><rect fill="#FEFEEE" filter="url(#ffvetuioqd5hx)" height="23.9688" id="SecondaryOwner" style="stroke: #A80036; stroke-width: 1.5;" width="111" x="642.75" y="406"/><rect fill="#FEFEEE" height="23.9688" style="stroke: #A80036; stroke-width: 1.5;" width="111" x="642.75" y="406"/><text fill="#000000" font-family="sans-serif" font-size="12" lengthAdjust="spacingAndGlyphs" textLength="105" x="645.75" y="422.1387">SecondaryOwner</text></a><!--class LegalGuardianRole--><a target="_top" xlink:actuate="onRequest" xlink:href="../LegalGuardianRole.html" xlink:show="new" xlink:title="Entity that has been appointed by a legal authority to act on behalf of a person judged to be incapacitated." xlink:type="simple"><rect fill="#FEFEEE" filter="url(#ffvetuioqd5hx)" height="23.9688" id="LegalGuardianRole" style="stroke: #A80036; stroke-width: 1.5;" width="123" x="788.75" y="406"/><rect fill="#FEFEEE" height="23.9688" style="stroke: #A80036; stroke-width: 1.5;" width="123" x="788.75" y="406"/><text fill="#000000" font-family="sans-serif" font-size="12" lengthAdjust="spacingAndGlyphs" textLength="117" x="791.75" y="422.1387">LegalGuardianRole</text></a><!--class SuccessorOnDeath--><a target="_top" xlink:actuate="onRequest" xlink:href="../SuccessorOnDeath.html" xlink:show="new" xlink:title="Deceased's estate, or successor, to whom the respective percentage of ownership will be transferred upon the death of one of the owners." xlink:type="simple"><rect fill="#FEFEEE" filter="url(#ffvetuioqd5hx)" height="23.9688" id="SuccessorOnDeath" style="stroke: #A80036; stroke-width: 1.5;" width="126" x="947" y="406"/><rect fill="#FEFEEE" height="23.9688" style="stroke: #A80036; stroke-width: 1.5;" width="126" x="947" y="406"/><text fill="#000000" font-family="sans-serif" font-size="12" lengthAdjust="spacingAndGlyphs" textLength="120" x="950" y="422.1387">SuccessorOnDeath</text></a><!--class AdministratorRole--><a target="_top" xlink:actuate="onRequest" xlink:href="../AdministratorRole.html" xlink:show="new" xlink:title="Entity that has been appointed by a legal authority to act on behalf of a person or organisation that has gone bankrupt." xlink:type="simple"><rect fill="#FEFEEE" filter="url(#ffvetuioqd5hx)" height="23.9688" id="AdministratorRole" style="stroke: #A80036; stroke-width: 1.5;" width="117" x="1108.75" y="406"/><rect fill="#FEFEEE" height="23.9688" style="stroke: #A80036; stroke-width: 1.5;" width="117" x="1108.75" y="406"/><text fill="#000000" font-family="sans-serif" font-size="12" lengthAdjust="spacingAndGlyphs" textLength="111" x="1111.75" y="422.1387">AdministratorRole</text></a><!--class Investor--><a target="_top" xlink:actuate="onRequest" xlink:href="../Investor.html" xlink:show="new" xlink:title="Party which makes investment decisions in relation with its investment account." xlink:type="simple"><rect fill="#FEFEEE" filter="url(#ffvetuioqd5hx)" height="23.9688" id="Investor" style="stroke: #A80036; stroke-width: 1.5;" width="56" x="1261.5" y="406"/><rect fill="#FEFEEE" height="23.9688" style="stroke: #A80036; stroke-width: 1.5;" width="56" x="1261.5" y="406"/><text fill="#000000" font-family="sans-serif" font-size="12" lengthAdjust="spacingAndGlyphs" textLength="50" x="1264.5" y="422.1387">Investor</text></a><!--class RolePlayer--><a target="_top" xlink:actuate="onRequest" xlink:href="../RolePlayer.html" xlink:show="new" xlink:title="Type of entity that plays a specific role in a specific context." xlink:type="simple"><rect fill="#EEEEEE" filter="url(#ffvetuioqd5hx)" height="23.9688" id="RolePlayer" style="stroke: #A80036; stroke-width: 1.5;" width="71" x="1779.75" y="510"/><rect fill="#EEEEEE" height="23.9688" style="stroke: #A80036; stroke-width: 1.5;" width="71" x="1779.75" y="510"/><text fill="#000000" font-family="sans-serif" font-size="12" lengthAdjust="spacingAndGlyphs" textLength="65" x="1782.75" y="526.1387">RolePlayer</text></a><!--class ContactPersonRole--><a target="_top" xlink:actuate="onRequest" xlink:href="../ContactPersonRole.html" xlink:show="new" xlink:title="Person to be contacted in a given organisation. In the corporate action domain (including meeting notifications) , it is the contact person at the party organising the meeting, at the issuer or at an intermediary." xlink:type="simple"><rect fill="#EEEEEE" filter="url(#ffvetuioqd5hx)" height="23.9688" id="ContactPersonRole" style="stroke: #A80036; stroke-width: 1.5;" width="126" x="1732" y="406"/><rect fill="#EEEEEE" height="23.9688" style="stroke: #A80036; stroke-width: 1.5;" width="126" x="1732" y="406"/><text fill="#000000" font-family="sans-serif" font-size="12" lengthAdjust="spacingAndGlyphs" textLength="120" x="1735" y="422.1387">ContactPersonRole</text></a><!--class CounterpartyRisk--><a target="_top" xlink:actuate="onRequest" xlink:href="../CounterpartyRisk.html" xlink:show="new" xlink:title="Calculation of the exposure amount that one party has vis-a-vis one counterparty or a central system, based on its credit risk." xlink:type="simple"><rect fill="#EEEEEE" filter="url(#ffvetuioqd5hx)" height="23.9688" id="CounterpartyRisk" style="stroke: #A80036; stroke-width: 1.5;" width="113" x="1738.75" y="285"/><rect fill="#EEEEEE" height="23.9688" style="stroke: #A80036; stroke-width: 1.5;" width="113" x="1738.75" y="285"/><text fill="#000000" font-family="sans-serif" font-size="12" lengthAdjust="spacingAndGlyphs" textLength="107" x="1741.75" y="301.1387">CounterpartyRisk</text></a><!--class Entry--><a target="_top" xlink:actuate="onRequest" xlink:href="../Entry.html" xlink:show="new" xlink:title="Posting to an account that results in an increase or decrease to a balance." xlink:type="simple"><rect fill="#EEEEEE" filter="url(#ffvetuioqd5hx)" height="23.9688" id="Entry" style="stroke: #A80036; stroke-width: 1.5;" width="38" x="1732" y="166"/><rect fill="#EEEEEE" height="23.9688" style="stroke: #A80036; stroke-width: 1.5;" width="38" x="1732" y="166"/><text fill="#000000" font-family="sans-serif" font-size="12" lengthAdjust="spacingAndGlyphs" textLength="32" x="1735" y="182.1387">Entry</text></a><!--class Account--><a target="_top" xlink:actuate="onRequest" xlink:href="../Account.html" xlink:show="new" xlink:title="Record of transactions in specific types of assets, maintained by a servicing party on behalf of one or more owning parties. Business relationship between an account servicer and one or more account owners." xlink:type="simple"><rect fill="#EEEEEE" filter="url(#ffvetuioqd5hx)" height="23.9688" id="Account" style="stroke: #A80036; stroke-width: 1.5;" width="57" x="1433.75" y="285"/><rect fill="#EEEEEE" height="23.9688" style="stroke: #A80036; stroke-width: 1.5;" width="57" x="1433.75" y="285"/><text fill="#000000" font-family="sans-serif" font-size="12" lengthAdjust="spacingAndGlyphs" textLength="51" x="1436.75" y="301.1387">Account</text></a><!--class InvestmentAccount--><a target="_top" xlink:actuate="onRequest" xlink:href="../InvestmentAccount.html" xlink:show="new" xlink:title="Account between an investor(s) and a fund manager or a fund. The account can contain holdings in any investment fund or investment fund class managed (or distributed) by the fund manager, within the same fund family." xlink:type="simple"><rect fill="#EEEEEE" filter="url(#ffvetuioqd5hx)" height="23.9688" id="InvestmentAccount" style="stroke: #A80036; stroke-width: 1.5;" width="126" x="1373" y="598"/><rect fill="#EEEEEE" height="23.9688" style="stroke: #A80036; stroke-width: 1.5;" width="126" x="1373" y="598"/><text fill="#000000" font-family="sans-serif" font-size="12" lengthAdjust="spacingAndGlyphs" textLength="120" x="1376" y="614.1387">InvestmentAccount</text></a><!--class FATCAStatus--><a target="_top" xlink:actuate="onRequest" xlink:href="../FATCAStatus.html" xlink:show="new" xlink:title="Foreign Account Tax Compliance Act (FATCA) status and the status source of the investor." xlink:type="simple"><rect fill="#EEEEEE" filter="url(#ffvetuioqd5hx)" height="23.9688" id="FATCAStatus" style="stroke: #A80036; stroke-width: 1.5;" width="85" x="1393.75" y="510"/><rect fill="#EEEEEE" height="23.9688" style="stroke: #A80036; stroke-width: 1.5;" width="85" x="1393.75" y="510"/><text fill="#000000" font-family="sans-serif" font-size="12" lengthAdjust="spacingAndGlyphs" textLength="79" x="1396.75" y="526.1387">FATCAStatus</text></a><!--class CRSStatus--><a target="_top" xlink:actuate="onRequest" xlink:href="../CRSStatus.html" xlink:show="new" xlink:title="Common Reporting Standard (CRS) status and the status source of the investor." xlink:type="simple"><rect fill="#EEEEEE" filter="url(#ffvetuioqd5hx)" height="23.9688" id="CRSStatus" style="stroke: #A80036; stroke-width: 1.5;" width="71" x="1373.75" y="406"/><rect fill="#EEEEEE" height="23.9688" style="stroke: #A80036; stroke-width: 1.5;" width="71" x="1373.75" y="406"/><text fill="#000000" font-family="sans-serif" font-size="12" lengthAdjust="spacingAndGlyphs" textLength="65" x="1376.75" y="422.1387">CRSStatus</text></a><!--link Role to AccountPartyRole--><path d="M1229,105.559 C1229,127.159 1229,151.898 1229,165.865 " fill="none" id="Role-AccountPartyRole" style="stroke: #A80036; stroke-width: 1.0;"/><polygon fill="none" points="1222,105.52,1229,85.52,1236,105.52,1222,105.52" style="stroke: #A80036; stroke-width: 1.0;"/><!--link AccountPartyRole to InvestmentAccountPartyRole--><path d="M1180.29,197.033 C1129.16,215.965 1048.09,245.983 988.626,267.999 " fill="none" id="AccountPartyRole-InvestmentAccountPartyRole" style="stroke: #A80036; stroke-width: 1.0;"/><polygon fill="none" points="1178.09,190.387,1199.27,190.007,1182.95,203.516,1178.09,190.387" style="stroke: #A80036; stroke-width: 1.0;"/><!--link InvestmentAccountPartyRole to PrimaryOwner--><path d="M754.439,308.039 C626.089,317.243 440.856,332.969 280,356 C220.378,364.537 203.577,361.343 147,382 C130.311,388.094 112.752,398.196 100.4239,405.985 " fill="none" id="InvestmentAccountPartyRole-PrimaryOwner" style="stroke: #A80036; stroke-width: 1.0;"/><polygon fill="none" points="754.093,301.046,774.537,306.618,755.081,315.011,754.093,301.046" style="stroke: #A80036; stroke-width: 1.0;"/><!--link InvestmentAccountPartyRole to TrusteeRole--><path d="M754.549,316.389 C662.387,327.334 544.041,341.817 439,356 C360.64,366.58 337.417,355.273 263,382 C247.283,387.645 231.156,397.796 219.911,405.718 " fill="none" id="InvestmentAccountPartyRole-TrusteeRole" style="stroke: #A80036; stroke-width: 1.0;"/><polygon fill="none" points="754.011,309.404,774.696,314.003,755.658,323.306,754.011,309.404" style="stroke: #A80036; stroke-width: 1.0;"/><!--link InvestmentAccountPartyRole to CustodianForMinor--><path d="M754.563,312.308 C656.583,324.257 529.282,345.442 421,382 C401.244,388.67 379.652,398.415 364.041,405.93 " fill="none" id="InvestmentAccountPartyRole-CustodianForMinor" style="stroke: #A80036; stroke-width: 1.0;"/><polygon fill="none" points="754.012,305.325,774.695,309.933,755.653,319.229,754.012,305.325" style="stroke: #A80036; stroke-width: 1.0;"/><!--link InvestmentAccountPartyRole to Nominee--><path d="M754.242,316.061 C679.902,328.396 591.522,348.763 517,382 C503.625,387.965 490.319,398.082 481.121,405.909 " fill="none" id="InvestmentAccountPartyRole-Nominee" style="stroke: #A80036; stroke-width: 1.0;"/><polygon fill="none" points="753.462,309.097,774.313,312.868,755.662,322.923,753.462,309.097" style="stroke: #A80036; stroke-width: 1.0;"/><!--link InvestmentAccountPartyRole to JointOwner--><path d="M768.146,331.376 C721.407,344.467 670.057,361.367 625,382 C610.779,388.512 595.963,398.369 585.455,405.965 " fill="none" id="InvestmentAccountPartyRole-JointOwner" style="stroke: #A80036; stroke-width: 1.0;"/><polygon fill="none" points="766.381,324.602,787.518,326.091,770.066,338.108,766.381,324.602" style="stroke: #A80036; stroke-width: 1.0;"/><!--link InvestmentAccountPartyRole to SecondaryOwner--><path d="M844.529,335.898 C800.62,360.201 746.659,390.068 718.043,405.906 " fill="none" id="InvestmentAccountPartyRole-SecondaryOwner" style="stroke: #A80036; stroke-width: 1.0;"/><polygon fill="none" points="841.432,329.611,862.32,326.051,848.212,341.86,841.432,329.611" style="stroke: #A80036; stroke-width: 1.0;"/><!--link InvestmentAccountPartyRole to LegalGuardianRole--><path d="M888.583,344.12 C876.704,366.56 863.406,391.677 855.935,405.79 " fill="none" id="InvestmentAccountPartyRole-LegalGuardianRole" style="stroke: #A80036; stroke-width: 1.0;"/><polygon fill="none" points="882.526,340.602,898.07,326.201,894.899,347.152,882.526,340.602" style="stroke: #A80036; stroke-width: 1.0;"/><!--link InvestmentAccountPartyRole to SuccessorOnDeath--><path d="M948.682,341.775 C967.441,364.788 988.956,391.183 1000.862,405.79 " fill="none" id="InvestmentAccountPartyRole-SuccessorOnDeath" style="stroke: #A80036; stroke-width: 1.0;"/><polygon fill="none" points="943.198,346.126,935.988,326.201,954.05,337.281,943.198,346.126" style="stroke: #A80036; stroke-width: 1.0;"/><!--link InvestmentAccountPartyRole to AdministratorRole--><path d="M991.13,334.604 C1043.48,359.132 1108.91,389.786 1143.32,405.906 " fill="none" id="InvestmentAccountPartyRole-AdministratorRole" style="stroke: #A80036; stroke-width: 1.0;"/><polygon fill="none" points="988.014,340.875,972.873,326.051,993.953,328.197,988.014,340.875" style="stroke: #A80036; stroke-width: 1.0;"/><!--link InvestmentAccountPartyRole to Investor--><path d="M1071.39,325.303 C1126.99,338.265 1188.81,356.631 1242,382 C1254.86,388.132 1267.71,398.024 1276.71,405.731 " fill="none" id="InvestmentAccountPartyRole-Investor" style="stroke: #A80036; stroke-width: 1.0;"/><polygon fill="none" points="1069.59,332.073,1051.62,320.855,1072.66,318.414,1069.59,332.073" style="stroke: #A80036; stroke-width: 1.0;"/><!--link ContactPersonRole to RolePlayer--><!--link CounterpartyRisk to ContactPersonRole--><!--link Entry to CounterpartyRisk--><!--link FATCAStatus to InvestmentAccount--><!--link CRSStatus to FATCAStatus--><!--link Role to RolePlayer--><path d="M1316.67,65.633 C1547.06,71.082 2152,93.354 2152,177 C2152,177 2152,177 2152,419 C2152,480.283 1945.27,508.14 1855.64,517.338 " fill="none" id="Role-RolePlayer" style="stroke: #A80036; stroke-width: 1.0;"/><polygon fill="#A80036" points="1850.43,517.866,1859.7849,520.9458,1855.4049,517.3659,1858.9848,512.9859,1850.43,517.866" style="stroke: #A80036; stroke-width: 1.0;"/><text fill="#000000" font-family="sans-serif" font-size="13" lengthAdjust="spacingAndGlyphs" textLength="39" x="2153" y="301.0669">Player</text><text fill="#000000" font-family="sans-serif" font-size="13" lengthAdjust="spacingAndGlyphs" textLength="7" x="1858.8913" y="511.1872">*</text><!--link Role to ContactPersonRole--><path d="M1316.48,67.111 C1495.39,74.406 1889.6,95.622 1928,142 C1999.39,228.214 1862.65,359.2 1812.45,402.526 " fill="none" id="Role-ContactPersonRole" style="stroke: #A80036; stroke-width: 1.0;"/><polygon fill="#A80036" points="1808.43,405.969,1817.866,403.1472,1812.2257,402.7143,1812.6585,397.0741,1808.43,405.969" style="stroke: #A80036; stroke-width: 1.0;"/><text fill="#000000" font-family="sans-serif" font-size="13" lengthAdjust="spacingAndGlyphs" textLength="121" x="1947" y="233.0669">ContactPersonRole</text><text fill="#000000" font-family="sans-serif" font-size="13" lengthAdjust="spacingAndGlyphs" textLength="8" x="1802.3278" y="395.0066">1</text><!--link Role to CounterpartyRisk--><path d="M1316.42,63.257 C1457.39,64.093 1725.37,74.759 1787,142 C1822.06,180.246 1808.62,248.835 1800.02,279.913 " fill="none" id="Role-CounterpartyRisk" style="stroke: #A80036; stroke-width: 1.0;"/><polygon fill="#A80036" points="1798.59,284.917,1804.911,277.3642,1799.9651,280.1098,1797.2195,275.164,1798.59,284.917" style="stroke: #A80036; stroke-width: 1.0;"/><text fill="#000000" font-family="sans-serif" font-size="13" lengthAdjust="spacingAndGlyphs" textLength="109" x="1809" y="182.0669">CounterpartyRisk</text><text fill="#000000" font-family="sans-serif" font-size="13" lengthAdjust="spacingAndGlyphs" textLength="24" x="1770.2694" y="273.9367">0..1</text><!--link Role to Entry--><path d="M1316.37,82.914 C1438.81,109.42 1654.56,156.124 1726.72,171.744 " fill="none" id="Role-Entry" style="stroke: #A80036; stroke-width: 1.0;"/><polygon fill="#A80036" points="1731.67,172.815,1723.7191,167.0026,1726.783,171.7579,1722.0278,174.8218,1731.67,172.815" style="stroke: #A80036; stroke-width: 1.0;"/><text fill="#000000" font-family="sans-serif" font-size="13" lengthAdjust="spacingAndGlyphs" textLength="33" x="1554" y="129.0669">Entry</text><text fill="#000000" font-family="sans-serif" font-size="13" lengthAdjust="spacingAndGlyphs" textLength="8" x="1716.1313" y="165.2261">1</text><!--link AccountPartyRole to Account--><path d="M1250.92,190.007 C1293.85,211.566 1388.88,259.283 1435.36,282.621 " fill="none" id="AccountPartyRole-Account" style="stroke: #A80036; stroke-width: 1.0;"/><polygon fill="#A80036" points="1439.97,284.937,1433.7401,277.3089,1435.507,282.6827,1430.1332,284.4496,1439.97,284.937" style="stroke: #A80036; stroke-width: 1.0;"/><text fill="#000000" font-family="sans-serif" font-size="13" lengthAdjust="spacingAndGlyphs" textLength="52" x="1347" y="233.0669">Account</text><text fill="#000000" font-family="sans-serif" font-size="13" lengthAdjust="spacingAndGlyphs" textLength="7" x="1422.7644" y="273.9636">*</text><!--link InvestmentAccountPartyRole to InvestmentAccount--><path d="M1051.42,305.518 C1234.02,316.96 1536.05,341.766 1567,382 C1624.09,456.217 1504.74,557.7998 1455.73,594.7931 " fill="none" id="InvestmentAccountPartyRole-InvestmentAccount" style="stroke: #A80036; stroke-width: 1.0;"/><polygon fill="#A80036" points="1451.49,597.9635,1461.096,595.7899,1455.4982,594.9745,1456.3136,589.3767,1451.49,597.9635" style="stroke: #A80036; stroke-width: 1.0;"/><text fill="#000000" font-family="sans-serif" font-size="13" lengthAdjust="spacingAndGlyphs" textLength="124" x="1576" y="475.0669">InvestmentAccount</text><text fill="#000000" font-family="sans-serif" font-size="13" lengthAdjust="spacingAndGlyphs" textLength="7" x="1447.2678" y="586.9992">*</text><!--link InvestmentAccountPartyRole to FATCAStatus--><path d="M1051.4,297.952 C1197.73,301.379 1413.85,317.586 1461,382 C1488.38,419.406 1461.68,477.375 1445.85,505.132 " fill="none" id="InvestmentAccountPartyRole-FATCAStatus" style="stroke: #A80036; stroke-width: 1.0;"/><polygon fill="#A80036" points="1443.22,509.636,1451.2119,503.8801,1445.7408,505.3179,1444.3029,499.8469,1443.22,509.636" style="stroke: #A80036; stroke-width: 1.0;"/><text fill="#000000" font-family="sans-serif" font-size="13" lengthAdjust="spacingAndGlyphs" textLength="83" x="1474" y="422.0669">FATCAStatus</text><text fill="#000000" font-family="sans-serif" font-size="13" lengthAdjust="spacingAndGlyphs" textLength="7" x="1436.0382" y="498.8189">*</text><!--link InvestmentAccountPartyRole to CRSStatus--><path d="M1051.37,316.974 C1134.34,330.484 1241.21,351.671 1333,382 C1350.35,387.732 1369,396.281 1383.48,403.495 " fill="none" id="InvestmentAccountPartyRole-CRSStatus" style="stroke: #A80036; stroke-width: 1.0;"/><polygon fill="#A80036" points="1388.22,405.884,1381.9726,398.2702,1383.7519,403.6399,1378.3821,405.4192,1388.22,405.884" style="stroke: #A80036; stroke-width: 1.0;"/><text fill="#000000" font-family="sans-serif" font-size="13" lengthAdjust="spacingAndGlyphs" textLength="68" x="1301" y="369.0669">CRSStatus</text><text fill="#000000" font-family="sans-serif" font-size="13" lengthAdjust="spacingAndGlyphs" textLength="8" x="1370.2722" y="394.8923">1</text><!--link Entry to Account--><path d="M1731.59,186.858 C1682.84,206.593 1554.87,258.403 1494.46,282.86 " fill="none" id="Entry-Account" style="stroke: #A80036; stroke-width: 1.0;"/><polygon fill="#A80036" points="1489.53,284.856,1499.3739,285.1689,1494.1613,282.9715,1496.3587,277.7589,1489.53,284.856" style="stroke: #A80036; stroke-width: 1.0;"/><text fill="#000000" font-family="sans-serif" font-size="13" lengthAdjust="spacingAndGlyphs" textLength="52" x="1651" y="233.0669">Account</text><text fill="#000000" font-family="sans-serif" font-size="13" lengthAdjust="spacingAndGlyphs" textLength="7" x="1489.3606" y="273.8547">*</text><!--link Account to Account--><path d="M1490.51,285.15 C1508.18,282.292 1525,286.242 1525,297 C1525,306.665 1511.42,310.835 1495.85,309.51 " fill="none" id="Account-Account" style="stroke: #A80036; stroke-width: 1.0;"/><polygon fill="#A80036" points="1490.51,308.85,1498.9647,313.9016,1495.4738,309.4503,1499.9251,305.9595,1490.51,308.85" style="stroke: #A80036; stroke-width: 1.0;"/><text fill="#000000" font-family="sans-serif" font-size="13" lengthAdjust="spacingAndGlyphs" textLength="94" x="1531" y="301.0669">ParentAccount</text><text fill="#000000" font-family="sans-serif" font-size="13" lengthAdjust="spacingAndGlyphs" textLength="8" x="1491.1048" y="328.9326">1</text></g></svg>