<?xml version="1.0" encoding="UTF-8" standalone="no"?><svg xmlns="http://www.w3.org/2000/svg" xmlns:xlink="http://www.w3.org/1999/xlink" contentScriptType="application/ecmascript" contentStyleType="text/css" height="484px" preserveAspectRatio="none" style="width:1221px;height:484px;" version="1.1" viewBox="0 0 1221 484" width="1221px" zoomAndPan="magnify"><defs><filter height="300%" id="f4zwskj38mo7r" width="300%" x="-1" y="-1"><feGaussianBlur result="blurOut" stdDeviation="2.0"/><feColorMatrix in="blurOut" result="blurOut2" type="matrix" values="0 0 0 0 0 0 0 0 0 0 0 0 0 0 0 0 0 0 .4 0"/><feOffset dx="4.0" dy="4.0" in="blurOut2" result="blurOut3"/><feBlend in="SourceGraphic" in2="blurOut3" mode="normal"/></filter></defs><g><!--cluster ##33527--><!--cluster ##33542--><!--cluster ##33551--><!--class Role--><a target="_top" xlink:actuate="onRequest" xlink:href="../Role.html" xlink:show="new" xlink:title="Role of a party in an activity." xlink:type="simple"><rect fill="#FEFEEE" filter="url(#f4zwskj38mo7r)" height="44.7734" id="Role" style="stroke: #A80036; stroke-width: 1.5;" width="175" x="138.75" y="40.5"/><rect fill="#FEFEEE" height="23.9688" style="stroke: #A80036; stroke-width: 1.5;" width="175" x="138.75" y="40.5"/><text fill="#000000" font-family="sans-serif" font-size="12" lengthAdjust="spacingAndGlyphs" textLength="27" x="212.75" y="56.6387">Role</text><line style="stroke: #A80036; stroke-width: 1.5;" x1="139.75" x2="312.75" y1="64.4688" y2="64.4688"/><ellipse cx="149.75" cy="76.3711" fill="#84BE84" rx="3" ry="3" style="stroke: #038048; stroke-width: 1.0;"/><text fill="#000000" font-family="sans-serif" font-size="11" lengthAdjust="spacingAndGlyphs" textLength="53" x="158.75" y="78.6792">PartyRole</text><text fill="#000000" font-family="sans-serif" font-size="11" font-style="italic" lengthAdjust="spacingAndGlyphs" textLength="92" x="215.75" y="78.6792">(PartyRoleCode)</text></a><!--class InvestmentFundPartyRole--><a target="_top" xlink:actuate="onRequest" xlink:href="../InvestmentFundPartyRole.html" xlink:show="new" xlink:title="Specifies roles played by a party that are linked to the handling of investment funds but not related to a specific process." xlink:type="simple"><rect fill="#FEFECE" filter="url(#f4zwskj38mo7r)" height="23.9688" id="InvestmentFundPartyRole" style="stroke: #A80036; stroke-width: 1.5;" width="165" x="146.75" y="166"/><rect fill="#FEFECE" height="23.9688" style="stroke: #A80036; stroke-width: 1.5;" width="165" x="146.75" y="166"/><text fill="#000000" font-family="sans-serif" font-size="12" lengthAdjust="spacingAndGlyphs" textLength="159" x="149.75" y="182.1387">InvestmentFundPartyRole</text></a><!--class Grantor--><a target="_top" xlink:actuate="onRequest" xlink:href="../Grantor.html" xlink:show="new" xlink:title="Grantor role in the hedge funds industry." xlink:type="simple"><rect fill="#FEFEEE" filter="url(#f4zwskj38mo7r)" height="23.9688" id="Grantor" style="stroke: #A80036; stroke-width: 1.5;" width="54" x="38" y="270"/><rect fill="#FEFEEE" height="23.9688" style="stroke: #A80036; stroke-width: 1.5;" width="54" x="38" y="270"/><text fill="#000000" font-family="sans-serif" font-size="12" lengthAdjust="spacingAndGlyphs" textLength="48" x="41" y="286.1387">Grantor</text></a><!--class Settlor--><a target="_top" xlink:actuate="onRequest" xlink:href="../Settlor.html" xlink:show="new" xlink:title="Entity that creates a trust or contributes assets to the trust." xlink:type="simple"><rect fill="#FEFEEE" filter="url(#f4zwskj38mo7r)" height="23.9688" id="Settlor" style="stroke: #A80036; stroke-width: 1.5;" width="48" x="127" y="270"/><rect fill="#FEFEEE" height="23.9688" style="stroke: #A80036; stroke-width: 1.5;" width="48" x="127" y="270"/><text fill="#000000" font-family="sans-serif" font-size="12" lengthAdjust="spacingAndGlyphs" textLength="42" x="130" y="286.1387">Settlor</text></a><!--class FundOrderDesk--><a target="_top" xlink:actuate="onRequest" xlink:href="../FundOrderDesk.html" xlink:show="new" xlink:title="Principal entity appointed by the fund to which orders should be submitted." xlink:type="simple"><rect fill="#FEFEEE" filter="url(#f4zwskj38mo7r)" height="23.9688" id="FundOrderDesk" style="stroke: #A80036; stroke-width: 1.5;" width="103" x="210.75" y="270"/><rect fill="#FEFEEE" height="23.9688" style="stroke: #A80036; stroke-width: 1.5;" width="103" x="210.75" y="270"/><text fill="#000000" font-family="sans-serif" font-size="12" lengthAdjust="spacingAndGlyphs" textLength="97" x="213.75" y="286.1387">FundOrderDesk</text></a><!--class RolePlayer--><a target="_top" xlink:actuate="onRequest" xlink:href="../RolePlayer.html" xlink:show="new" xlink:title="Type of entity that plays a specific role in a specific context." xlink:type="simple"><rect fill="#EEEEEE" filter="url(#f4zwskj38mo7r)" height="23.9688" id="RolePlayer" style="stroke: #A80036; stroke-width: 1.5;" width="71" x="796.75" y="450"/><rect fill="#EEEEEE" height="23.9688" style="stroke: #A80036; stroke-width: 1.5;" width="71" x="796.75" y="450"/><text fill="#000000" font-family="sans-serif" font-size="12" lengthAdjust="spacingAndGlyphs" textLength="65" x="799.75" y="466.1387">RolePlayer</text></a><!--class ContactPersonRole--><a target="_top" xlink:actuate="onRequest" xlink:href="../ContactPersonRole.html" xlink:show="new" xlink:title="Person to be contacted in a given organisation. In the corporate action domain (including meeting notifications) , it is the contact person at the party organising the meeting, at the issuer or at an intermediary." xlink:type="simple"><rect fill="#EEEEEE" filter="url(#f4zwskj38mo7r)" height="23.9688" id="ContactPersonRole" style="stroke: #A80036; stroke-width: 1.5;" width="126" x="749" y="360"/><rect fill="#EEEEEE" height="23.9688" style="stroke: #A80036; stroke-width: 1.5;" width="126" x="749" y="360"/><text fill="#000000" font-family="sans-serif" font-size="12" lengthAdjust="spacingAndGlyphs" textLength="120" x="752" y="376.1387">ContactPersonRole</text></a><!--class CounterpartyRisk--><a target="_top" xlink:actuate="onRequest" xlink:href="../CounterpartyRisk.html" xlink:show="new" xlink:title="Calculation of the exposure amount that one party has vis-a-vis one counterparty or a central system, based on its credit risk." xlink:type="simple"><rect fill="#EEEEEE" filter="url(#f4zwskj38mo7r)" height="23.9688" id="CounterpartyRisk" style="stroke: #A80036; stroke-width: 1.5;" width="113" x="761.75" y="270"/><rect fill="#EEEEEE" height="23.9688" style="stroke: #A80036; stroke-width: 1.5;" width="113" x="761.75" y="270"/><text fill="#000000" font-family="sans-serif" font-size="12" lengthAdjust="spacingAndGlyphs" textLength="107" x="764.75" y="286.1387">CounterpartyRisk</text></a><!--class Entry--><a target="_top" xlink:actuate="onRequest" xlink:href="../Entry.html" xlink:show="new" xlink:title="Posting to an account that results in an increase or decrease to a balance." xlink:type="simple"><rect fill="#EEEEEE" filter="url(#f4zwskj38mo7r)" height="23.9688" id="Entry" style="stroke: #A80036; stroke-width: 1.5;" width="38" x="749" y="166"/><rect fill="#EEEEEE" height="23.9688" style="stroke: #A80036; stroke-width: 1.5;" width="38" x="749" y="166"/><text fill="#000000" font-family="sans-serif" font-size="12" lengthAdjust="spacingAndGlyphs" textLength="32" x="752" y="182.1387">Entry</text></a><!--class Account--><a target="_top" xlink:actuate="onRequest" xlink:href="../Account.html" xlink:show="new" xlink:title="Record of transactions in specific types of assets, maintained by a servicing party on behalf of one or more owning parties. Business relationship between an account servicer and one or more account owners." xlink:type="simple"><rect fill="#EEEEEE" filter="url(#f4zwskj38mo7r)" height="23.9688" id="Account" style="stroke: #A80036; stroke-width: 1.5;" width="57" x="370.75" y="360"/><rect fill="#EEEEEE" height="23.9688" style="stroke: #A80036; stroke-width: 1.5;" width="57" x="370.75" y="360"/><text fill="#000000" font-family="sans-serif" font-size="12" lengthAdjust="spacingAndGlyphs" textLength="51" x="373.75" y="376.1387">Account</text></a><!--class InvestmentFund--><a target="_top" xlink:actuate="onRequest" xlink:href="../InvestmentFund.html" xlink:show="new" xlink:title="Distinct pool of financial instruments managed by a single investment policy. May or not be part of an umbrella fund. The pool is issued in at least one investment fund class." xlink:type="simple"><rect fill="#EEEEEE" filter="url(#f4zwskj38mo7r)" height="23.9688" id="InvestmentFund" style="stroke: #A80036; stroke-width: 1.5;" width="106" x="370.5" y="270"/><rect fill="#EEEEEE" height="23.9688" style="stroke: #A80036; stroke-width: 1.5;" width="106" x="370.5" y="270"/><text fill="#000000" font-family="sans-serif" font-size="12" lengthAdjust="spacingAndGlyphs" textLength="100" x="373.5" y="286.1387">InvestmentFund</text></a><!--link Role to InvestmentFundPartyRole--><path d="M227.103,105.559 C227.677,127.159 228.334,151.898 228.704,165.865 " fill="none" id="Role-InvestmentFundPartyRole" style="stroke: #A80036; stroke-width: 1.0;"/><polygon fill="none" points="220.105,105.699,226.571,85.52,234.1,105.328,220.105,105.699" style="stroke: #A80036; stroke-width: 1.0;"/><!--link InvestmentFundPartyRole to Grantor--><path d="M188.883,199.292 C165.096,211.837 134.676,228.787 109,246 C98.1359,253.283 86.5898,262.532 78.0522,269.692 " fill="none" id="InvestmentFundPartyRole-Grantor" style="stroke: #A80036; stroke-width: 1.0;"/><polygon fill="none" points="185.709,193.053,206.687,190.069,192.149,205.484,185.709,193.053" style="stroke: #A80036; stroke-width: 1.0;"/><!--link InvestmentFundPartyRole to Settlor--><path d="M208.042,206.406 C192.099,227.255 170.996,254.851 159.447,269.954 " fill="none" id="InvestmentFundPartyRole-Settlor" style="stroke: #A80036; stroke-width: 1.0;"/><polygon fill="none" points="202.645,201.941,220.355,190.306,213.766,210.445,202.645,201.941" style="stroke: #A80036; stroke-width: 1.0;"/><!--link InvestmentFundPartyRole to FundOrderDesk--><path d="M238.905,209.615 C245.503,230.011 253.787,255.614 258.426,269.954 " fill="none" id="InvestmentFundPartyRole-FundOrderDesk" style="stroke: #A80036; stroke-width: 1.0;"/><polygon fill="none" points="232.154,211.489,232.658,190.306,245.474,207.18,232.154,211.489" style="stroke: #A80036; stroke-width: 1.0;"/><!--link ContactPersonRole to RolePlayer--><!--link CounterpartyRisk to ContactPersonRole--><!--link Entry to CounterpartyRisk--><!--link InvestmentFund to Account--><!--link Role to RolePlayer--><path d="M313.446,65.394 C547.221,70.275 1169,91.311 1169,177 C1169,177 1169,177 1169,373 C1169,433.6217 962.27,453.2654 872.642,458.9332 " fill="none" id="Role-RolePlayer" style="stroke: #A80036; stroke-width: 1.0;"/><polygon fill="#A80036" points="867.428,459.2555,876.6577,462.6924,872.4185,458.9469,876.164,454.7077,867.428,459.2555" style="stroke: #A80036; stroke-width: 1.0;"/><text fill="#000000" font-family="sans-serif" font-size="13" lengthAdjust="spacingAndGlyphs" textLength="39" x="1170" y="286.0669">Player</text><text fill="#000000" font-family="sans-serif" font-size="13" lengthAdjust="spacingAndGlyphs" textLength="7" x="875.8888" y="452.8806">*</text><!--link Role to ContactPersonRole--><path d="M313.307,66.802 C496.23,73.603 906.162,94.082 946,142 C984.794,188.662 923.987,279.437 892,318 C878.097,334.761 857.535,348.223 840.739,357.386 " fill="none" id="Role-ContactPersonRole" style="stroke: #A80036; stroke-width: 1.0;"/><polygon fill="#A80036" points="836.11,359.855,845.9333,359.1465,840.5211,357.5009,842.1667,352.0887,836.11,359.855" style="stroke: #A80036; stroke-width: 1.0;"/><text fill="#000000" font-family="sans-serif" font-size="13" lengthAdjust="spacingAndGlyphs" textLength="121" x="951" y="233.0669">ContactPersonRole</text><text fill="#000000" font-family="sans-serif" font-size="13" lengthAdjust="spacingAndGlyphs" textLength="8" x="833.6791" y="348.8534">1</text><!--link Role to CounterpartyRisk--><path d="M313.253,63.104 C457.881,63.607 737.93,73.661 804,142 C836.058,175.159 828.214,235.755 822.059,264.728 " fill="none" id="Role-CounterpartyRisk" style="stroke: #A80036; stroke-width: 1.0;"/><polygon fill="#A80036" points="820.94,269.757,826.8008,261.8418,822.0269,264.8766,818.9921,260.1027,820.94,269.757" style="stroke: #A80036; stroke-width: 1.0;"/><text fill="#000000" font-family="sans-serif" font-size="13" lengthAdjust="spacingAndGlyphs" textLength="109" x="827" y="182.0669">CounterpartyRisk</text><text fill="#000000" font-family="sans-serif" font-size="13" lengthAdjust="spacingAndGlyphs" textLength="24" x="792.5248" y="258.9799">0..1</text><!--link Role to Entry--><path d="M313.383,82.218 C440.287,108.676 668.611,156.279 743.487,171.889 " fill="none" id="Role-Entry" style="stroke: #A80036; stroke-width: 1.0;"/><polygon fill="#A80036" points="748.61,172.957,740.6154,167.2049,743.7152,171.9369,738.9832,175.0367,748.61,172.957" style="stroke: #A80036; stroke-width: 1.0;"/><text fill="#000000" font-family="sans-serif" font-size="13" lengthAdjust="spacingAndGlyphs" textLength="33" x="563" y="129.0669">Entry</text><text fill="#000000" font-family="sans-serif" font-size="13" lengthAdjust="spacingAndGlyphs" textLength="8" x="733.0552" y="165.4063">1</text><!--link InvestmentFundPartyRole to Account--><path d="M311.376,187.07 C381.843,196.113 474.583,213.905 492,246 C507.263,274.125 508.078,290.332 492,318 C479.153,340.108 453.25,353.762 432.037,361.663 " fill="none" id="InvestmentFundPartyRole-Account" style="stroke: #A80036; stroke-width: 1.0;"/><polygon fill="#A80036" points="427.312,363.358,437.1341,364.0832,432.0182,361.6693,434.4321,356.5533,427.312,363.358" style="stroke: #A80036; stroke-width: 1.0;"/><text fill="#000000" font-family="sans-serif" font-size="13" lengthAdjust="spacingAndGlyphs" textLength="52" x="505" y="286.0669">Account</text><text fill="#000000" font-family="sans-serif" font-size="13" lengthAdjust="spacingAndGlyphs" textLength="7" x="435.7943" y="354.84">*</text><!--link InvestmentFundPartyRole to InvestmentFund--><path d="M250.131,190.11 C285.991,208.964 358.63,247.156 397.347,267.512 " fill="none" id="InvestmentFundPartyRole-InvestmentFund" style="stroke: #A80036; stroke-width: 1.0;"/><polygon fill="#A80036" points="401.895,269.904,395.7907,262.175,397.4695,267.577,392.0675,269.2557,401.895,269.904" style="stroke: #A80036; stroke-width: 1.0;"/><text fill="#000000" font-family="sans-serif" font-size="13" lengthAdjust="spacingAndGlyphs" textLength="103" x="339" y="233.0669">InvestmentFund</text><text fill="#000000" font-family="sans-serif" font-size="13" lengthAdjust="spacingAndGlyphs" textLength="7" x="384.9214" y="258.9192">*</text><!--link Entry to Account--><path d="M754.759,190.298 C723.821,216.197 643.591,280.499 567,318 C522.493,339.791 467.024,355.23 432.3,363.628 " fill="none" id="Entry-Account" style="stroke: #A80036; stroke-width: 1.0;"/><polygon fill="#A80036" points="427.331,364.815,437.0145,366.6122,432.1939,363.6521,435.1539,358.8315,427.331,364.815" style="stroke: #A80036; stroke-width: 1.0;"/><text fill="#000000" font-family="sans-serif" font-size="13" lengthAdjust="spacingAndGlyphs" textLength="52" x="684" y="286.0669">Account</text><text fill="#000000" font-family="sans-serif" font-size="13" lengthAdjust="spacingAndGlyphs" textLength="7" x="435.8184" y="376.9886">*</text><!--link Account to Account--><path d="M427.508,364.332 C445.181,362.483 462,365.039 462,372 C462,378.254 448.424,380.952 432.85,380.095 " fill="none" id="Account-Account" style="stroke: #A80036; stroke-width: 1.0;"/><polygon fill="#A80036" points="427.508,379.668,436.1605,384.3727,432.4921,380.0666,436.7982,376.3981,427.508,379.668" style="stroke: #A80036; stroke-width: 1.0;"/><text fill="#000000" font-family="sans-serif" font-size="13" lengthAdjust="spacingAndGlyphs" textLength="94" x="468" y="376.0669">ParentAccount</text><text fill="#000000" font-family="sans-serif" font-size="13" lengthAdjust="spacingAndGlyphs" textLength="8" x="435.7741" y="395.6427">1</text></g></svg>