<?xml version="1.0" encoding="UTF-8" standalone="no"?><svg xmlns="http://www.w3.org/2000/svg" xmlns:xlink="http://www.w3.org/1999/xlink" contentScriptType="application/ecmascript" contentStyleType="text/css" height="530px" preserveAspectRatio="none" style="width:2332px;height:530px;" version="1.1" viewBox="0 0 2332 530" width="2332px" zoomAndPan="magnify"><defs><filter height="300%" id="fehxr6xd70tsx" width="300%" x="-1" y="-1"><feGaussianBlur result="blurOut" stdDeviation="2.0"/><feColorMatrix in="blurOut" result="blurOut2" type="matrix" values="0 0 0 0 0 0 0 0 0 0 0 0 0 0 0 0 0 0 .4 0"/><feOffset dx="4.0" dy="4.0" in="blurOut2" result="blurOut3"/><feBlend in="SourceGraphic" in2="blurOut3" mode="normal"/></filter></defs><g><!--cluster ##44571--><!--cluster ##44589--><!--cluster ##44598--><!--cluster ##44603--><!--class Role--><a target="_top" xlink:actuate="onRequest" xlink:href="../Role.html" xlink:show="new" xlink:title="Role of a party in an activity." xlink:type="simple"><rect fill="#FEFEEE" filter="url(#fehxr6xd70tsx)" height="44.7734" id="Role" style="stroke: #A80036; stroke-width: 1.5;" width="175" x="783.75" y="40.5"/><rect fill="#FEFEEE" height="23.9688" style="stroke: #A80036; stroke-width: 1.5;" width="175" x="783.75" y="40.5"/><text fill="#000000" font-family="sans-serif" font-size="12" lengthAdjust="spacingAndGlyphs" textLength="27" x="857.75" y="56.6387">Role</text><line style="stroke: #A80036; stroke-width: 1.5;" x1="784.75" x2="957.75" y1="64.4688" y2="64.4688"/><ellipse cx="794.75" cy="76.3711" fill="#84BE84" rx="3" ry="3" style="stroke: #038048; stroke-width: 1.0;"/><text fill="#000000" font-family="sans-serif" font-size="11" lengthAdjust="spacingAndGlyphs" textLength="53" x="803.75" y="78.6792">PartyRole</text><text fill="#000000" font-family="sans-serif" font-size="11" font-style="italic" lengthAdjust="spacingAndGlyphs" textLength="92" x="860.75" y="78.6792">(PartyRoleCode)</text></a><!--class SettlementPartyRole--><a target="_top" xlink:actuate="onRequest" xlink:href="../SettlementPartyRole.html" xlink:show="new" xlink:title="Role played by a party in a settlement process." xlink:type="simple"><rect fill="#FEFEEE" filter="url(#fehxr6xd70tsx)" height="23.9688" id="SettlementPartyRole" style="stroke: #A80036; stroke-width: 1.5;" width="134" x="820" y="166"/><rect fill="#FEFEEE" height="23.9688" style="stroke: #A80036; stroke-width: 1.5;" width="134" x="820" y="166"/><text fill="#000000" font-family="sans-serif" font-size="12" lengthAdjust="spacingAndGlyphs" textLength="128" x="823" y="182.1387">SettlementPartyRole</text></a><!--class SecuritiesSettlementPartyRole--><a target="_top" xlink:actuate="onRequest" xlink:href="../SecuritiesSettlementPartyRole.html" xlink:show="new" xlink:title="Role played by a party in the context of the settlement of securities." xlink:type="simple"><rect fill="#FEFECE" filter="url(#fehxr6xd70tsx)" height="57.5781" id="SecuritiesSettlementPartyRole" style="stroke: #A80036; stroke-width: 1.5;" width="249" x="709.75" y="268"/><rect fill="#FEFECE" height="23.9688" style="stroke: #A80036; stroke-width: 1.5;" width="249" x="709.75" y="268"/><text fill="#000000" font-family="sans-serif" font-size="12" lengthAdjust="spacingAndGlyphs" textLength="190" x="739.25" y="284.1387">SecuritiesSettlementPartyRole</text><line style="stroke: #A80036; stroke-width: 1.5;" x1="710.75" x2="957.75" y1="291.9688" y2="291.9688"/><ellipse cx="720.75" cy="303.8711" fill="#84BE84" rx="3" ry="3" style="stroke: #038048; stroke-width: 1.0;"/><text fill="#000000" font-family="sans-serif" font-size="11" lengthAdjust="spacingAndGlyphs" textLength="91" x="729.75" y="306.1792">SettlingCapacity</text><text fill="#000000" font-family="sans-serif" font-size="11" font-style="italic" lengthAdjust="spacingAndGlyphs" textLength="128" x="824.75" y="306.1792">(SettlingCapacityCode)</text><ellipse cx="720.75" cy="316.6758" fill="#84BE84" rx="3" ry="3" style="stroke: #038048; stroke-width: 1.0;"/><text fill="#000000" font-family="sans-serif" font-size="11" lengthAdjust="spacingAndGlyphs" textLength="68" x="729.75" y="318.9839">TaxCapacity</text><text fill="#000000" font-family="sans-serif" font-size="11" font-style="italic" lengthAdjust="spacingAndGlyphs" textLength="101" x="801.75" y="318.9839">(TaxLiabilityCode)</text></a><!--class ReceivingSettlementParty--><a target="_top" xlink:actuate="onRequest" xlink:href="../ReceivingSettlementParty.html" xlink:show="new" xlink:title="Party that receives securities as part of a chain of settlement parties or as ultimate party." xlink:type="simple"><rect fill="#FEFEEE" filter="url(#fehxr6xd70tsx)" height="23.9688" id="ReceivingSettlementParty" style="stroke: #A80036; stroke-width: 1.5;" width="166" x="38" y="406"/><rect fill="#FEFEEE" height="23.9688" style="stroke: #A80036; stroke-width: 1.5;" width="166" x="38" y="406"/><text fill="#000000" font-family="sans-serif" font-size="12" lengthAdjust="spacingAndGlyphs" textLength="160" x="41" y="422.1387">ReceivingSettlementParty</text></a><!--class DeliveringSettlementParty--><a target="_top" xlink:actuate="onRequest" xlink:href="../DeliveringSettlementParty.html" xlink:show="new" xlink:title="Party that is responsible for delivering securities as part of a chain of settlement parties or as party that sells them." xlink:type="simple"><rect fill="#FEFEEE" filter="url(#fehxr6xd70tsx)" height="23.9688" id="DeliveringSettlementParty" style="stroke: #A80036; stroke-width: 1.5;" width="168" x="435.5" y="406"/><rect fill="#FEFEEE" height="23.9688" style="stroke: #A80036; stroke-width: 1.5;" width="168" x="435.5" y="406"/><text fill="#000000" font-family="sans-serif" font-size="12" lengthAdjust="spacingAndGlyphs" textLength="162" x="438.5" y="422.1387">DeliveringSettlementParty</text></a><!--class PlaceOfSettlement--><a target="_top" xlink:actuate="onRequest" xlink:href="../PlaceOfSettlement.html" xlink:show="new" xlink:title="Place where settlement of securities occurs." xlink:type="simple"><rect fill="#FEFEEE" filter="url(#fehxr6xd70tsx)" height="23.9688" id="PlaceOfSettlement" style="stroke: #A80036; stroke-width: 1.5;" width="122" x="837" y="406"/><rect fill="#FEFEEE" height="23.9688" style="stroke: #A80036; stroke-width: 1.5;" width="122" x="837" y="406"/><text fill="#000000" font-family="sans-serif" font-size="12" lengthAdjust="spacingAndGlyphs" textLength="116" x="840" y="422.1387">PlaceOfSettlement</text></a><!--class RolePlayer--><a target="_top" xlink:actuate="onRequest" xlink:href="../RolePlayer.html" xlink:show="new" xlink:title="Type of entity that plays a specific role in a specific context." xlink:type="simple"><rect fill="#EEEEEE" filter="url(#fehxr6xd70tsx)" height="23.9688" id="RolePlayer" style="stroke: #A80036; stroke-width: 1.5;" width="71" x="1907.75" y="496"/><rect fill="#EEEEEE" height="23.9688" style="stroke: #A80036; stroke-width: 1.5;" width="71" x="1907.75" y="496"/><text fill="#000000" font-family="sans-serif" font-size="12" lengthAdjust="spacingAndGlyphs" textLength="65" x="1910.75" y="512.1387">RolePlayer</text></a><!--class ContactPersonRole--><a target="_top" xlink:actuate="onRequest" xlink:href="../ContactPersonRole.html" xlink:show="new" xlink:title="Person to be contacted in a given organisation. In the corporate action domain (including meeting notifications) , it is the contact person at the party organising the meeting, at the issuer or at an intermediary." xlink:type="simple"><rect fill="#EEEEEE" filter="url(#fehxr6xd70tsx)" height="23.9688" id="ContactPersonRole" style="stroke: #A80036; stroke-width: 1.5;" width="126" x="1860" y="406"/><rect fill="#EEEEEE" height="23.9688" style="stroke: #A80036; stroke-width: 1.5;" width="126" x="1860" y="406"/><text fill="#000000" font-family="sans-serif" font-size="12" lengthAdjust="spacingAndGlyphs" textLength="120" x="1863" y="422.1387">ContactPersonRole</text></a><!--class CounterpartyRisk--><a target="_top" xlink:actuate="onRequest" xlink:href="../CounterpartyRisk.html" xlink:show="new" xlink:title="Calculation of the exposure amount that one party has vis-a-vis one counterparty or a central system, based on its credit risk." xlink:type="simple"><rect fill="#EEEEEE" filter="url(#fehxr6xd70tsx)" height="23.9688" id="CounterpartyRisk" style="stroke: #A80036; stroke-width: 1.5;" width="113" x="1872.75" y="285"/><rect fill="#EEEEEE" height="23.9688" style="stroke: #A80036; stroke-width: 1.5;" width="113" x="1872.75" y="285"/><text fill="#000000" font-family="sans-serif" font-size="12" lengthAdjust="spacingAndGlyphs" textLength="107" x="1875.75" y="301.1387">CounterpartyRisk</text></a><!--class Entry--><a target="_top" xlink:actuate="onRequest" xlink:href="../Entry.html" xlink:show="new" xlink:title="Posting to an account that results in an increase or decrease to a balance." xlink:type="simple"><rect fill="#EEEEEE" filter="url(#fehxr6xd70tsx)" height="23.9688" id="Entry" style="stroke: #A80036; stroke-width: 1.5;" width="38" x="1860" y="166"/><rect fill="#EEEEEE" height="23.9688" style="stroke: #A80036; stroke-width: 1.5;" width="38" x="1860" y="166"/><text fill="#000000" font-family="sans-serif" font-size="12" lengthAdjust="spacingAndGlyphs" textLength="32" x="1863" y="182.1387">Entry</text></a><!--class Account--><a target="_top" xlink:actuate="onRequest" xlink:href="../Account.html" xlink:show="new" xlink:title="Record of transactions in specific types of assets, maintained by a servicing party on behalf of one or more owning parties. Business relationship between an account servicer and one or more account owners." xlink:type="simple"><rect fill="#EEEEEE" filter="url(#fehxr6xd70tsx)" height="23.9688" id="Account" style="stroke: #A80036; stroke-width: 1.5;" width="57" x="1440.75" y="406"/><rect fill="#EEEEEE" height="23.9688" style="stroke: #A80036; stroke-width: 1.5;" width="57" x="1440.75" y="406"/><text fill="#000000" font-family="sans-serif" font-size="12" lengthAdjust="spacingAndGlyphs" textLength="51" x="1443.75" y="422.1387">Account</text></a><!--class Settlement--><a target="_top" xlink:actuate="onRequest" xlink:href="../Settlement.html" xlink:show="new" xlink:title="Process which consists in transferring the proceeds related to a trade from one party to the next one." xlink:type="simple"><rect fill="#EEEEEE" filter="url(#fehxr6xd70tsx)" height="23.9688" id="Settlement" style="stroke: #A80036; stroke-width: 1.5;" width="75" x="1439.75" y="285"/><rect fill="#EEEEEE" height="23.9688" style="stroke: #A80036; stroke-width: 1.5;" width="75" x="1439.75" y="285"/><text fill="#000000" font-family="sans-serif" font-size="12" lengthAdjust="spacingAndGlyphs" textLength="69" x="1442.75" y="301.1387">Settlement</text></a><!--class SecuritiesSettlement--><a target="_top" xlink:actuate="onRequest" xlink:href="../SecuritiesSettlement.html" xlink:show="new" xlink:title="Settlement of the securities in a securities transaction, that is, the instruction to deliver or receive securities, involving the payment of an amount of money or not." xlink:type="simple"><rect fill="#EEEEEE" filter="url(#fehxr6xd70tsx)" height="23.9688" id="SecuritiesSettlement" style="stroke: #A80036; stroke-width: 1.5;" width="137" x="1053.75" y="496"/><rect fill="#EEEEEE" height="23.9688" style="stroke: #A80036; stroke-width: 1.5;" width="137" x="1053.75" y="496"/><text fill="#000000" font-family="sans-serif" font-size="12" lengthAdjust="spacingAndGlyphs" textLength="131" x="1056.75" y="512.1387">SecuritiesSettlement</text></a><!--class SecuritiesSettlementSystem--><a target="_top" xlink:actuate="onRequest" xlink:href="../SecuritiesSettlementSystem.html" xlink:show="new" xlink:title="Specifies the system used in a settlement process." xlink:type="simple"><rect fill="#EEEEEE" filter="url(#fehxr6xd70tsx)" height="23.9688" id="SecuritiesSettlementSystem" style="stroke: #A80036; stroke-width: 1.5;" width="182" x="1015" y="406"/><rect fill="#EEEEEE" height="23.9688" style="stroke: #A80036; stroke-width: 1.5;" width="182" x="1015" y="406"/><text fill="#000000" font-family="sans-serif" font-size="12" lengthAdjust="spacingAndGlyphs" textLength="176" x="1018" y="422.1387">SecuritiesSettlementSystem</text></a><!--link Role to SettlementPartyRole--><path d="M876.884,105.559 C879.943,127.159 883.446,151.898 885.423,165.865 " fill="none" id="Role-SettlementPartyRole" style="stroke: #A80036; stroke-width: 1.0;"/><polygon fill="none" points="869.92,106.304,874.047,85.52,883.782,104.342,869.92,106.304" style="stroke: #A80036; stroke-width: 1.0;"/><!--link SettlementPartyRole to SecuritiesSettlementPartyRole--><path d="M873.557,208.675 C865.322,226.855 854.843,249.987 846.74,267.876 " fill="none" id="SettlementPartyRole-SecuritiesSettlementPartyRole" style="stroke: #A80036; stroke-width: 1.0;"/><polygon fill="none" points="867.289,205.548,881.918,190.218,880.042,211.325,867.289,205.548" style="stroke: #A80036; stroke-width: 1.0;"/><!--link SecuritiesSettlementPartyRole to ReceivingSettlementParty--><path d="M689.259,322.157 C535.934,347.747 300.645,387.017 186.977,405.988 " fill="none" id="SecuritiesSettlementPartyRole-ReceivingSettlementParty" style="stroke: #A80036; stroke-width: 1.0;"/><polygon fill="none" points="688.518,315.184,709.397,318.796,690.822,328.993,688.518,315.184" style="stroke: #A80036; stroke-width: 1.0;"/><!--link SecuritiesSettlementPartyRole to DeliveringSettlementParty--><path d="M740.923,333.162 C675.39,357.919 591.879,389.468 548.365,405.906 " fill="none" id="SecuritiesSettlementPartyRole-DeliveringSettlementParty" style="stroke: #A80036; stroke-width: 1.0;"/><polygon fill="none" points="738.565,326.57,759.748,326.051,743.513,339.667,738.565,326.57" style="stroke: #A80036; stroke-width: 1.0;"/><!--link SecuritiesSettlementPartyRole to PlaceOfSettlement--><path d="M858.804,344.12 C870.872,366.56 884.381,391.677 891.971,405.79 " fill="none" id="SecuritiesSettlementPartyRole-PlaceOfSettlement" style="stroke: #A80036; stroke-width: 1.0;"/><polygon fill="none" points="852.475,347.131,849.167,326.201,864.805,340.5,852.475,347.131" style="stroke: #A80036; stroke-width: 1.0;"/><!--link ContactPersonRole to RolePlayer--><!--link CounterpartyRisk to ContactPersonRole--><!--link Entry to CounterpartyRisk--><!--link Settlement to Account--><!--link SecuritiesSettlementSystem to SecuritiesSettlement--><!--link Role to RolePlayer--><path d="M958.546,65.956 C1189.16,71.434 1809.58,88.358 2013,116 C2133.62,132.39 2280,55.276 2280,177 C2280,177 2280,177 2280,419 C2280,479.6217 2073.27,499.2654 1983.64,504.9332 " fill="none" id="Role-RolePlayer" style="stroke: #A80036; stroke-width: 1.0;"/><polygon fill="#A80036" points="1978.43,505.2555,1987.6636,508.6819,1983.4201,504.9412,1987.1608,500.6977,1978.43,505.2555" style="stroke: #A80036; stroke-width: 1.0;"/><text fill="#000000" font-family="sans-serif" font-size="13" lengthAdjust="spacingAndGlyphs" textLength="39" x="2281" y="301.0669">Player</text><text fill="#000000" font-family="sans-serif" font-size="13" lengthAdjust="spacingAndGlyphs" textLength="7" x="1986.8913" y="498.8806">*</text><!--link Role to ContactPersonRole--><path d="M958.703,66.346 C1227.45,73.976 2023.54,100.046 2059,142 C2131.57,227.854 1992.03,359.074 1940.81,402.493 " fill="none" id="Role-ContactPersonRole" style="stroke: #A80036; stroke-width: 1.0;"/><polygon fill="#A80036" points="1936.7,405.943,1946.1584,403.1972,1940.5217,402.719,1940.9999,397.0824,1936.7,405.943" style="stroke: #A80036; stroke-width: 1.0;"/><text fill="#000000" font-family="sans-serif" font-size="13" lengthAdjust="spacingAndGlyphs" textLength="121" x="2077" y="233.0669">ContactPersonRole</text><text fill="#000000" font-family="sans-serif" font-size="13" lengthAdjust="spacingAndGlyphs" textLength="8" x="1930.6906" y="394.9716">1</text><!--link Role to CounterpartyRisk--><path d="M958.515,64.196 C1197.42,65.601 1847.47,75.55 1915,142 C1952.08,178.49 1941.05,247.982 1933.49,279.602 " fill="none" id="Role-CounterpartyRisk" style="stroke: #A80036; stroke-width: 1.0;"/><polygon fill="#A80036" points="1932.23,284.695,1938.2805,276.9238,1933.4346,279.8423,1930.5161,274.9964,1932.23,284.695" style="stroke: #A80036; stroke-width: 1.0;"/><text fill="#000000" font-family="sans-serif" font-size="13" lengthAdjust="spacingAndGlyphs" textLength="109" x="1940" y="182.0669">CounterpartyRisk</text><text fill="#000000" font-family="sans-serif" font-size="13" lengthAdjust="spacingAndGlyphs" textLength="24" x="1903.9109" y="273.8974">0..1</text><!--link Role to Entry--><path d="M958.252,73.781 C1175.5,98.136 1732.01,160.522 1854.79,174.286 " fill="none" id="Role-Entry" style="stroke: #A80036; stroke-width: 1.0;"/><polygon fill="#A80036" points="1859.98,174.867,1851.4818,169.889,1855.0111,174.3098,1850.5903,177.8392,1859.98,174.867" style="stroke: #A80036; stroke-width: 1.0;"/><text fill="#000000" font-family="sans-serif" font-size="13" lengthAdjust="spacingAndGlyphs" textLength="33" x="1496" y="129.0669">Entry</text><text fill="#000000" font-family="sans-serif" font-size="13" lengthAdjust="spacingAndGlyphs" textLength="8" x="1843.9241" y="167.5408">1</text><!--link SettlementPartyRole to Account--><path d="M954.173,182.539 C1111.58,191.525 1493.81,217.636 1531,261 C1568.04,304.19 1512.53,372.235 1484.08,402.105 " fill="none" id="SettlementPartyRole-Account" style="stroke: #A80036; stroke-width: 1.0;"/><polygon fill="#A80036" points="1480.43,405.891,1489.5574,402.1908,1483.9014,402.2925,1483.7997,396.6366,1480.43,405.891" style="stroke: #A80036; stroke-width: 1.0;"/><text fill="#000000" font-family="sans-serif" font-size="13" lengthAdjust="spacingAndGlyphs" textLength="124" x="1545" y="301.0669">SettlementAccount</text><text fill="#000000" font-family="sans-serif" font-size="13" lengthAdjust="spacingAndGlyphs" textLength="8" x="1473.5544" y="394.9017">1</text><!--link SettlementPartyRole to Settlement--><path d="M942.506,190.007 C1059.58,213.223 1329.61,266.771 1434.37,287.547 " fill="none" id="SettlementPartyRole-Settlement" style="stroke: #A80036; stroke-width: 1.0;"/><polygon fill="#A80036" points="1439.53,288.57,1431.4787,282.8975,1434.6253,287.5985,1429.9243,290.745,1439.53,288.57" style="stroke: #A80036; stroke-width: 1.0;"/><text fill="#000000" font-family="sans-serif" font-size="13" lengthAdjust="spacingAndGlyphs" textLength="72" x="1183" y="233.0669">Settlement</text><text fill="#000000" font-family="sans-serif" font-size="13" lengthAdjust="spacingAndGlyphs" textLength="8" x="1423.7215" y="281.9517">1</text><!--link SecuritiesSettlementPartyRole to SecuritiesSettlement--><path d="M958.655,306.773 C1048.15,315.109 1159.48,330.288 1198,356 C1235.44,380.988 1236.84,417.218 1214,456 C1203.4,473.9875 1183.93,486.08 1165.61,493.9555 " fill="none" id="SecuritiesSettlementPartyRole-SecuritiesSettlement" style="stroke: #A80036; stroke-width: 1.0;"/><polygon fill="#A80036" points="1160.99,495.8679,1170.8357,496.1187,1165.6093,493.9542,1167.7738,488.7278,1160.99,495.8679" style="stroke: #A80036; stroke-width: 1.0;"/><text fill="#000000" font-family="sans-serif" font-size="13" lengthAdjust="spacingAndGlyphs" textLength="135" x="1231" y="422.0669">SecuritiesSettlement</text><text fill="#000000" font-family="sans-serif" font-size="13" lengthAdjust="spacingAndGlyphs" textLength="7" x="1164.76" y="484.8707">*</text><!--link SecuritiesSettlementPartyRole to SecuritiesSettlementSystem--><path d="M898.116,326.051 C954.223,350.598 1033.24,385.166 1075.88,403.822 " fill="none" id="SecuritiesSettlementPartyRole-SecuritiesSettlementSystem" style="stroke: #A80036; stroke-width: 1.0;"/><polygon fill="#A80036" points="1080.64,405.906,1073.992,398.6393,1076.0576,403.9056,1070.7914,405.9712,1080.64,405.906" style="stroke: #A80036; stroke-width: 1.0;"/><text fill="#000000" font-family="sans-serif" font-size="13" lengthAdjust="spacingAndGlyphs" textLength="184" x="1004" y="369.0669">SecuritiesSettlementSystem</text><text fill="#000000" font-family="sans-serif" font-size="13" lengthAdjust="spacingAndGlyphs" textLength="7" x="1062.3756" y="394.9219">*</text><!--link ReceivingSettlementParty to ReceivingSettlementParty--><path d="M204.25,409.527 C224.21,410.189 239,413.014 239,418 C239,422.558 226.643,425.309 209.276,426.254 " fill="none" id="ReceivingSettlementParty-ReceivingSettlementParty" style="stroke: #A80036; stroke-width: 1.0;"/><polygon fill="#A80036" points="204.25,426.473,213.4162,430.0758,209.2452,426.2545,213.0666,422.0834,204.25,426.473" style="stroke: #A80036; stroke-width: 1.0;"/><text fill="#000000" font-family="sans-serif" font-size="13" lengthAdjust="spacingAndGlyphs" textLength="165" x="245" y="422.0669">ReceivingSettlementParty</text><text fill="#000000" font-family="sans-serif" font-size="13" lengthAdjust="spacingAndGlyphs" textLength="8" x="212.0207" y="422.5448">1</text><!--link DeliveringSettlementParty to DeliveringSettlementParty--><path d="M602.52,409.536 C622.343,410.215 637,413.036 637,418 C637,422.499 624.963,425.237 607.951,426.216 " fill="none" id="DeliveringSettlementParty-DeliveringSettlementParty" style="stroke: #A80036; stroke-width: 1.0;"/><polygon fill="#A80036" points="602.52,426.464,611.6924,430.051,607.5148,426.2368,611.329,422.0592,602.52,426.464" style="stroke: #A80036; stroke-width: 1.0;"/><text fill="#000000" font-family="sans-serif" font-size="13" lengthAdjust="spacingAndGlyphs" textLength="168" x="643" y="422.0669">DeliveringSettlementParty</text><text fill="#000000" font-family="sans-serif" font-size="13" lengthAdjust="spacingAndGlyphs" textLength="8" x="611.4939" y="422.5356">1</text><!--link Entry to Account--><path d="M1867.77,190.304 C1837.22,220.916 1752.69,304.557 1720,326 C1675.74,355.031 1660.64,355.629 1611,374 C1574.35,387.563 1531.26,400.153 1502.24,408.16 " fill="none" id="Entry-Account" style="stroke: #A80036; stroke-width: 1.0;"/><polygon fill="#A80036" points="1497.35,409.503,1507.0892,410.9684,1502.1703,408.1747,1504.964,403.2558,1497.35,409.503" style="stroke: #A80036; stroke-width: 1.0;"/><text fill="#000000" font-family="sans-serif" font-size="13" lengthAdjust="spacingAndGlyphs" textLength="52" x="1795" y="301.0669">Account</text><text fill="#000000" font-family="sans-serif" font-size="13" lengthAdjust="spacingAndGlyphs" textLength="7" x="1505.8425" y="401.024">*</text><!--link Account to Account--><path d="M1497.51,409.984 C1515.18,408.051 1532,410.723 1532,418 C1532,424.538 1518.42,427.359 1502.85,426.463 " fill="none" id="Account-Account" style="stroke: #A80036; stroke-width: 1.0;"/><polygon fill="#A80036" points="1497.51,426.016,1506.1341,430.7725,1502.4916,426.4445,1506.8197,422.8019,1497.51,426.016" style="stroke: #A80036; stroke-width: 1.0;"/><text fill="#000000" font-family="sans-serif" font-size="13" lengthAdjust="spacingAndGlyphs" textLength="94" x="1538" y="422.0669">ParentAccount</text><text fill="#000000" font-family="sans-serif" font-size="13" lengthAdjust="spacingAndGlyphs" textLength="8" x="1505.7766" y="421.9799">1</text></g></svg>