<?xml version="1.0" encoding="UTF-8" standalone="no"?><svg xmlns="http://www.w3.org/2000/svg" xmlns:xlink="http://www.w3.org/1999/xlink" contentScriptType="application/ecmascript" contentStyleType="text/css" height="478px" preserveAspectRatio="none" style="width:778px;height:478px;" version="1.1" viewBox="0 0 778 478" width="778px" zoomAndPan="magnify"><defs><filter height="300%" id="f1m4411a4em6x5" width="300%" x="-1" y="-1"><feGaussianBlur result="blurOut" stdDeviation="2.0"/><feColorMatrix in="blurOut" result="blurOut2" type="matrix" values="0 0 0 0 0 0 0 0 0 0 0 0 0 0 0 0 0 0 .4 0"/><feOffset dx="4.0" dy="4.0" in="blurOut2" result="blurOut3"/><feBlend in="SourceGraphic" in2="blurOut3" mode="normal"/></filter></defs><g><!--cluster ##31924--><!--cluster ##31933--><!--cluster ##31942--><!--class Role--><a target="_top" xlink:actuate="onRequest" xlink:href="../Role.html" xlink:show="new" xlink:title="Role of a party in an activity." xlink:type="simple"><rect fill="#FEFEEE" filter="url(#f1m4411a4em6x5)" height="44.7734" id="Role" style="stroke: #A80036; stroke-width: 1.5;" width="175" x="38.75" y="40.5"/><rect fill="#FEFEEE" height="23.9688" style="stroke: #A80036; stroke-width: 1.5;" width="175" x="38.75" y="40.5"/><text fill="#000000" font-family="sans-serif" font-size="12" lengthAdjust="spacingAndGlyphs" textLength="27" x="112.75" y="56.6387">Role</text><line style="stroke: #A80036; stroke-width: 1.5;" x1="39.75" x2="212.75" y1="64.4688" y2="64.4688"/><ellipse cx="49.75" cy="76.3711" fill="#84BE84" rx="3" ry="3" style="stroke: #038048; stroke-width: 1.0;"/><text fill="#000000" font-family="sans-serif" font-size="11" lengthAdjust="spacingAndGlyphs" textLength="53" x="58.75" y="78.6792">PartyRole</text><text fill="#000000" font-family="sans-serif" font-size="11" font-style="italic" lengthAdjust="spacingAndGlyphs" textLength="92" x="115.75" y="78.6792">(PartyRoleCode)</text></a><!--class SecuritiesOrderPartyRole--><a target="_top" xlink:actuate="onRequest" xlink:href="../SecuritiesOrderPartyRole.html" xlink:show="new" xlink:title="Role played by a party associated with an order to buy or sell securities." xlink:type="simple"><rect fill="#FEFECE" filter="url(#f1m4411a4em6x5)" height="23.9688" id="SecuritiesOrderPartyRole" style="stroke: #A80036; stroke-width: 1.5;" width="162" x="49" y="166"/><rect fill="#FEFECE" height="23.9688" style="stroke: #A80036; stroke-width: 1.5;" width="162" x="49" y="166"/><text fill="#000000" font-family="sans-serif" font-size="12" lengthAdjust="spacingAndGlyphs" textLength="156" x="52" y="182.1387">SecuritiesOrderPartyRole</text></a><!--class IntroducingFirm--><a target="_top" xlink:actuate="onRequest" xlink:href="../IntroducingFirm.html" xlink:show="new" xlink:title="Party (broker or other intermediary) that owns the relationship with the investor. It can relay an order directly to the trading floor, or give clients direct access to the floor." xlink:type="simple"><rect fill="#FEFEEE" filter="url(#f1m4411a4em6x5)" height="23.9688" id="IntroducingFirm" style="stroke: #A80036; stroke-width: 1.5;" width="103" x="78.75" y="270"/><rect fill="#FEFEEE" height="23.9688" style="stroke: #A80036; stroke-width: 1.5;" width="103" x="78.75" y="270"/><text fill="#000000" font-family="sans-serif" font-size="12" lengthAdjust="spacingAndGlyphs" textLength="97" x="81.75" y="286.1387">IntroducingFirm</text></a><!--class RolePlayer--><a target="_top" xlink:actuate="onRequest" xlink:href="../RolePlayer.html" xlink:show="new" xlink:title="Type of entity that plays a specific role in a specific context." xlink:type="simple"><rect fill="#EEEEEE" filter="url(#f1m4411a4em6x5)" height="23.9688" id="RolePlayer" style="stroke: #A80036; stroke-width: 1.5;" width="71" x="587.75" y="444"/><rect fill="#EEEEEE" height="23.9688" style="stroke: #A80036; stroke-width: 1.5;" width="71" x="587.75" y="444"/><text fill="#000000" font-family="sans-serif" font-size="12" lengthAdjust="spacingAndGlyphs" textLength="65" x="590.75" y="460.1387">RolePlayer</text></a><!--class ContactPersonRole--><a target="_top" xlink:actuate="onRequest" xlink:href="../ContactPersonRole.html" xlink:show="new" xlink:title="Person to be contacted in a given organisation. In the corporate action domain (including meeting notifications) , it is the contact person at the party organising the meeting, at the issuer or at an intermediary." xlink:type="simple"><rect fill="#EEEEEE" filter="url(#f1m4411a4em6x5)" height="23.9688" id="ContactPersonRole" style="stroke: #A80036; stroke-width: 1.5;" width="126" x="580" y="358"/><rect fill="#EEEEEE" height="23.9688" style="stroke: #A80036; stroke-width: 1.5;" width="126" x="580" y="358"/><text fill="#000000" font-family="sans-serif" font-size="12" lengthAdjust="spacingAndGlyphs" textLength="120" x="583" y="374.1387">ContactPersonRole</text></a><!--class CounterpartyRisk--><a target="_top" xlink:actuate="onRequest" xlink:href="../CounterpartyRisk.html" xlink:show="new" xlink:title="Calculation of the exposure amount that one party has vis-a-vis one counterparty or a central system, based on its credit risk." xlink:type="simple"><rect fill="#EEEEEE" filter="url(#f1m4411a4em6x5)" height="23.9688" id="CounterpartyRisk" style="stroke: #A80036; stroke-width: 1.5;" width="113" x="592.75" y="270"/><rect fill="#EEEEEE" height="23.9688" style="stroke: #A80036; stroke-width: 1.5;" width="113" x="592.75" y="270"/><text fill="#000000" font-family="sans-serif" font-size="12" lengthAdjust="spacingAndGlyphs" textLength="107" x="595.75" y="286.1387">CounterpartyRisk</text></a><!--class Entry--><a target="_top" xlink:actuate="onRequest" xlink:href="../Entry.html" xlink:show="new" xlink:title="Posting to an account that results in an increase or decrease to a balance." xlink:type="simple"><rect fill="#EEEEEE" filter="url(#f1m4411a4em6x5)" height="23.9688" id="Entry" style="stroke: #A80036; stroke-width: 1.5;" width="38" x="580" y="166"/><rect fill="#EEEEEE" height="23.9688" style="stroke: #A80036; stroke-width: 1.5;" width="38" x="580" y="166"/><text fill="#000000" font-family="sans-serif" font-size="12" lengthAdjust="spacingAndGlyphs" textLength="32" x="583" y="182.1387">Entry</text></a><!--class SecuritiesOrder--><a target="_top" xlink:actuate="onRequest" xlink:href="../SecuritiesOrder.html" xlink:show="new" xlink:title="Intention to transfer an ownership of a financial instrument." xlink:type="simple"><rect fill="#EEEEEE" filter="url(#f1m4411a4em6x5)" height="23.9688" id="SecuritiesOrder" style="stroke: #A80036; stroke-width: 1.5;" width="103" x="270.75" y="270"/><rect fill="#EEEEEE" height="23.9688" style="stroke: #A80036; stroke-width: 1.5;" width="103" x="270.75" y="270"/><text fill="#000000" font-family="sans-serif" font-size="12" lengthAdjust="spacingAndGlyphs" textLength="97" x="273.75" y="286.1387">SecuritiesOrder</text></a><!--link Role to SecuritiesOrderPartyRole--><path d="M127.471,105.559 C128.236,127.159 129.111,151.898 129.606,165.865 " fill="none" id="Role-SecuritiesOrderPartyRole" style="stroke: #A80036; stroke-width: 1.0;"/><polygon fill="none" points="120.474,105.756,126.762,85.52,134.465,105.26,120.474,105.756" style="stroke: #A80036; stroke-width: 1.0;"/><!--link SecuritiesOrderPartyRole to IntroducingFirm--><path d="M130,210.595 C130,230.825 130,255.843 130,269.954 " fill="none" id="SecuritiesOrderPartyRole-IntroducingFirm" style="stroke: #A80036; stroke-width: 1.0;"/><polygon fill="none" points="123,210.306,130,190.306,137,210.305,123,210.306" style="stroke: #A80036; stroke-width: 1.0;"/><!--link ContactPersonRole to RolePlayer--><!--link CounterpartyRisk to ContactPersonRole--><!--link Entry to CounterpartyRisk--><!--link Role to RolePlayer--><path d="M213.316,77.507 C307.456,94.598 444,127.857 444,177 C444,177 444,177 444,371 C444,431.8572 529.842,448.7099 582.634,453.3199 " fill="none" id="Role-RolePlayer" style="stroke: #A80036; stroke-width: 1.0;"/><polygon fill="#A80036" points="587.635,453.7288,578.9919,449.0068,582.6517,453.3202,578.3382,456.98,587.635,453.7288" style="stroke: #A80036; stroke-width: 1.0;"/><text fill="#000000" font-family="sans-serif" font-size="13" lengthAdjust="spacingAndGlyphs" textLength="39" x="445" y="286.0669">Player</text><text fill="#000000" font-family="sans-serif" font-size="13" lengthAdjust="spacingAndGlyphs" textLength="7" x="572.7402" y="447.9585">*</text><!--link Role to ContactPersonRole--><path d="M213.479,67.537 C302.019,72.783 431.232,85.542 470,116 C516.079,152.202 492.131,186.452 520,238 C540.52,275.956 545.125,286.868 575,318 C588.704,332.281 606.714,345.597 620.757,355.039 " fill="none" id="Role-ContactPersonRole" style="stroke: #A80036; stroke-width: 1.0;"/><polygon fill="#A80036" points="624.978,357.842,619.6906,349.5328,620.8118,355.0774,615.2672,356.1987,624.978,357.842" style="stroke: #A80036; stroke-width: 1.0;"/><text fill="#000000" font-family="sans-serif" font-size="13" lengthAdjust="spacingAndGlyphs" textLength="121" x="521" y="233.0669">ContactPersonRole</text><text fill="#000000" font-family="sans-serif" font-size="13" lengthAdjust="spacingAndGlyphs" textLength="8" x="608.0642" y="346.8359">1</text><!--link Role to CounterpartyRisk--><path d="M213.473,64.868 C335.762,67.484 550.336,77.599 617,116 C648.01,133.863 662.754,218.535 663,220 C665.586,235.376 660.874,252.681 656.233,264.921 " fill="none" id="Role-CounterpartyRisk" style="stroke: #A80036; stroke-width: 1.0;"/><polygon fill="#A80036" points="654.27,269.837,661.322,262.9618,656.124,265.1934,653.8923,259.9954,654.27,269.837" style="stroke: #A80036; stroke-width: 1.0;"/><text fill="#000000" font-family="sans-serif" font-size="13" lengthAdjust="spacingAndGlyphs" textLength="109" x="657" y="182.0669">CounterpartyRisk</text><text fill="#000000" font-family="sans-serif" font-size="13" lengthAdjust="spacingAndGlyphs" textLength="24" x="626.5269" y="258.8292">0..1</text><!--link Role to Entry--><path d="M213.435,66.66 C321.201,71.297 496.954,83.692 553,116 C570.964,126.356 584.142,146.811 591.68,161.169 " fill="none" id="Role-Entry" style="stroke: #A80036; stroke-width: 1.0;"/><polygon fill="#A80036" points="594.019,165.781,593.5127,155.9452,591.7561,161.3224,586.3789,159.5658,594.019,165.781" style="stroke: #A80036; stroke-width: 1.0;"/><text fill="#000000" font-family="sans-serif" font-size="13" lengthAdjust="spacingAndGlyphs" textLength="33" x="574" y="129.0669">Entry</text><text fill="#000000" font-family="sans-serif" font-size="13" lengthAdjust="spacingAndGlyphs" textLength="8" x="581.7128" y="155.0119">1</text><!--link SecuritiesOrderPartyRole to SecuritiesOrder--><path d="M150.913,190.11 C186.403,208.964 258.294,247.156 296.611,267.512 " fill="none" id="SecuritiesOrderPartyRole-SecuritiesOrder" style="stroke: #A80036; stroke-width: 1.0;"/><polygon fill="#A80036" points="301.113,269.904,295.0414,262.1493,296.6974,267.5583,291.2883,269.2143,301.113,269.904" style="stroke: #A80036; stroke-width: 1.0;"/><text fill="#000000" font-family="sans-serif" font-size="13" lengthAdjust="spacingAndGlyphs" textLength="99" x="239" y="233.0669">SecuritiesOrder</text><text fill="#000000" font-family="sans-serif" font-size="13" lengthAdjust="spacingAndGlyphs" textLength="7" x="284.3003" y="258.9192">*</text></g></svg>