<?xml version="1.0" encoding="UTF-8" standalone="no"?><svg xmlns="http://www.w3.org/2000/svg" xmlns:xlink="http://www.w3.org/1999/xlink" contentScriptType="application/ecmascript" contentStyleType="text/css" height="480px" preserveAspectRatio="none" style="width:1532px;height:480px;" version="1.1" viewBox="0 0 1532 480" width="1532px" zoomAndPan="magnify"><defs><filter height="300%" id="fsp1j8frticxx" width="300%" x="-1" y="-1"><feGaussianBlur result="blurOut" stdDeviation="2.0"/><feColorMatrix in="blurOut" result="blurOut2" type="matrix" values="0 0 0 0 0 0 0 0 0 0 0 0 0 0 0 0 0 0 .4 0"/><feOffset dx="4.0" dy="4.0" in="blurOut2" result="blurOut3"/><feBlend in="SourceGraphic" in2="blurOut3" mode="normal"/></filter></defs><g><!--cluster ##34514--><!--cluster ##34535--><!--cluster ##34544--><!--class Role--><a target="_top" xlink:actuate="onRequest" xlink:href="../Role.html" xlink:show="new" xlink:title="Role of a party in an activity." xlink:type="simple"><rect fill="#FEFEEE" filter="url(#fsp1j8frticxx)" height="44.7734" id="Role" style="stroke: #A80036; stroke-width: 1.5;" width="175" x="844.75" y="40.5"/><rect fill="#FEFEEE" height="23.9688" style="stroke: #A80036; stroke-width: 1.5;" width="175" x="844.75" y="40.5"/><text fill="#000000" font-family="sans-serif" font-size="12" lengthAdjust="spacingAndGlyphs" textLength="27" x="918.75" y="56.6387">Role</text><line style="stroke: #A80036; stroke-width: 1.5;" x1="845.75" x2="1018.75" y1="64.4688" y2="64.4688"/><ellipse cx="855.75" cy="76.3711" fill="#84BE84" rx="3" ry="3" style="stroke: #038048; stroke-width: 1.0;"/><text fill="#000000" font-family="sans-serif" font-size="11" lengthAdjust="spacingAndGlyphs" textLength="53" x="864.75" y="78.6792">PartyRole</text><text fill="#000000" font-family="sans-serif" font-size="11" font-style="italic" lengthAdjust="spacingAndGlyphs" textLength="92" x="921.75" y="78.6792">(PartyRoleCode)</text></a><!--class SystemPartyRole--><a target="_top" xlink:actuate="onRequest" xlink:href="../SystemPartyRole.html" xlink:show="new" xlink:title="Role played by a party in a system." xlink:type="simple"><rect fill="#FEFECE" filter="url(#fsp1j8frticxx)" height="23.9688" id="SystemPartyRole" style="stroke: #A80036; stroke-width: 1.5;" width="110" x="583" y="166"/><rect fill="#FEFECE" height="23.9688" style="stroke: #A80036; stroke-width: 1.5;" width="110" x="583" y="166"/><text fill="#000000" font-family="sans-serif" font-size="12" lengthAdjust="spacingAndGlyphs" textLength="104" x="586" y="182.1387">SystemPartyRole</text></a><!--class SystemMemberRole--><a target="_top" xlink:actuate="onRequest" xlink:href="../SystemMemberRole.html" xlink:show="new" xlink:title="Information about the members of a system." xlink:type="simple"><rect fill="#FEFEEE" filter="url(#fsp1j8frticxx)" height="23.9688" id="SystemMemberRole" style="stroke: #A80036; stroke-width: 1.5;" width="128" x="38" y="270"/><rect fill="#FEFEEE" height="23.9688" style="stroke: #A80036; stroke-width: 1.5;" width="128" x="38" y="270"/><text fill="#000000" font-family="sans-serif" font-size="12" lengthAdjust="spacingAndGlyphs" textLength="122" x="41" y="286.1387">SystemMemberRole</text></a><!--class TransactionAdministrator--><a target="_top" xlink:actuate="onRequest" xlink:href="../TransactionAdministrator.html" xlink:show="new" xlink:title="Set of integrated applications that provides centralised services such as clearing and settlement." xlink:type="simple"><rect fill="#FEFEEE" filter="url(#fsp1j8frticxx)" height="23.9688" id="TransactionAdministrator" style="stroke: #A80036; stroke-width: 1.5;" width="164" x="201" y="270"/><rect fill="#FEFEEE" height="23.9688" style="stroke: #A80036; stroke-width: 1.5;" width="164" x="201" y="270"/><text fill="#000000" font-family="sans-serif" font-size="12" lengthAdjust="spacingAndGlyphs" textLength="158" x="204" y="286.1387">TransactionAdministrator</text></a><!--class SubmittingPartyRole--><a target="_top" xlink:actuate="onRequest" xlink:href="../SubmittingPartyRole.html" xlink:show="new" xlink:title="Specifies the party which submits trade data sets to a system or to a counterparty." xlink:type="simple"><rect fill="#FEFEEE" filter="url(#fsp1j8frticxx)" height="23.9688" id="SubmittingPartyRole" style="stroke: #A80036; stroke-width: 1.5;" width="132" x="400" y="270"/><rect fill="#FEFEEE" height="23.9688" style="stroke: #A80036; stroke-width: 1.5;" width="132" x="400" y="270"/><text fill="#000000" font-family="sans-serif" font-size="12" lengthAdjust="spacingAndGlyphs" textLength="126" x="403" y="286.1387">SubmittingPartyRole</text></a><!--class TerminalManagerRole--><a target="_top" xlink:actuate="onRequest" xlink:href="../TerminalManagerRole.html" xlink:show="new" xlink:title="Identifies the party which is the terminal manager (TM) to contact for the maintenance." xlink:type="simple"><rect fill="#FEFEEE" filter="url(#fsp1j8frticxx)" height="23.9688" id="TerminalManagerRole" style="stroke: #A80036; stroke-width: 1.5;" width="141" x="567.75" y="270"/><rect fill="#FEFEEE" height="23.9688" style="stroke: #A80036; stroke-width: 1.5;" width="141" x="567.75" y="270"/><text fill="#000000" font-family="sans-serif" font-size="12" lengthAdjust="spacingAndGlyphs" textLength="135" x="570.75" y="286.1387">TerminalManagerRole</text></a><!--class ClearingMemberRole--><a target="_top" xlink:actuate="onRequest" xlink:href="../ClearingMemberRole.html" xlink:show="new" xlink:title="Member of an exchange's clearing corporation, responsible for executing client trades and involved in the clearing of trades." xlink:type="simple"><rect fill="#FEFEEE" filter="url(#fsp1j8frticxx)" height="23.9688" id="ClearingMemberRole" style="stroke: #A80036; stroke-width: 1.5;" width="134" x="744" y="270"/><rect fill="#FEFEEE" height="23.9688" style="stroke: #A80036; stroke-width: 1.5;" width="134" x="744" y="270"/><text fill="#000000" font-family="sans-serif" font-size="12" lengthAdjust="spacingAndGlyphs" textLength="128" x="747" y="286.1387">ClearingMemberRole</text></a><!--class RolePlayer--><a target="_top" xlink:actuate="onRequest" xlink:href="../RolePlayer.html" xlink:show="new" xlink:title="Type of entity that plays a specific role in a specific context." xlink:type="simple"><rect fill="#EEEEEE" filter="url(#fsp1j8frticxx)" height="23.9688" id="RolePlayer" style="stroke: #A80036; stroke-width: 1.5;" width="71" x="1341.75" y="446"/><rect fill="#EEEEEE" height="23.9688" style="stroke: #A80036; stroke-width: 1.5;" width="71" x="1341.75" y="446"/><text fill="#000000" font-family="sans-serif" font-size="12" lengthAdjust="spacingAndGlyphs" textLength="65" x="1344.75" y="462.1387">RolePlayer</text></a><!--class ContactPersonRole--><a target="_top" xlink:actuate="onRequest" xlink:href="../ContactPersonRole.html" xlink:show="new" xlink:title="Person to be contacted in a given organisation. In the corporate action domain (including meeting notifications) , it is the contact person at the party organising the meeting, at the issuer or at an intermediary." xlink:type="simple"><rect fill="#EEEEEE" filter="url(#fsp1j8frticxx)" height="23.9688" id="ContactPersonRole" style="stroke: #A80036; stroke-width: 1.5;" width="126" x="1334" y="360"/><rect fill="#EEEEEE" height="23.9688" style="stroke: #A80036; stroke-width: 1.5;" width="126" x="1334" y="360"/><text fill="#000000" font-family="sans-serif" font-size="12" lengthAdjust="spacingAndGlyphs" textLength="120" x="1337" y="376.1387">ContactPersonRole</text></a><!--class CounterpartyRisk--><a target="_top" xlink:actuate="onRequest" xlink:href="../CounterpartyRisk.html" xlink:show="new" xlink:title="Calculation of the exposure amount that one party has vis-a-vis one counterparty or a central system, based on its credit risk." xlink:type="simple"><rect fill="#EEEEEE" filter="url(#fsp1j8frticxx)" height="23.9688" id="CounterpartyRisk" style="stroke: #A80036; stroke-width: 1.5;" width="113" x="1346.75" y="270"/><rect fill="#EEEEEE" height="23.9688" style="stroke: #A80036; stroke-width: 1.5;" width="113" x="1346.75" y="270"/><text fill="#000000" font-family="sans-serif" font-size="12" lengthAdjust="spacingAndGlyphs" textLength="107" x="1349.75" y="286.1387">CounterpartyRisk</text></a><!--class Entry--><a target="_top" xlink:actuate="onRequest" xlink:href="../Entry.html" xlink:show="new" xlink:title="Posting to an account that results in an increase or decrease to a balance." xlink:type="simple"><rect fill="#EEEEEE" filter="url(#fsp1j8frticxx)" height="23.9688" id="Entry" style="stroke: #A80036; stroke-width: 1.5;" width="38" x="1334" y="166"/><rect fill="#EEEEEE" height="23.9688" style="stroke: #A80036; stroke-width: 1.5;" width="38" x="1334" y="166"/><text fill="#000000" font-family="sans-serif" font-size="12" lengthAdjust="spacingAndGlyphs" textLength="32" x="1337" y="182.1387">Entry</text></a><!--class System--><a target="_top" xlink:actuate="onRequest" xlink:href="../System.html" xlink:show="new" xlink:title="Set of integrated applications that provides centralised services such as clearing, netting, reconciliation, trading and/or settlement." xlink:type="simple"><rect fill="#EEEEEE" filter="url(#fsp1j8frticxx)" height="23.9688" id="System" style="stroke: #A80036; stroke-width: 1.5;" width="51" x="1076.75" y="270"/><rect fill="#EEEEEE" height="23.9688" style="stroke: #A80036; stroke-width: 1.5;" width="51" x="1076.75" y="270"/><text fill="#000000" font-family="sans-serif" font-size="12" lengthAdjust="spacingAndGlyphs" textLength="45" x="1079.75" y="286.1387">System</text></a><!--link Role to SystemPartyRole--><path d="M857.206,92.747 C795.344,116.524 710.785,149.025 666.971,165.865 " fill="none" id="Role-SystemPartyRole" style="stroke: #A80036; stroke-width: 1.0;"/><polygon fill="none" points="854.829,86.162,876.009,85.52,859.852,99.23,854.829,86.162" style="stroke: #A80036; stroke-width: 1.0;"/><!--link SystemPartyRole to SystemMemberRole--><path d="M562.669,184.034 C471.38,191.51 313.566,208.874 183,246 C162.076,251.95 139.443,262.068 123.434,269.899 " fill="none" id="SystemPartyRole-SystemMemberRole" style="stroke: #A80036; stroke-width: 1.0;"/><polygon fill="none" points="562.261,177.044,582.746,182.462,563.354,191.001,562.261,177.044" style="stroke: #A80036; stroke-width: 1.0;"/><!--link SystemPartyRole to TransactionAdministrator--><path d="M571.506,194.779 C519.579,207.492 445.779,226.418 382,246 C358.299,253.277 331.84,262.7 312.242,269.935 " fill="none" id="SystemPartyRole-TransactionAdministrator" style="stroke: #A80036; stroke-width: 1.0;"/><polygon fill="none" points="569.867,187.974,590.954,190.058,573.17,201.579,569.867,187.974" style="stroke: #A80036; stroke-width: 1.0;"/><!--link SystemPartyRole to SubmittingPartyRole--><path d="M601.935,200.387 C566.159,221.603 512.743,253.28 484.711,269.904 " fill="none" id="SystemPartyRole-SubmittingPartyRole" style="stroke: #A80036; stroke-width: 1.0;"/><polygon fill="none" points="598.492,194.291,619.266,190.11,605.634,206.332,598.492,194.291" style="stroke: #A80036; stroke-width: 1.0;"/><!--link SystemPartyRole to TerminalManagerRole--><path d="M638,210.595 C638,230.825 638,255.843 638,269.954 " fill="none" id="SystemPartyRole-TerminalManagerRole" style="stroke: #A80036; stroke-width: 1.0;"/><polygon fill="none" points="631,210.306,638,190.306,645,210.305,631,210.306" style="stroke: #A80036; stroke-width: 1.0;"/><!--link SystemPartyRole to ClearingMemberRole--><path d="M674.274,200.387 C710.258,221.603 763.986,253.28 792.18,269.904 " fill="none" id="SystemPartyRole-ClearingMemberRole" style="stroke: #A80036; stroke-width: 1.0;"/><polygon fill="none" points="670.517,206.298,656.843,190.11,677.627,194.238,670.517,206.298" style="stroke: #A80036; stroke-width: 1.0;"/><!--link ContactPersonRole to RolePlayer--><!--link CounterpartyRisk to ContactPersonRole--><!--link Entry to CounterpartyRisk--><!--link Role to RolePlayer--><path d="M1019.47,66.182 C1097,73.338 1198,97.849 1198,177 C1198,177 1198,177 1198,373 C1198,433.8572 1283.84,450.7099 1336.63,455.3199 " fill="none" id="Role-RolePlayer" style="stroke: #A80036; stroke-width: 1.0;"/><polygon fill="#A80036" points="1341.64,455.7288,1332.9889,451.0215,1336.656,455.3288,1332.3488,458.9959,1341.64,455.7288" style="stroke: #A80036; stroke-width: 1.0;"/><text fill="#000000" font-family="sans-serif" font-size="13" lengthAdjust="spacingAndGlyphs" textLength="39" x="1199" y="286.0669">Player</text><text fill="#000000" font-family="sans-serif" font-size="13" lengthAdjust="spacingAndGlyphs" textLength="7" x="1326.7461" y="449.9585">*</text><!--link Role to ContactPersonRole--><path d="M1019.43,70.328 C1093.75,77.339 1193.15,91.099 1224,116 C1269.6,152.803 1246.43,186.293 1274,238 C1294.65,276.722 1298.8,288.163 1329,320 C1342.62,334.359 1360.64,347.672 1374.7,357.092 " fill="none" id="Role-ContactPersonRole" style="stroke: #A80036; stroke-width: 1.0;"/><polygon fill="#A80036" points="1378.93,359.888,1373.6274,351.5884,1374.7588,357.131,1369.2162,358.2624,1378.93,359.888" style="stroke: #A80036; stroke-width: 1.0;"/><text fill="#000000" font-family="sans-serif" font-size="13" lengthAdjust="spacingAndGlyphs" textLength="121" x="1275" y="233.0669">ContactPersonRole</text><text fill="#000000" font-family="sans-serif" font-size="13" lengthAdjust="spacingAndGlyphs" textLength="8" x="1361.9997" y="348.8977">1</text><!--link Role to CounterpartyRisk--><path d="M1019.57,66.183 C1130.21,70.329 1313.18,82.217 1371,116 C1402.06,134.148 1416.88,219.265 1417,220 C1419.59,235.376 1414.87,252.681 1410.23,264.921 " fill="none" id="Role-CounterpartyRisk" style="stroke: #A80036; stroke-width: 1.0;"/><polygon fill="#A80036" points="1408.27,269.837,1415.3228,262.9625,1410.1245,265.1936,1407.8934,259.9953,1408.27,269.837" style="stroke: #A80036; stroke-width: 1.0;"/><text fill="#000000" font-family="sans-serif" font-size="13" lengthAdjust="spacingAndGlyphs" textLength="109" x="1411" y="182.0669">CounterpartyRisk</text><text fill="#000000" font-family="sans-serif" font-size="13" lengthAdjust="spacingAndGlyphs" textLength="24" x="1380.5269" y="258.8292">0..1</text><!--link Role to Entry--><path d="M1019.3,68.404 C1114.52,74.539 1259.68,88.197 1307,116 C1324.88,126.504 1338.07,146.927 1345.64,161.237 " fill="none" id="Role-Entry" style="stroke: #A80036; stroke-width: 1.0;"/><polygon fill="#A80036" points="1347.99,165.832,1347.4471,155.9981,1345.7105,161.3818,1340.3268,159.6453,1347.99,165.832" style="stroke: #A80036; stroke-width: 1.0;"/><text fill="#000000" font-family="sans-serif" font-size="13" lengthAdjust="spacingAndGlyphs" textLength="33" x="1328" y="129.0669">Entry</text><text fill="#000000" font-family="sans-serif" font-size="13" lengthAdjust="spacingAndGlyphs" textLength="8" x="1335.5491" y="154.8225">1</text><!--link SystemPartyRole to System--><path d="M693.107,182.679 C771.201,189.135 917.727,205.86 1036,246 C1051.53,251.272 1067.83,259.876 1080.34,267.235 " fill="none" id="SystemPartyRole-System" style="stroke: #A80036; stroke-width: 1.0;"/><polygon fill="#A80036" points="1084.77,269.881,1079.0849,261.8386,1080.4744,267.3222,1074.9908,268.7117,1084.77,269.881" style="stroke: #A80036; stroke-width: 1.0;"/><text fill="#000000" font-family="sans-serif" font-size="13" lengthAdjust="spacingAndGlyphs" textLength="97" x="1006" y="233.0669">RelatedSystem</text><text fill="#000000" font-family="sans-serif" font-size="13" lengthAdjust="spacingAndGlyphs" textLength="23" x="1050.4644" y="258.8883">1..*</text><!--link ClearingMemberRole to ClearingMemberRole--><path d="M878.196,273.401 C897.809,273.698 913,276.564 913,282 C913,286.926 900.523,289.742 883.587,290.448 " fill="none" id="ClearingMemberRole-ClearingMemberRole" style="stroke: #A80036; stroke-width: 1.0;"/><polygon fill="#A80036" points="878.196,290.599,887.3045,294.3455,883.194,290.459,887.0805,286.3486,878.196,290.599" style="stroke: #A80036; stroke-width: 1.0;"/><text fill="#000000" font-family="sans-serif" font-size="13" lengthAdjust="spacingAndGlyphs" textLength="111" x="919" y="286.0669">ClearingSegment</text><text fill="#000000" font-family="sans-serif" font-size="13" lengthAdjust="spacingAndGlyphs" textLength="8" x="885.9831" y="286.6857">1</text></g></svg>