<?xml version="1.0" encoding="UTF-8" standalone="no"?><svg xmlns="http://www.w3.org/2000/svg" xmlns:xlink="http://www.w3.org/1999/xlink" contentScriptType="application/ecmascript" contentStyleType="text/css" height="516px" preserveAspectRatio="none" style="width:2334px;height:516px;" version="1.1" viewBox="0 0 2334 516" width="2334px" zoomAndPan="magnify"><defs><filter height="300%" id="f1l40tt9bqbgrg" width="300%" x="-1" y="-1"><feGaussianBlur result="blurOut" stdDeviation="2.0"/><feColorMatrix in="blurOut" result="blurOut2" type="matrix" values="0 0 0 0 0 0 0 0 0 0 0 0 0 0 0 0 0 0 .4 0"/><feOffset dx="4.0" dy="4.0" in="blurOut2" result="blurOut3"/><feBlend in="SourceGraphic" in2="blurOut3" mode="normal"/></filter></defs><g><!--cluster ##20337--><!--cluster ##20376--><!--cluster ##20385--><!--class Role--><a target="_top" xlink:actuate="onRequest" xlink:href="../Role.html" xlink:show="new" xlink:title="Role of a party in an activity." xlink:type="simple"><rect fill="#FEFEEE" filter="url(#f1l40tt9bqbgrg)" height="44.7734" id="Role" style="stroke: #A80036; stroke-width: 1.5;" width="175" x="1315.75" y="40.5"/><rect fill="#FEFEEE" height="23.9688" style="stroke: #A80036; stroke-width: 1.5;" width="175" x="1315.75" y="40.5"/><text fill="#000000" font-family="sans-serif" font-size="12" lengthAdjust="spacingAndGlyphs" textLength="27" x="1389.75" y="56.6387">Role</text><line style="stroke: #A80036; stroke-width: 1.5;" x1="1316.75" x2="1489.75" y1="64.4688" y2="64.4688"/><ellipse cx="1326.75" cy="76.3711" fill="#84BE84" rx="3" ry="3" style="stroke: #038048; stroke-width: 1.0;"/><text fill="#000000" font-family="sans-serif" font-size="11" lengthAdjust="spacingAndGlyphs" textLength="53" x="1335.75" y="78.6792">PartyRole</text><text fill="#000000" font-family="sans-serif" font-size="11" font-style="italic" lengthAdjust="spacingAndGlyphs" textLength="92" x="1392.75" y="78.6792">(PartyRoleCode)</text></a><!--class TradePartyRole--><a target="_top" xlink:actuate="onRequest" xlink:href="../TradePartyRole.html" xlink:show="new" xlink:title="Trading party in a commercial, securities, treasury trade. This role may also represent parties which play different intermediary roles in a trade." xlink:type="simple"><rect fill="#FEFECE" filter="url(#f1l40tt9bqbgrg)" height="57.5781" id="TradePartyRole" style="stroke: #A80036; stroke-width: 1.5;" width="279" x="750.75" y="164"/><rect fill="#FEFECE" height="23.9688" style="stroke: #A80036; stroke-width: 1.5;" width="279" x="750.75" y="164"/><text fill="#000000" font-family="sans-serif" font-size="12" lengthAdjust="spacingAndGlyphs" textLength="95" x="842.75" y="180.1387">TradePartyRole</text><line style="stroke: #A80036; stroke-width: 1.5;" x1="751.75" x2="1028.75" y1="187.9688" y2="187.9688"/><ellipse cx="761.75" cy="199.8711" fill="#84BE84" rx="3" ry="3" style="stroke: #038048; stroke-width: 1.0;"/><text fill="#000000" font-family="sans-serif" font-size="11" lengthAdjust="spacingAndGlyphs" textLength="120" x="770.75" y="202.1792">TradingPartyCapacity</text><text fill="#000000" font-family="sans-serif" font-size="11" font-style="italic" lengthAdjust="spacingAndGlyphs" textLength="129" x="894.75" y="202.1792">(TradingCapacityCode)</text><ellipse cx="761.75" cy="212.6758" fill="#84BE84" rx="3" ry="3" style="stroke: #038048; stroke-width: 1.0;"/><text fill="#000000" font-family="sans-serif" font-size="11" lengthAdjust="spacingAndGlyphs" textLength="80" x="770.75" y="214.9839">BuyerOrSeller</text><text fill="#000000" font-family="sans-serif" font-size="11" font-style="italic" lengthAdjust="spacingAndGlyphs" textLength="104" x="854.75" y="214.9839">(OptionPartyCode)</text></a><!--class InvestorRole--><a target="_top" xlink:actuate="onRequest" xlink:href="../InvestorRole.html" xlink:show="new" xlink:title="Party that makes investment decisions. Identifies the beneficiary or its broker." xlink:type="simple"><rect fill="#FEFEEE" filter="url(#f1l40tt9bqbgrg)" height="23.9688" id="InvestorRole" style="stroke: #A80036; stroke-width: 1.5;" width="83" x="38.75" y="302"/><rect fill="#FEFEEE" height="23.9688" style="stroke: #A80036; stroke-width: 1.5;" width="83" x="38.75" y="302"/><text fill="#000000" font-family="sans-serif" font-size="12" lengthAdjust="spacingAndGlyphs" textLength="77" x="41.75" y="318.1387">InvestorRole</text></a><!--class TradeOriginatorRole--><a target="_top" xlink:actuate="onRequest" xlink:href="../TradeOriginatorRole.html" xlink:show="new" xlink:title="Specifies the trading party at the source of the transaction." xlink:type="simple"><rect fill="#FEFEEE" filter="url(#f1l40tt9bqbgrg)" height="23.9688" id="TradeOriginatorRole" style="stroke: #A80036; stroke-width: 1.5;" width="131" x="156.75" y="302"/><rect fill="#FEFEEE" height="23.9688" style="stroke: #A80036; stroke-width: 1.5;" width="131" x="156.75" y="302"/><text fill="#000000" font-family="sans-serif" font-size="12" lengthAdjust="spacingAndGlyphs" textLength="125" x="159.75" y="318.1387">TradeOriginatorRole</text></a><!--class SecuritiesTradePartyRole--><a target="_top" xlink:actuate="onRequest" xlink:href="../SecuritiesTradePartyRole.html" xlink:show="new" xlink:title="Role played by a party in the context of a securities trade." xlink:type="simple"><rect fill="#FEFEEE" filter="url(#f1l40tt9bqbgrg)" height="23.9688" id="SecuritiesTradePartyRole" style="stroke: #A80036; stroke-width: 1.5;" width="163" x="322.75" y="302"/><rect fill="#FEFEEE" height="23.9688" style="stroke: #A80036; stroke-width: 1.5;" width="163" x="322.75" y="302"/><text fill="#000000" font-family="sans-serif" font-size="12" lengthAdjust="spacingAndGlyphs" textLength="157" x="325.75" y="318.1387">SecuritiesTradePartyRole</text></a><!--class BuyerRole--><a target="_top" xlink:actuate="onRequest" xlink:href="../BuyerRole.html" xlink:show="new" xlink:title="Party that buys assets, good or services." xlink:type="simple"><rect fill="#FEFEEE" filter="url(#f1l40tt9bqbgrg)" height="23.9688" id="BuyerRole" style="stroke: #A80036; stroke-width: 1.5;" width="68" x="521" y="302"/><rect fill="#FEFEEE" height="23.9688" style="stroke: #A80036; stroke-width: 1.5;" width="68" x="521" y="302"/><text fill="#000000" font-family="sans-serif" font-size="12" lengthAdjust="spacingAndGlyphs" textLength="62" x="524" y="318.1387">BuyerRole</text></a><!--class Borrower--><a target="_top" xlink:actuate="onRequest" xlink:href="../Borrower.html" xlink:show="new" xlink:title="Party that has applied, met specific requirements, and received a monetary or securities loan from a lender." xlink:type="simple"><rect fill="#FEFEEE" filter="url(#f1l40tt9bqbgrg)" height="23.9688" id="Borrower" style="stroke: #A80036; stroke-width: 1.5;" width="62" x="624.5" y="302"/><rect fill="#FEFEEE" height="23.9688" style="stroke: #A80036; stroke-width: 1.5;" width="62" x="624.5" y="302"/><text fill="#000000" font-family="sans-serif" font-size="12" lengthAdjust="spacingAndGlyphs" textLength="56" x="627.5" y="318.1387">Borrower</text></a><!--class SellerRole--><a target="_top" xlink:actuate="onRequest" xlink:href="../SellerRole.html" xlink:show="new" xlink:title="Party that sells assets, goods or services." xlink:type="simple"><rect fill="#FEFEEE" filter="url(#f1l40tt9bqbgrg)" height="23.9688" id="SellerRole" style="stroke: #A80036; stroke-width: 1.5;" width="68" x="721" y="302"/><rect fill="#FEFEEE" height="23.9688" style="stroke: #A80036; stroke-width: 1.5;" width="68" x="721" y="302"/><text fill="#000000" font-family="sans-serif" font-size="12" lengthAdjust="spacingAndGlyphs" textLength="62" x="724" y="318.1387">SellerRole</text></a><!--class Lender--><a target="_top" xlink:actuate="onRequest" xlink:href="../Lender.html" xlink:show="new" xlink:title="Party that has accepted under specific requirements to provide a monetary or securities loan to a borrower." xlink:type="simple"><rect fill="#FEFEEE" filter="url(#f1l40tt9bqbgrg)" height="23.9688" id="Lender" style="stroke: #A80036; stroke-width: 1.5;" width="49" x="824.75" y="302"/><rect fill="#FEFEEE" height="23.9688" style="stroke: #A80036; stroke-width: 1.5;" width="49" x="824.75" y="302"/><text fill="#000000" font-family="sans-serif" font-size="12" lengthAdjust="spacingAndGlyphs" textLength="43" x="827.75" y="318.1387">Lender</text></a><!--class Broker--><a target="_top" xlink:actuate="onRequest" xlink:href="../Broker.html" xlink:show="new" xlink:title="Party that identifies a broker when required (for example, authorised broker, prime broker, etc)." xlink:type="simple"><rect fill="#FEFEEE" filter="url(#f1l40tt9bqbgrg)" height="23.9688" id="Broker" style="stroke: #A80036; stroke-width: 1.5;" width="47" x="908.75" y="302"/><rect fill="#FEFEEE" height="23.9688" style="stroke: #A80036; stroke-width: 1.5;" width="47" x="908.75" y="302"/><text fill="#000000" font-family="sans-serif" font-size="12" lengthAdjust="spacingAndGlyphs" textLength="41" x="911.75" y="318.1387">Broker</text></a><!--class TreasuryTradePartyRole--><a target="_top" xlink:actuate="onRequest" xlink:href="../TreasuryTradePartyRole.html" xlink:show="new" xlink:title="Role played by a party in the context of a treasury trade." xlink:type="simple"><rect fill="#FEFEEE" filter="url(#f1l40tt9bqbgrg)" height="23.9688" id="TreasuryTradePartyRole" style="stroke: #A80036; stroke-width: 1.5;" width="155" x="990.75" y="302"/><rect fill="#FEFEEE" height="23.9688" style="stroke: #A80036; stroke-width: 1.5;" width="155" x="990.75" y="302"/><text fill="#000000" font-family="sans-serif" font-size="12" lengthAdjust="spacingAndGlyphs" textLength="149" x="993.75" y="318.1387">TreasuryTradePartyRole</text></a><!--class CommercialTradePartyRole--><a target="_top" xlink:actuate="onRequest" xlink:href="../CommercialTradePartyRole.html" xlink:show="new" xlink:title="Role played by a party in the context of a trade." xlink:type="simple"><rect fill="#FEFEEE" filter="url(#f1l40tt9bqbgrg)" height="23.9688" id="CommercialTradePartyRole" style="stroke: #A80036; stroke-width: 1.5;" width="173" x="1180.75" y="302"/><rect fill="#FEFEEE" height="23.9688" style="stroke: #A80036; stroke-width: 1.5;" width="173" x="1180.75" y="302"/><text fill="#000000" font-family="sans-serif" font-size="12" lengthAdjust="spacingAndGlyphs" textLength="167" x="1183.75" y="318.1387">CommercialTradePartyRole</text></a><!--class StockExchange--><a target="_top" xlink:actuate="onRequest" xlink:href="../StockExchange.html" xlink:show="new" xlink:title="Party that identifies the stock exchange." xlink:type="simple"><rect fill="#FEFEEE" filter="url(#f1l40tt9bqbgrg)" height="23.9688" id="StockExchange" style="stroke: #A80036; stroke-width: 1.5;" width="102" x="1389.5" y="302"/><rect fill="#FEFEEE" height="23.9688" style="stroke: #A80036; stroke-width: 1.5;" width="102" x="1389.5" y="302"/><text fill="#000000" font-family="sans-serif" font-size="12" lengthAdjust="spacingAndGlyphs" textLength="96" x="1392.5" y="318.1387">StockExchange</text></a><!--class RolePlayer--><a target="_top" xlink:actuate="onRequest" xlink:href="../RolePlayer.html" xlink:show="new" xlink:title="Type of entity that plays a specific role in a specific context." xlink:type="simple"><rect fill="#EEEEEE" filter="url(#f1l40tt9bqbgrg)" height="23.9688" id="RolePlayer" style="stroke: #A80036; stroke-width: 1.5;" width="71" x="1909.75" y="482"/><rect fill="#EEEEEE" height="23.9688" style="stroke: #A80036; stroke-width: 1.5;" width="71" x="1909.75" y="482"/><text fill="#000000" font-family="sans-serif" font-size="12" lengthAdjust="spacingAndGlyphs" textLength="65" x="1912.75" y="498.1387">RolePlayer</text></a><!--class ContactPersonRole--><a target="_top" xlink:actuate="onRequest" xlink:href="../ContactPersonRole.html" xlink:show="new" xlink:title="Person to be contacted in a given organisation. In the corporate action domain (including meeting notifications) , it is the contact person at the party organising the meeting, at the issuer or at an intermediary." xlink:type="simple"><rect fill="#EEEEEE" filter="url(#f1l40tt9bqbgrg)" height="23.9688" id="ContactPersonRole" style="stroke: #A80036; stroke-width: 1.5;" width="126" x="1862" y="392"/><rect fill="#EEEEEE" height="23.9688" style="stroke: #A80036; stroke-width: 1.5;" width="126" x="1862" y="392"/><text fill="#000000" font-family="sans-serif" font-size="12" lengthAdjust="spacingAndGlyphs" textLength="120" x="1865" y="408.1387">ContactPersonRole</text></a><!--class CounterpartyRisk--><a target="_top" xlink:actuate="onRequest" xlink:href="../CounterpartyRisk.html" xlink:show="new" xlink:title="Calculation of the exposure amount that one party has vis-a-vis one counterparty or a central system, based on its credit risk." xlink:type="simple"><rect fill="#EEEEEE" filter="url(#f1l40tt9bqbgrg)" height="23.9688" id="CounterpartyRisk" style="stroke: #A80036; stroke-width: 1.5;" width="113" x="1874.75" y="302"/><rect fill="#EEEEEE" height="23.9688" style="stroke: #A80036; stroke-width: 1.5;" width="113" x="1874.75" y="302"/><text fill="#000000" font-family="sans-serif" font-size="12" lengthAdjust="spacingAndGlyphs" textLength="107" x="1877.75" y="318.1387">CounterpartyRisk</text></a><!--class Entry--><a target="_top" xlink:actuate="onRequest" xlink:href="../Entry.html" xlink:show="new" xlink:title="Posting to an account that results in an increase or decrease to a balance." xlink:type="simple"><rect fill="#EEEEEE" filter="url(#f1l40tt9bqbgrg)" height="23.9688" id="Entry" style="stroke: #A80036; stroke-width: 1.5;" width="38" x="1862" y="181"/><rect fill="#EEEEEE" height="23.9688" style="stroke: #A80036; stroke-width: 1.5;" width="38" x="1862" y="181"/><text fill="#000000" font-family="sans-serif" font-size="12" lengthAdjust="spacingAndGlyphs" textLength="32" x="1865" y="197.1387">Entry</text></a><!--class Account--><a target="_top" xlink:actuate="onRequest" xlink:href="../Account.html" xlink:show="new" xlink:title="Record of transactions in specific types of assets, maintained by a servicing party on behalf of one or more owning parties. Business relationship between an account servicer and one or more account owners." xlink:type="simple"><rect fill="#EEEEEE" filter="url(#f1l40tt9bqbgrg)" height="23.9688" id="Account" style="stroke: #A80036; stroke-width: 1.5;" width="57" x="1547.75" y="392"/><rect fill="#EEEEEE" height="23.9688" style="stroke: #A80036; stroke-width: 1.5;" width="57" x="1547.75" y="392"/><text fill="#000000" font-family="sans-serif" font-size="12" lengthAdjust="spacingAndGlyphs" textLength="51" x="1550.75" y="408.1387">Account</text></a><!--class Trade--><a target="_top" xlink:actuate="onRequest" xlink:href="../Trade.html" xlink:show="new" xlink:title="Result of an order between at least two parties. A trade relates to the delivery of goods and services, cash or securities." xlink:type="simple"><rect fill="#EEEEEE" filter="url(#f1l40tt9bqbgrg)" height="23.9688" id="Trade" style="stroke: #A80036; stroke-width: 1.5;" width="42" x="1547.5" y="302"/><rect fill="#EEEEEE" height="23.9688" style="stroke: #A80036; stroke-width: 1.5;" width="42" x="1547.5" y="302"/><text fill="#000000" font-family="sans-serif" font-size="12" lengthAdjust="spacingAndGlyphs" textLength="36" x="1550.5" y="318.1387">Trade</text></a><!--link Role to TradePartyRole--><path d="M1297.13,90.416 C1211.13,111.875 1090.14,142.063 1002.421,163.95 " fill="none" id="Role-TradePartyRole" style="stroke: #A80036; stroke-width: 1.0;"/><polygon fill="none" points="1295.46,83.619,1316.56,85.569,1298.85,97.202,1295.46,83.619" style="stroke: #A80036; stroke-width: 1.0;"/><!--link TradePartyRole to InvestorRole--><path d="M730.533,209.006 C617.944,219.956 463.596,235.681 328,252 C243.816,262.131 219.048,250.038 139,278 C123.034,283.577 106.627,293.736 95.1812,301.678 " fill="none" id="TradePartyRole-InvestorRole" style="stroke: #A80036; stroke-width: 1.0;"/><polygon fill="none" points="730.12,202.014,750.702,207.053,731.47,215.948,730.12,202.014" style="stroke: #A80036; stroke-width: 1.0;"/><!--link TradePartyRole to TradeOriginatorRole--><path d="M730.378,205.796 C611.471,217.249 446.004,238.849 305,278 C283.603,283.941 260.406,294.06 243.989,301.894 " fill="none" id="TradePartyRole-TradeOriginatorRole" style="stroke: #A80036; stroke-width: 1.0;"/><polygon fill="none" points="729.968,198.804,750.533,203.909,731.273,212.743,729.968,198.804" style="stroke: #A80036; stroke-width: 1.0;"/><!--link TradePartyRole to SecuritiesTradePartyRole--><path d="M730.596,223.702 C660.289,238.058 576.994,256.783 503,278 C478.817,284.934 451.938,294.563 432.297,301.966 " fill="none" id="TradePartyRole-SecuritiesTradePartyRole" style="stroke: #A80036; stroke-width: 1.0;"/><polygon fill="none" points="729.548,216.773,750.538,219.676,732.319,230.496,729.548,216.773" style="stroke: #A80036; stroke-width: 1.0;"/><!--link TradePartyRole to BuyerRole--><path d="M745.265,227.346 C699.583,240.348 649.664,257.202 606,278 C592.427,284.465 578.447,294.326 568.564,301.936 " fill="none" id="TradePartyRole-BuyerRole" style="stroke: #A80036; stroke-width: 1.0;"/><polygon fill="none" points="743.41,220.596,764.553,222.01,747.144,234.089,743.41,220.596" style="stroke: #A80036; stroke-width: 1.0;"/><!--link TradePartyRole to Borrower--><path d="M799.659,230.06 C768.347,243.731 733.473,260.304 703,278 C690.871,285.044 678.082,294.481 668.757,301.782 " fill="none" id="TradePartyRole-Borrower" style="stroke: #A80036; stroke-width: 1.0;"/><polygon fill="none" points="796.982,223.592,818.122,222.149,802.495,236.46,796.982,223.592" style="stroke: #A80036; stroke-width: 1.0;"/><!--link TradePartyRole to SellerRole--><path d="M842.974,235.452 C816.272,258.989 784.849,286.689 767.718,301.79 " fill="none" id="TradePartyRole-SellerRole" style="stroke: #A80036; stroke-width: 1.0;"/><polygon fill="none" points="838.375,230.175,858.007,222.201,847.632,240.678,838.375,230.175" style="stroke: #A80036; stroke-width: 1.0;"/><!--link TradePartyRole to Lender--><path d="M873.761,241.132 C866.12,263.311 857.652,287.888 852.862,301.79 " fill="none" id="TradePartyRole-Lender" style="stroke: #A80036; stroke-width: 1.0;"/><polygon fill="none" points="867.15,238.83,880.284,222.201,880.387,243.391,867.15,238.83" style="stroke: #A80036; stroke-width: 1.0;"/><!--link TradePartyRole to Broker--><path d="M906.635,241.132 C914.463,263.311 923.137,287.888 928.043,301.79 " fill="none" id="TradePartyRole-Broker" style="stroke: #A80036; stroke-width: 1.0;"/><polygon fill="none" points="900.009,243.391,899.953,222.201,913.211,238.731,900.009,243.391" style="stroke: #A80036; stroke-width: 1.0;"/><!--link TradePartyRole to TreasuryTradePartyRole--><path d="M949.058,233.483 C984.873,257.426 1028.01,286.265 1051.23,301.79 " fill="none" id="TradePartyRole-TreasuryTradePartyRole" style="stroke: #A80036; stroke-width: 1.0;"/><polygon fill="none" points="944.92,239.136,932.184,222.201,952.701,227.498,944.92,239.136" style="stroke: #A80036; stroke-width: 1.0;"/><!--link TradePartyRole to CommercialTradePartyRole--><path d="M1002.095,228.005 C1051.24,243.073 1109.56,261.166 1162,278 C1186.33,285.812 1213.72,294.954 1234.43,301.935 " fill="none" id="TradePartyRole-CommercialTradePartyRole" style="stroke: #A80036; stroke-width: 1.0;"/><polygon fill="none" points="999.769,234.614,982.692,222.068,1003.865,221.226,999.769,234.614" style="stroke: #A80036; stroke-width: 1.0;"/><!--link TradePartyRole to StockExchange--><path d="M1049.53,210.13 C1144.31,222.6 1265.94,243.694 1370,278 C1388.32,284.041 1407.86,294.149 1421.62,301.953 " fill="none" id="TradePartyRole-StockExchange" style="stroke: #A80036; stroke-width: 1.0;"/><polygon fill="none" points="1048.37,217.039,1029.42,207.561,1050.14,203.152,1048.37,217.039" style="stroke: #A80036; stroke-width: 1.0;"/><!--link ContactPersonRole to RolePlayer--><!--link CounterpartyRisk to ContactPersonRole--><!--link Entry to CounterpartyRisk--><!--link Trade to Account--><!--link Role to RolePlayer--><path d="M1490.5,67.652 C1712.83,78.094 2282,112.58 2282,192 C2282,192 2282,192 2282,405 C2282,465.6217 2075.27,485.2654 1985.64,490.9332 " fill="none" id="Role-RolePlayer" style="stroke: #A80036; stroke-width: 1.0;"/><polygon fill="#A80036" points="1980.43,491.2555,1989.6636,494.6819,1985.4201,490.9412,1989.1608,486.6977,1980.43,491.2555" style="stroke: #A80036; stroke-width: 1.0;"/><text fill="#000000" font-family="sans-serif" font-size="13" lengthAdjust="spacingAndGlyphs" textLength="39" x="2283" y="318.0669">Player</text><text fill="#000000" font-family="sans-serif" font-size="13" lengthAdjust="spacingAndGlyphs" textLength="7" x="1988.8913" y="484.8806">*</text><!--link Role to ContactPersonRole--><path d="M1490.48,69.732 C1661.57,81.876 2026.97,112.754 2062,157 C2105.69,212.176 2009.19,343.87 2004,350 C1989.95,366.59 1969.46,380.131 1952.87,389.373 " fill="none" id="Role-ContactPersonRole" style="stroke: #A80036; stroke-width: 1.0;"/><polygon fill="#A80036" points="1948.31,391.865,1958.1276,391.0808,1952.7029,389.477,1954.3067,384.0522,1948.31,391.865" style="stroke: #A80036; stroke-width: 1.0;"/><text fill="#000000" font-family="sans-serif" font-size="13" lengthAdjust="spacingAndGlyphs" textLength="121" x="2060" y="265.0669">ContactPersonRole</text><text fill="#000000" font-family="sans-serif" font-size="13" lengthAdjust="spacingAndGlyphs" textLength="8" x="1945.6041" y="380.8668">1</text><!--link Role to CounterpartyRisk--><path d="M1490.42,67.348 C1621.91,74.357 1861.2,95.437 1917,157 C1952.39,196.043 1942.22,265.369 1935.19,296.757 " fill="none" id="Role-CounterpartyRisk" style="stroke: #A80036; stroke-width: 1.0;"/><polygon fill="#A80036" points="1934.01,301.81,1939.9512,293.9549,1935.1466,296.9409,1932.1606,292.1363,1934.01,301.81" style="stroke: #A80036; stroke-width: 1.0;"/><text fill="#000000" font-family="sans-serif" font-size="13" lengthAdjust="spacingAndGlyphs" textLength="109" x="1943" y="197.0669">CounterpartyRisk</text><text fill="#000000" font-family="sans-serif" font-size="13" lengthAdjust="spacingAndGlyphs" textLength="24" x="1905.618" y="291.0505">0..1</text><!--link Role to Entry--><path d="M1483.55,85.569 C1594.53,115.289 1788.49,167.227 1856.55,185.453 " fill="none" id="Role-Entry" style="stroke: #A80036; stroke-width: 1.0;"/><polygon fill="#A80036" points="1861.61,186.808,1853.9418,180.6275,1856.7783,185.5218,1851.8839,188.3583,1861.61,186.808" style="stroke: #A80036; stroke-width: 1.0;"/><text fill="#000000" font-family="sans-serif" font-size="13" lengthAdjust="spacingAndGlyphs" textLength="33" x="1658" y="129.0669">Entry</text><text fill="#000000" font-family="sans-serif" font-size="13" lengthAdjust="spacingAndGlyphs" textLength="8" x="1846.0552" y="178.9485">1</text><!--link TradePartyRole to Account--><path d="M1029.55,199.654 C1228,209.269 1571.59,232.364 1605,278 C1629.4,311.338 1603.23,361.975 1586.95,387.351 " fill="none" id="TradePartyRole-Account" style="stroke: #A80036; stroke-width: 1.0;"/><polygon fill="#A80036" points="1584.04,391.785,1592.3185,386.4496,1586.7805,387.6029,1585.6272,382.0649,1584.04,391.785" style="stroke: #A80036; stroke-width: 1.0;"/><text fill="#000000" font-family="sans-serif" font-size="13" lengthAdjust="spacingAndGlyphs" textLength="52" x="1616" y="318.0669">Account</text><text fill="#000000" font-family="sans-serif" font-size="13" lengthAdjust="spacingAndGlyphs" textLength="7" x="1577.1298" y="381.0172">*</text><!--link TradePartyRole to Trade--><path d="M1029.5,197.76 C1156.89,204.724 1348.89,224.176 1507,278 C1521.59,282.967 1536.63,291.547 1548.12,298.968 " fill="none" id="TradePartyRole-Trade" style="stroke: #A80036; stroke-width: 1.0;"/><polygon fill="#A80036" points="1552.5,301.851,1547.1724,293.5675,1548.3205,299.1066,1542.7814,300.2547,1552.5,301.851" style="stroke: #A80036; stroke-width: 1.0;"/><text fill="#000000" font-family="sans-serif" font-size="13" lengthAdjust="spacingAndGlyphs" textLength="36" x="1477" y="265.0669">Trade</text><text fill="#000000" font-family="sans-serif" font-size="13" lengthAdjust="spacingAndGlyphs" textLength="7" x="1537.4531" y="290.848">*</text><!--link Entry to Account--><path d="M1870.77,205.204 C1841.34,237.249 1756.36,328.361 1722,350 C1686.63,372.279 1640.55,387.011 1609.71,395.167 " fill="none" id="Entry-Account" style="stroke: #A80036; stroke-width: 1.0;"/><polygon fill="#A80036" points="1604.52,396.516,1614.2365,398.1249,1609.3594,395.259,1612.2254,390.3819,1604.52,396.516" style="stroke: #A80036; stroke-width: 1.0;"/><text fill="#000000" font-family="sans-serif" font-size="13" lengthAdjust="spacingAndGlyphs" textLength="52" x="1802" y="318.0669">Account</text><text fill="#000000" font-family="sans-serif" font-size="13" lengthAdjust="spacingAndGlyphs" textLength="7" x="1612.6611" y="388.508">*</text><!--link Account to Account--><path d="M1604.51,396.332 C1622.18,394.483 1639,397.039 1639,404 C1639,410.254 1625.42,412.952 1609.85,412.095 " fill="none" id="Account-Account" style="stroke: #A80036; stroke-width: 1.0;"/><polygon fill="#A80036" points="1604.51,411.668,1613.1612,416.3751,1609.494,412.068,1613.8011,408.4008,1604.51,411.668" style="stroke: #A80036; stroke-width: 1.0;"/><text fill="#000000" font-family="sans-serif" font-size="13" lengthAdjust="spacingAndGlyphs" textLength="94" x="1645" y="408.0669">ParentAccount</text><text fill="#000000" font-family="sans-serif" font-size="13" lengthAdjust="spacingAndGlyphs" textLength="8" x="1612.7766" y="427.6427">1</text></g></svg>